<svg version="1.1" xmlns="http://www.w3.org/2000/svg" viewBox="0 0 824.2866753472222 704.966796875" width="824.2866753472222" height="704.966796875">
  <!-- svg-source:excalidraw -->
  
  <defs>
    <style class="style-fonts">
      @font-face {
        font-family: "Virgil";
        src: url("https://unpkg.com/@excalidraw/excalidraw@0.14.0/dist/excalidraw-assets/Virgil.woff2");
      }
      @font-face {
        font-family: "Cascadia";
        src: url("https://unpkg.com/@excalidraw/excalidraw@0.14.0/dist/excalidraw-assets/Cascadia.woff2");
      }
    </style>
  </defs>
  <rect x="0" y="0" width="824.2866753472222" height="704.966796875" fill="#ffffff"></rect><g stroke-linecap="round" transform="translate(24.952573080916864 308.2459581628914) rotate(0 77.314453125 115.44921875000006)"><path d="M32 0 M32 0 C68.64 -1.68, 102.36 -0.97, 122.63 0 M32 0 C56.46 -1.63, 83.31 -0.61, 122.63 0 M122.63 0 C142.13 1.27, 155.24 11.04, 154.63 32 M122.63 0 C143.92 -0.87, 156.48 11.57, 154.63 32 M154.63 32 C154.56 73.72, 154.16 111.64, 154.63 198.9 M154.63 32 C155.07 88.92, 154.56 147.94, 154.63 198.9 M154.63 198.9 C156.5 220.56, 143.75 232.79, 122.63 230.9 M154.63 198.9 C155 222.08, 141.86 228.67, 122.63 230.9 M122.63 230.9 C85.43 230.57, 52.2 229.32, 32 230.9 M122.63 230.9 C102.81 230.84, 83.74 230.58, 32 230.9 M32 230.9 C9 228.94, 0.71 221.35, 0 198.9 M32 230.9 C10.5 230.08, 2.04 221.19, 0 198.9 M0 198.9 C-0.43 144.71, -2.46 93.06, 0 32 M0 198.9 C1 151.9, 1.06 106.77, 0 32 M0 32 C0.49 9.53, 9.79 0.67, 32 0 M0 32 C-1.02 9.62, 10.4 -2.21, 32 0" stroke="#000000" stroke-width="1" fill="none"></path></g><g stroke-linecap="round" transform="translate(17.83586968315649 298.52677408854174) rotate(0 77.314453125 115.44921875000006)"><path d="M32 0 M32 0 C60.29 2.26, 87.74 -1.25, 122.63 0 M32 0 C57.94 0.66, 86.21 -0.29, 122.63 0 M122.63 0 C145.13 1.08, 153.79 12.59, 154.63 32 M122.63 0 C141.93 1.01, 153.19 12.78, 154.63 32 M154.63 32 C153.19 90.46, 156.25 147.94, 154.63 198.9 M154.63 32 C155.25 90.51, 155.23 150.62, 154.63 198.9 M154.63 198.9 C154.22 221.4, 143.75 232.15, 122.63 230.9 M154.63 198.9 C154.35 221.19, 145.34 230.32, 122.63 230.9 M122.63 230.9 C96.43 230.69, 72.56 231.65, 32 230.9 M122.63 230.9 C94.99 230.18, 68.53 231.22, 32 230.9 M32 230.9 C10.36 232.42, -1.93 221.13, 0 198.9 M32 230.9 C9.93 230.56, 0.67 219.36, 0 198.9 M0 198.9 C-0.97 160.77, 1.03 121.44, 0 32 M0 198.9 C-0.94 154.79, -1.18 108.96, 0 32 M0 32 C-0.61 12.23, 9.4 -1.54, 32 0 M0 32 C-1.62 9.87, 12.13 1.22, 32 0" stroke="#000000" stroke-width="1" fill="none"></path></g><g stroke-linecap="round" transform="translate(208.68265787760174 297.9883626302086) rotate(0 172.318359375 150.466796875)"><path d="M32 0 M32 0 C106.75 -0.99, 180.09 -0.17, 312.64 0 M32 0 C129.5 0.54, 227.31 0.24, 312.64 0 M312.64 0 C332.32 0.42, 344.34 12.54, 344.64 32 M312.64 0 C335.28 -0.52, 343.24 12.51, 344.64 32 M344.64 32 C344.55 112.36, 345.18 192.05, 344.64 268.93 M344.64 32 C342.85 125.77, 343.43 218.63, 344.64 268.93 M344.64 268.93 C346.54 291.14, 334.76 299.54, 312.64 300.93 M344.64 268.93 C344.31 291.06, 334.1 299.77, 312.64 300.93 M312.64 300.93 C208.37 300.88, 106.95 298.93, 32 300.93 M312.64 300.93 C252.9 298.38, 194.51 298.58, 32 300.93 M32 300.93 C11.25 301.19, -1.27 290.84, 0 268.93 M32 300.93 C12.18 300.86, 1.25 290.14, 0 268.93 M0 268.93 C-0.19 211.24, -0.6 155.79, 0 32 M0 268.93 C-0.16 181.78, -0.21 94.91, 0 32 M0 32 C-0.46 9.44, 12.18 -1.86, 32 0 M0 32 C-1.45 10.46, 12.17 1.2, 32 0" stroke="#000000" stroke-width="1" fill="none"></path></g><g stroke-linecap="round" transform="translate(10 289.65516493055566) rotate(0 77.314453125 115.44921875000006)"><path d="M33.61 1.45 L131.08 -0.06 L141.96 2.94 L152.06 14.32 L151.31 19.27 L156.3 31.3 L155.73 200.78 L150.85 213.83 L149.92 217.33 L140.59 225.87 L135.89 228.69 L122.64 232.29 L33.78 229.45 L19.29 229.8 L13.91 224.42 L4.01 220.32 L3.98 212.62 L0.63 198.99 L-0.38 26.4 L3.43 18.76 L6.24 9.54 L17.44 3 L32.51 0.3" stroke="none" stroke-width="0" fill="#ced4da"></path><path d="M32 0 M32 0 C53.18 0.77, 76.26 -2.26, 122.63 0 M32 0 C66.62 0.64, 101.38 0.82, 122.63 0 M122.63 0 C145.08 1.51, 155 12.41, 154.63 32 M122.63 0 C145.39 -1.89, 156.71 8.66, 154.63 32 M154.63 32 C156.22 72.07, 153.97 114.03, 154.63 198.9 M154.63 32 C155.96 80.15, 156.14 129.06, 154.63 198.9 M154.63 198.9 C154.89 219.59, 144.46 231.49, 122.63 230.9 M154.63 198.9 C153.33 219.55, 142.79 231.5, 122.63 230.9 M122.63 230.9 C103.73 231.46, 83.68 232.83, 32 230.9 M122.63 230.9 C97.85 231.75, 71.19 230.86, 32 230.9 M32 230.9 C10.74 229.03, -0.47 222.09, 0 198.9 M32 230.9 C9.75 229.21, 1.39 221.11, 0 198.9 M0 198.9 C-0.39 164.55, 0.27 130.69, 0 32 M0 198.9 C1.57 159.42, 2.08 118.47, 0 32 M0 32 C-0.56 9.24, 10.1 1.74, 32 0 M0 32 C-0.39 10.8, 10.26 -2.04, 32 0" stroke="#000000" stroke-width="1" fill="none"></path></g><g stroke-linecap="round" transform="translate(37.02690972222217 352.908203125) rotate(0 48.5 20.5)"><path d="M10.25 0 M10.25 0 C35.26 2, 65.21 -1.25, 86.75 0 M10.25 0 C38.59 1.21, 64.94 0.73, 86.75 0 M86.75 0 C93.37 -1.07, 95.46 2.88, 97 10.25 M86.75 0 C92.73 -0.24, 97.01 5.02, 97 10.25 M97 10.25 C97.76 19.63, 94.87 25.7, 97 30.75 M97 10.25 C97.52 18.42, 96.77 27.45, 97 30.75 M97 30.75 C98.43 38.34, 91.82 42.54, 86.75 41 M97 30.75 C96.35 38.73, 94.16 41.35, 86.75 41 M86.75 41 C66.29 42.52, 47.72 39.48, 10.25 41 M86.75 41 C58.24 41.39, 29.86 41.56, 10.25 41 M10.25 41 C4.53 42.51, 0.37 39.33, 0 30.75 M10.25 41 C4.85 39.11, 2.08 35.57, 0 30.75 M0 30.75 C2.03 23.72, -0.21 18.58, 0 10.25 M0 30.75 C-0.5 24.91, -0.32 19.82, 0 10.25 M0 10.25 C0.26 2.77, 3.92 0.6, 10.25 0 M0 10.25 C-1.3 2.74, 2.24 0.6, 10.25 0" stroke="#000000" stroke-width="1" fill="none"></path></g><g transform="translate(61.52690972222217 363.908203125) rotate(0 24 9.5)"><text x="24" y="15" font-family="Cascadia, Segoe UI Emoji" font-size="16px" fill="#000000" text-anchor="middle" style="white-space: pre;" direction="ltr">Flask</text></g><g stroke-linecap="round" transform="translate(34.97222222222217 404.556640625) rotate(0 49.5 20.5)"><path d="M10.25 0 M10.25 0 C34.94 -2.08, 57.26 0.91, 88.75 0 M10.25 0 C30.17 -0.27, 51.77 -1.27, 88.75 0 M88.75 0 C94.04 -0.53, 98.26 3.21, 99 10.25 M88.75 0 C95.6 1.6, 101.04 1.75, 99 10.25 M99 10.25 C97.11 17.23, 101.02 27.18, 99 30.75 M99 10.25 C98.63 17.06, 99.78 22.35, 99 30.75 M99 30.75 C97.24 39.12, 95.02 42, 88.75 41 M99 30.75 C99.58 37.93, 94.41 40.54, 88.75 41 M88.75 41 C60.79 39.6, 36.21 43.36, 10.25 41 M88.75 41 C67.31 42.07, 44.62 42.15, 10.25 41 M10.25 41 C3.79 42.75, 1.24 35.94, 0 30.75 M10.25 41 C5.5 38.99, -1.12 37.04, 0 30.75 M0 30.75 C-0.46 21.58, -0.44 18.08, 0 10.25 M0 30.75 C-0.06 27.08, 0.19 21.33, 0 10.25 M0 10.25 C0.5 4.01, 2.28 -0.59, 10.25 0 M0 10.25 C-1.17 4.02, 1.27 -2.3, 10.25 0" stroke="#000000" stroke-width="1" fill="none"></path></g><g transform="translate(60.47222222222217 415.556640625) rotate(0 24 9.5)"><text x="24" y="15" font-family="Cascadia, Segoe UI Emoji" font-size="16px" fill="#000000" text-anchor="middle" style="white-space: pre;" direction="ltr">py-tx</text></g><g stroke-linecap="round" transform="translate(33.24565972222217 455.103515625) rotate(0 50.5 25)"><path d="M12.5 0 M12.5 0 C29.59 0.46, 49.95 -2.41, 88.5 0 M12.5 0 C38.07 0.14, 64.8 0.3, 88.5 0 M88.5 0 C96.84 1.39, 102.78 2.72, 101 12.5 M88.5 0 C98.32 1.04, 102.62 1.89, 101 12.5 M101 12.5 C100.96 20.01, 101.33 25.39, 101 37.5 M101 12.5 C100.3 23.15, 100.9 32.76, 101 37.5 M101 37.5 C101.51 46.13, 95.82 49.6, 88.5 50 M101 37.5 C102.02 44.22, 98.18 48.96, 88.5 50 M88.5 50 C72.46 51.5, 58.04 52.53, 12.5 50 M88.5 50 C60.74 51.45, 33.23 49.75, 12.5 50 M12.5 50 C5.98 48.25, -0.97 45.36, 0 37.5 M12.5 50 C5.47 52.28, -2.16 45.54, 0 37.5 M0 37.5 C-1.53 31.72, 0.16 26.91, 0 12.5 M0 37.5 C0.22 28.09, -0.6 17.8, 0 12.5 M0 12.5 C-1.02 4.69, 2.3 -2, 12.5 0 M0 12.5 C2.01 3.99, 3.9 -1.67, 12.5 0" stroke="#000000" stroke-width="1" fill="none"></path></g><g transform="translate(50.24565972222217 470.603515625) rotate(0 33.5 9.5)"><text x="33.5" y="15" font-family="Cascadia, Segoe UI Emoji" font-size="16px" fill="#000000" text-anchor="middle" style="white-space: pre;" direction="ltr">hashing</text></g><g transform="translate(47.30425347222217 300.287109375) rotate(0 37.5 12.5)"><text x="37.5" y="18" font-family="Virgil, Segoe UI Emoji" font-size="20px" fill="#000000" text-anchor="middle" style="white-space: pre;" direction="ltr">hashers</text></g><g stroke-linecap="round" transform="translate(198.77105034722217 286.810546875) rotate(0 172.318359375 150.46679687499994)"><path d="M33.67 1.71 L313.35 -0.27 L326.92 1.22 L335.06 6.72 L344.51 18.05 L343.22 30.91 L344.74 270.34 L340.67 281.55 L335.08 292.11 L325 298.76 L312.78 302.91 L31.96 299.21 L16.22 300.1 L8 294.36 L3.49 283.72 L-1.57 267.38 L1.04 24.13 L1.97 16.2 L9.74 9.18 L18.15 1.32 L33.24 -0.34" stroke="none" stroke-width="0" fill="#ced4da"></path><path d="M32 0 M32 0 C104.02 1.35, 179.59 1.61, 312.64 0 M32 0 C142.31 -0.08, 252.27 -0.07, 312.64 0 M312.64 0 C333.63 -1.67, 342.67 11.43, 344.64 32 M312.64 0 C333.16 2.12, 344.02 11.81, 344.64 32 M344.64 32 C346.08 98.6, 345.34 162.9, 344.64 268.93 M344.64 32 C342.03 115, 343.31 197.49, 344.64 268.93 M344.64 268.93 C344.17 289.54, 335.87 299.74, 312.64 300.93 M344.64 268.93 C346.72 291.25, 334.19 302.4, 312.64 300.93 M312.64 300.93 C202.95 303.45, 93.59 302.03, 32 300.93 M312.64 300.93 C221.79 299.79, 130.79 299.45, 32 300.93 M32 300.93 C10.62 299, 1.74 292.17, 0 268.93 M32 300.93 C8.88 299.99, 0.99 290.55, 0 268.93 M0 268.93 C-0.21 193.51, -0.65 118.02, 0 32 M0 268.93 C0.49 212.82, 1.61 156.8, 0 32 M0 32 C-0.98 9.19, 9.82 -1.03, 32 0 M0 32 C-1.59 10.12, 11.79 1.26, 32 0" stroke="#000000" stroke-width="1" fill="none"></path></g><g stroke-linecap="round" transform="translate(228.07573784722217 351.529296875) rotate(0 145.5 20.5)"><path d="M10.25 0 M10.25 0 C114.81 -0.32, 217.68 -0.72, 280.75 0 M10.25 0 C116.31 1.54, 223.77 0.73, 280.75 0 M280.75 0 C286.2 -1.56, 290.17 1.78, 291 10.25 M280.75 0 C287.38 0.16, 293.28 3.37, 291 10.25 M291 10.25 C290.82 16.07, 292.31 19.81, 291 30.75 M291 10.25 C290.66 14.77, 289.94 20.19, 291 30.75 M291 30.75 C292.18 37.73, 286.9 42.24, 280.75 41 M291 30.75 C290.61 36.71, 287.72 39.83, 280.75 41 M280.75 41 C227.06 43.14, 171.76 42.18, 10.25 41 M280.75 41 C202.94 39.49, 123.21 38.85, 10.25 41 M10.25 41 C4.18 40.29, 1.84 37.05, 0 30.75 M10.25 41 C4.56 40.48, 0.77 39.86, 0 30.75 M0 30.75 C-0.77 24.6, -1.92 16.48, 0 10.25 M0 30.75 C0.42 26.33, -0.48 23.33, 0 10.25 M0 10.25 C-1.19 5.22, 4.27 0.19, 10.25 0 M0 10.25 C1.46 5.46, 4.72 1.77, 10.25 0" stroke="#000000" stroke-width="1" fill="none"></path></g><g transform="translate(349.5757378472222 362.529296875) rotate(0 24 9.5)"><text x="24" y="15" font-family="Cascadia, Segoe UI Emoji" font-size="16px" fill="#000000" text-anchor="middle" style="white-space: pre;" direction="ltr">Flask</text></g><g stroke-linecap="round" transform="translate(225.22808159722217 403.384765625) rotate(0 147.5 20.5)"><path d="M10.25 0 M10.25 0 C87.66 -0.16, 168.97 0.87, 284.75 0 M10.25 0 C73.72 -0.88, 135.56 -0.71, 284.75 0 M284.75 0 C290.76 -1.64, 294.82 3.56, 295 10.25 M284.75 0 C293.86 -0.05, 293.02 1.37, 295 10.25 M295 10.25 C296.49 18.38, 293.43 23.38, 295 30.75 M295 10.25 C294.06 17.82, 295.55 23.73, 295 30.75 M295 30.75 C294.32 38.82, 291.25 40.24, 284.75 41 M295 30.75 C295.14 36.41, 289.29 41.38, 284.75 41 M284.75 41 C193.05 43.49, 102.33 44.24, 10.25 41 M284.75 41 C219.61 39.87, 156.05 40.36, 10.25 41 M10.25 41 C5.26 40.46, 0.99 37.13, 0 30.75 M10.25 41 C4.18 43.27, 1.08 38.78, 0 30.75 M0 30.75 C-1.75 24.51, -1.85 19.5, 0 10.25 M0 30.75 C-0.47 24.37, -0.71 17, 0 10.25 M0 10.25 C0.86 3.61, 4.69 1.78, 10.25 0 M0 10.25 C1.3 5.19, 2.63 1.29, 10.25 0" stroke="#000000" stroke-width="1" fill="none"></path></g><g transform="translate(348.7280815972222 414.384765625) rotate(0 24 9.5)"><text x="24" y="15" font-family="Cascadia, Segoe UI Emoji" font-size="16px" fill="#000000" text-anchor="middle" style="white-space: pre;" direction="ltr">py-tx</text></g><g stroke-linecap="round" transform="translate(221.20464409722217 452.853515625) rotate(0 150.5 25)"><path d="M12.5 0 M12.5 0 C96.14 2.24, 178.09 0.09, 288.5 0 M12.5 0 C73.76 1.81, 135.93 1.74, 288.5 0 M288.5 0 C295.11 -1.78, 302.16 4.17, 301 12.5 M288.5 0 C298.48 1.71, 301.91 2.36, 301 12.5 M301 12.5 C301.04 16.26, 302.81 24.79, 301 37.5 M301 12.5 C300.75 19.8, 300.97 27.35, 301 37.5 M301 37.5 C299.01 46.17, 297.47 50.67, 288.5 50 M301 37.5 C303.15 45, 297.58 49.77, 288.5 50 M288.5 50 C183.19 50.44, 76.88 52.32, 12.5 50 M288.5 50 C215.85 49.25, 142.7 50.19, 12.5 50 M12.5 50 C5.11 51.04, 0.05 45.17, 0 37.5 M12.5 50 C5.28 47.91, -0.05 43.63, 0 37.5 M0 37.5 C-0.61 27.84, 1.76 18.44, 0 12.5 M0 37.5 C0.53 28.63, 0.46 18.75, 0 12.5 M0 12.5 C-0.69 5.29, 3.21 -0.74, 12.5 0 M0 12.5 C0.56 4.48, 3.33 0.51, 12.5 0" stroke="#000000" stroke-width="1" fill="none"></path></g><g transform="translate(333.7046440972222 468.353515625) rotate(0 38 9.5)"><text x="38" y="15" font-family="Cascadia, Segoe UI Emoji" font-size="16px" fill="#000000" text-anchor="middle" style="white-space: pre;" direction="ltr">matching</text></g><g stroke-linecap="round" transform="translate(218.67730034722217 517.095703125) rotate(0 64 22.5)"><path d="M11.25 0 M11.25 0 C48.75 -0.1, 87.73 0.56, 116.75 0 M11.25 0 C42.78 -0.87, 76.62 0.02, 116.75 0 M116.75 0 C125.68 1.49, 128.79 2.18, 128 11.25 M116.75 0 C122.46 0.62, 127.57 3.72, 128 11.25 M128 11.25 C128.34 15.3, 129.44 20.37, 128 33.75 M128 11.25 C127.02 17.31, 128.33 23.38, 128 33.75 M128 33.75 C129.87 40.52, 124.9 44.8, 116.75 45 M128 33.75 C129.85 39.75, 126.12 44.6, 116.75 45 M116.75 45 C93.18 47.25, 70.48 46.39, 11.25 45 M116.75 45 C87.95 46.57, 58.24 45.71, 11.25 45 M11.25 45 C4.72 43.18, -0.04 39.33, 0 33.75 M11.25 45 C5.07 46.32, 1.24 40.72, 0 33.75 M0 33.75 C1.59 28.68, -0.02 23.16, 0 11.25 M0 33.75 C-0.47 25.56, -0.6 15.88, 0 11.25 M0 11.25 C0.49 4.03, 3.02 0.44, 11.25 0 M0 11.25 C-1.07 4.3, 1.66 -0.05, 11.25 0" stroke="#000000" stroke-width="1" fill="none"></path></g><g transform="translate(258.6773003472222 530.095703125) rotate(0 24 9.5)"><text x="24" y="15" font-family="Cascadia, Segoe UI Emoji" font-size="16px" fill="#000000" text-anchor="middle" style="white-space: pre;" direction="ltr">FAISS</text></g><g stroke-linecap="round" transform="translate(406.7515190972222 633.966796875) rotate(0 184 30.5)"><path d="M15.25 0 M15.25 0 C90.13 1.95, 166.57 1.83, 352.75 0 M15.25 0 C87.47 -0.84, 160.19 -1.05, 352.75 0 M352.75 0 C361.34 -1.56, 368.54 4.71, 368 15.25 M352.75 0 C362.88 -2.07, 370 6.44, 368 15.25 M368 15.25 C367.56 23.86, 368.01 32.97, 368 45.75 M368 15.25 C368.38 22.3, 367.69 27.8, 368 45.75 M368 45.75 C367.8 57.53, 361.62 62.62, 352.75 61 M368 45.75 C367.6 54, 360.65 61.88, 352.75 61 M352.75 61 C264.11 60.09, 174.59 61.72, 15.25 61 M352.75 61 C235.44 61.38, 117.96 61.04, 15.25 61 M15.25 61 C3.17 62.15, 1.15 56.99, 0 45.75 M15.25 61 C4.55 60.16, 2.19 54.54, 0 45.75 M0 45.75 C1.14 35.62, 1 23.48, 0 15.25 M0 45.75 C-0.54 37.89, -0.03 29.18, 0 15.25 M0 15.25 C0.44 4.16, 5.56 -1.81, 15.25 0 M0 15.25 C-0.05 2.86, 7.09 2.19, 15.25 0" stroke="#000000" stroke-width="1" fill="none"></path></g><g transform="translate(477.2515190972222 648.466796875) rotate(0 113.5 16)"><text x="113.5" y="26" font-family="Helvetica, Segoe UI Emoji" font-size="28px" fill="#000000" text-anchor="middle" style="white-space: pre;" direction="ltr">postgres server(s)</text></g><g stroke-linecap="round"><g transform="translate(462.28610426858677 570.4890264011972) rotate(0 -0.733841462452574 27.172392082444503)"><path d="M0.08 1.19 C0.17 9.97, -0.2 43.73, -0.47 52.58 M-1.33 0.77 C-1.32 9.67, -1.79 44.98, -1.43 53.58" stroke="#000000" stroke-width="1" fill="none"></path></g><g transform="translate(462.28610426858677 570.4890264011972) rotate(0 -0.733841462452574 27.172392082444503)"><path d="M-8.87 28.44 C-10.54 32.16, -5.6 39.41, 0 55.07 M-10.58 28.29 C-7.86 36.18, -3.78 46.18, -1.36 53.24" stroke="#000000" stroke-width="1" fill="none"></path></g><g transform="translate(462.28610426858677 570.4890264011972) rotate(0 -0.733841462452574 27.172392082444503)"><path d="M9.47 28.26 C3.8 32.03, 4.74 39.32, 0 55.07 M7.76 28.11 C4.25 35.91, 2.1 45.98, -1.36 53.24" stroke="#000000" stroke-width="1" fill="none"></path></g></g><mask></mask><g stroke-linecap="round" transform="translate(358.3765190972222 517.033203125) rotate(0 81.5 23)"><path d="M11.5 0 M11.5 0 C52.23 -3.11, 91.26 -0.22, 151.5 0 M11.5 0 C53.89 -1.83, 94.71 -0.77, 151.5 0 M151.5 0 C158.8 -0.03, 161.2 5.57, 163 11.5 M151.5 0 C160.53 0.17, 162.22 5.26, 163 11.5 M163 11.5 C161.89 16.02, 163.24 25.17, 163 34.5 M163 11.5 C163.54 19.07, 164.02 26.18, 163 34.5 M163 34.5 C164.62 41.82, 157.5 44.03, 151.5 46 M163 34.5 C163.88 41.35, 161.29 45.38, 151.5 46 M151.5 46 C104.55 47.4, 54.69 46.51, 11.5 46 M151.5 46 C114.12 43.77, 77.35 45.3, 11.5 46 M11.5 46 C4.91 45.54, -0.73 44.07, 0 34.5 M11.5 46 C2.46 48.08, 0.99 42.39, 0 34.5 M0 34.5 C1.34 25.45, 0.91 16.82, 0 11.5 M0 34.5 C-0.42 28.67, -0.52 22.63, 0 11.5 M0 11.5 C-1.81 3.79, 1.9 1.74, 11.5 0 M0 11.5 C2.19 2.05, 2.89 0.99, 11.5 0" stroke="#000000" stroke-width="1" fill="none"></path></g><g transform="translate(368.8765190972222 530.533203125) rotate(0 71 9.5)"><text x="71" y="15" font-family="Cascadia, Segoe UI Emoji" font-size="16px" fill="#000000" text-anchor="middle" style="white-space: pre;" direction="ltr">postgres client</text></g><g stroke-linecap="round" transform="translate(608.2358940972222 288.701171875) rotate(0 103.025390625 145.37304687499994)"><path d="M32 0 M32 0 C73.35 -2.24, 119.29 -1.56, 174.05 0 M32 0 C64.66 1.43, 97.67 -0.19, 174.05 0 M174.05 0 C196.9 -0.59, 204.76 9.17, 206.05 32 M174.05 0 C195.07 -1.88, 204.24 11.3, 206.05 32 M206.05 32 C205.7 119.4, 204.87 206.05, 206.05 258.75 M206.05 32 C204.8 112.53, 205.23 191.38, 206.05 258.75 M206.05 258.75 C205.66 278.45, 194.26 292.22, 174.05 290.75 M206.05 258.75 C204.51 281.35, 194.49 291.37, 174.05 290.75 M174.05 290.75 C132.45 289.52, 86.39 289.17, 32 290.75 M174.05 290.75 C119.58 289.52, 64.69 290.18, 32 290.75 M32 290.75 C11.63 291.42, 0.45 278.09, 0 258.75 M32 290.75 C8.57 292.22, -1.23 278.28, 0 258.75 M0 258.75 C-0.54 203.01, -1.19 147, 0 32 M0 258.75 C1.9 180.56, 1 100.04, 0 32 M0 32 C-0.29 9.27, 11.31 -1.81, 32 0 M0 32 C-0.79 11.93, 11.87 1, 32 0" stroke="#000000" stroke-width="1" fill="none"></path></g><g stroke-linecap="round" transform="translate(635.1148003472222 345.677734375) rotate(0 78 20.5)"><path d="M10.25 0 M10.25 0 C51.36 2.27, 94.86 -0.15, 145.75 0 M10.25 0 C53.16 0.04, 93.58 1.41, 145.75 0 M145.75 0 C152 -1.29, 154.5 3.14, 156 10.25 M145.75 0 C150.7 -1.81, 156.64 5.37, 156 10.25 M156 10.25 C156.18 15.23, 155.46 19.66, 156 30.75 M156 10.25 C156.72 15.59, 155.31 19.52, 156 30.75 M156 30.75 C154.37 36.46, 154.06 39.66, 145.75 41 M156 30.75 C157.27 36.69, 153.2 41.1, 145.75 41 M145.75 41 C108.05 40.96, 71.65 43.88, 10.25 41 M145.75 41 C93.36 42.79, 42.33 42.37, 10.25 41 M10.25 41 C4.09 41.45, -1.99 35.76, 0 30.75 M10.25 41 C4.89 39.77, -1.8 36.32, 0 30.75 M0 30.75 C-0.25 23.26, -0.78 18.41, 0 10.25 M0 30.75 C0.82 25.57, -0.99 22.04, 0 10.25 M0 10.25 C-1.4 4.06, 1.61 -0.68, 10.25 0 M0 10.25 C1.26 4.62, 4.42 0.91, 10.25 0" stroke="#000000" stroke-width="1" fill="none"></path></g><g transform="translate(689.1148003472222 356.677734375) rotate(0 24 9.5)"><text x="24" y="15" font-family="Cascadia, Segoe UI Emoji" font-size="16px" fill="#000000" text-anchor="middle" style="white-space: pre;" direction="ltr">Flask</text></g><g stroke-linecap="round" transform="translate(633.2671440972222 397.326171875) rotate(0 80.5 20.5)"><path d="M10.25 0 M10.25 0 C39.08 -2.09, 70.16 -1.54, 150.75 0 M10.25 0 C44.89 1.62, 80.73 0.21, 150.75 0 M150.75 0 C156.09 -0.27, 159.36 1.84, 161 10.25 M150.75 0 C158.22 1.95, 158.78 3.48, 161 10.25 M161 10.25 C160.48 19.28, 159.64 27.78, 161 30.75 M161 10.25 C160.26 16.42, 160.3 22.42, 161 30.75 M161 30.75 C162.48 36.24, 158.68 40.22, 150.75 41 M161 30.75 C161.62 37.69, 156.8 41.67, 150.75 41 M150.75 41 C95.01 41.95, 44.86 39.44, 10.25 41 M150.75 41 C99.34 42.74, 48.34 42.48, 10.25 41 M10.25 41 C1.43 39.18, 1.28 36.51, 0 30.75 M10.25 41 C1.62 39.73, 0.56 37.9, 0 30.75 M0 30.75 C-0.73 25.64, -1.8 19.53, 0 10.25 M0 30.75 C-1.09 24.12, -0.89 18.12, 0 10.25 M0 10.25 C-1.81 2.73, 4.51 1.05, 10.25 0 M0 10.25 C1 4.33, 2.19 -0.4, 10.25 0" stroke="#000000" stroke-width="1" fill="none"></path></g><g transform="translate(689.7671440972222 408.326171875) rotate(0 24 9.5)"><text x="24" y="15" font-family="Cascadia, Segoe UI Emoji" font-size="16px" fill="#000000" text-anchor="middle" style="white-space: pre;" direction="ltr">py-tx</text></g><g stroke-linecap="round" transform="translate(632.0405815972222 447.556640625) rotate(0 83 25)"><path d="M12.5 0 M12.5 0 C68.64 0.47, 120.46 -0.44, 153.5 0 M12.5 0 C53.15 1.96, 92.28 1.14, 153.5 0 M153.5 0 C163.6 0.17, 166.8 3.63, 166 12.5 M153.5 0 C163.05 -1.59, 167.84 4.41, 166 12.5 M166 12.5 C165.76 19.75, 165.03 31.74, 166 37.5 M166 12.5 C166.41 18.36, 165.8 24.43, 166 37.5 M166 37.5 C167.65 44.19, 160.68 48.02, 153.5 50 M166 37.5 C168.03 47.71, 160.98 51.51, 153.5 50 M153.5 50 C122.04 50.62, 89.11 47.96, 12.5 50 M153.5 50 C123.25 48.69, 94.82 49.38, 12.5 50 M12.5 50 C4.09 49.78, -0.84 45.08, 0 37.5 M12.5 50 C5.28 47.91, 1.06 46.2, 0 37.5 M0 37.5 C-0.07 26.3, 0.87 16.09, 0 12.5 M0 37.5 C0.3 31.25, -0.67 24.03, 0 12.5 M0 12.5 C1.01 3.65, 3.7 -0.58, 12.5 0 M0 12.5 C-2.14 2.41, 1.94 0.05, 12.5 0" stroke="#000000" stroke-width="1" fill="none"></path></g><g transform="translate(677.0405815972222 463.056640625) rotate(0 38 9.5)"><text x="38" y="15" font-family="Cascadia, Segoe UI Emoji" font-size="16px" fill="#000000" text-anchor="middle" style="white-space: pre;" direction="ltr">curation</text></g><g stroke-linecap="round" transform="translate(629.8921440972222 510.783203125) rotate(0 84 24)"><path d="M12 0 M12 0 C45.1 -2.33, 74.86 1.37, 156 0 M12 0 C56.97 -0.3, 101.68 0.5, 156 0 M156 0 C165.11 1.22, 166.29 3.61, 168 12 M156 0 C162.13 -1.29, 169.7 2.45, 168 12 M168 12 C168 19.84, 168.49 30.69, 168 36 M168 12 C168.74 18.04, 167.49 23.12, 168 36 M168 36 C166.6 45.79, 163.93 48.96, 156 48 M168 36 C168.77 44.52, 161.71 45.91, 156 48 M156 48 C102.49 47.36, 51.46 46.8, 12 48 M156 48 C114.9 46.54, 73.29 47.62, 12 48 M12 48 C5.84 46.2, -1.8 43.71, 0 36 M12 48 C2.39 48.74, -2.08 43.21, 0 36 M0 36 C0.66 26.42, -0.47 19.98, 0 12 M0 36 C-0.88 28.65, -0.91 22.86, 0 12 M0 12 C-1.41 2.54, 3.49 -0.08, 12 0 M0 12 C1.68 4.25, 4.65 -2.11, 12 0" stroke="#000000" stroke-width="1" fill="none"></path></g><g transform="translate(642.8921440972222 525.283203125) rotate(0 71 9.5)"><text x="71" y="15" font-family="Cascadia, Segoe UI Emoji" font-size="16px" fill="#000000" text-anchor="middle" style="white-space: pre;" direction="ltr">postgres client</text></g><g transform="translate(324.9273003472222 295.37890625) rotate(0 44.5 12.5)"><text x="44.5" y="18" font-family="Virgil, Segoe UI Emoji" font-size="20px" fill="#000000" text-anchor="middle" style="white-space: pre;" direction="ltr">matchers</text></g><g transform="translate(670.4194878472222 291.4921875) rotate(0 37.5 12.5)"><text x="37.5" y="18" font-family="Virgil, Segoe UI Emoji" font-size="20px" fill="#000000" text-anchor="middle" style="white-space: pre;" direction="ltr">curator</text></g><g stroke-linecap="round"><g transform="translate(711.4949102657179 562.5206445312499) rotate(0 1.061868376537177 30.561788416719196)"><path d="M-1.06 0.55 C-0.56 10.7, 2.66 51.51, 3.18 61.34 M0.59 -0.21 C0.95 9.57, 1.8 49.6, 2.46 59.69" stroke="#000000" stroke-width="1" fill="none"></path></g><g transform="translate(711.4949102657179 562.5206445312499) rotate(0 1.061868376537177 30.561788416719196)"><path d="M-8.02 32.66 C-3.73 39.65, -3.19 48.13, 1.65 58.95 M-9.73 32.82 C-5.91 41.49, -0.43 51.11, 3.34 60.18" stroke="#000000" stroke-width="1" fill="none"></path></g><g transform="translate(711.4949102657179 562.5206445312499) rotate(0 1.061868376537177 30.561788416719196)"><path d="M12.48 31.83 C10.29 38.9, 4.34 47.65, 1.65 58.95 M10.78 31.99 C7.15 41.02, 5.18 50.94, 3.34 60.18" stroke="#000000" stroke-width="1" fill="none"></path></g></g><mask></mask><g stroke-linecap="round" transform="translate(298.7357660289267 129.20848812204287) rotate(0 215 36.5)"><path d="M18.25 0 M18.25 0 C113.57 2.24, 206.13 2.26, 411.75 0 M18.25 0 C116.16 -0.81, 214.76 -0.27, 411.75 0 M411.75 0 C422.4 0.36, 431.57 4.69, 430 18.25 M411.75 0 C424.23 -1.96, 428.87 5.42, 430 18.25 M430 18.25 C429.51 30.15, 431.44 45.78, 430 54.75 M430 18.25 C429.13 31.77, 429.78 46.64, 430 54.75 M430 54.75 C430.93 68.19, 422.69 72.01, 411.75 73 M430 54.75 C428.98 65.48, 422.51 73.26, 411.75 73 M411.75 73 C295.94 69.89, 180.53 71.37, 18.25 73 M411.75 73 C301.83 74.32, 192.11 74.63, 18.25 73 M18.25 73 C6.53 71.43, 1.26 67.73, 0 54.75 M18.25 73 C4.33 74.63, -0.63 65.37, 0 54.75 M0 54.75 C0.26 43.07, -1.59 30.66, 0 18.25 M0 54.75 C0.44 44.77, -0.07 34.46, 0 18.25 M0 18.25 C-0.14 4.52, 7.01 -1.58, 18.25 0 M0 18.25 C0.09 4.73, 5.18 1.9, 18.25 0" stroke="#000000" stroke-width="1" fill="none"></path></g><g transform="translate(346.2357660289267 148.20848812204287) rotate(0 167.5 17.5)"><text x="167.5" y="25" font-family="Virgil, Segoe UI Emoji" font-size="28px" fill="#000000" text-anchor="middle" style="white-space: pre;" direction="ltr">Load balancer (Layer 7)</text></g><g stroke-linecap="round"><g transform="translate(609.991093619768 38.5) rotate(0 -46.15140624734909 41.06041399817721)"><path d="M-0.9 -1.17 C-11.79 2.58, -49.25 8.9, -64.44 22.98 C-79.63 37.06, -87.44 73.41, -92.04 83.29 M0.83 0.83 C-9.76 4.23, -46.43 7.98, -62.09 21.4 C-77.76 34.83, -88.12 71.04, -93.13 81.36" stroke="#000000" stroke-width="1" fill="none"></path></g><g transform="translate(609.991093619768 38.5) rotate(0 -46.15140624734909 41.06041399817721)"><path d="M-94.2 50.19 C-90.73 61.68, -91.52 72.99, -93.5 82.05 M-92.22 51.87 C-91.77 62.72, -93.26 74.3, -93.32 80.43" stroke="#000000" stroke-width="1" fill="none"></path></g><g transform="translate(609.991093619768 38.5) rotate(0 -46.15140624734909 41.06041399817721)"><path d="M-75.13 57.78 C-78.9 66.26, -86.9 74.69, -93.5 82.05 M-73.16 59.46 C-80.14 67.48, -89.05 76.11, -93.32 80.43" stroke="#000000" stroke-width="1" fill="none"></path></g></g><mask></mask><g transform="translate(605.9863711738794 10) rotate(0 55 12.5)"><text x="0" y="18" font-family="Virgil, Segoe UI Emoji" font-size="20px" fill="#000000" text-anchor="start" style="white-space: pre;" direction="ltr">API clients</text></g><g stroke-linecap="round"><g transform="translate(317.88461712311755 213.74781103870953) rotate(0 -87.33781024298423 79.55311450984732)"><path d="M0.9 -0.36 C-15.38 8.65, -68.09 26.29, -97.43 52.95 C-126.77 79.61, -162.03 141.67, -175.15 159.6 M-0.09 -1.59 C-16.03 7.68, -66.04 27.23, -95.29 54.28 C-124.53 81.33, -162.11 143.37, -175.57 160.7" stroke="#000000" stroke-width="1" fill="none"></path></g><g transform="translate(317.88461712311755 213.74781103870953) rotate(0 -87.33781024298423 79.55311450984732)"><path d="M-168.49 129.89 C-171.25 142.09, -173.77 149.68, -174.75 160.3 M-167.33 130.86 C-170.04 137.75, -170.36 145.05, -175.56 160.99" stroke="#000000" stroke-width="1" fill="none"></path></g><g transform="translate(317.88461712311755 213.74781103870953) rotate(0 -87.33781024298423 79.55311450984732)"><path d="M-151.64 141.61 C-159.68 150.2, -167.56 154.05, -174.75 160.3 M-150.49 142.58 C-157.07 146.69, -161.18 151.36, -175.56 160.99" stroke="#000000" stroke-width="1" fill="none"></path></g></g><mask></mask><g stroke-linecap="round"><g transform="translate(488.6966119583117 214.33713395537632) rotate(0 -8.866792272801831 63.97620006144757)"><path d="M0.83 -0.7 C-2.13 20.46, -14.64 106.24, -17.9 127.65 M-0.2 1.55 C-3.25 22.76, -15.31 107.48, -18.56 128.65" stroke="#000000" stroke-width="1" fill="none"></path></g><g transform="translate(488.6966119583117 214.33713395537632) rotate(0 -8.866792272801831 63.97620006144757)"><path d="M-25.78 100.2 C-24.4 107.09, -22.52 115.06, -18.82 129.79 M-23.72 98.73 C-23.44 105.56, -22.73 113.26, -17.99 128.68" stroke="#000000" stroke-width="1" fill="none"></path></g><g transform="translate(488.6966119583117 214.33713395537632) rotate(0 -8.866792272801831 63.97620006144757)"><path d="M-5.47 103.18 C-9.92 109.37, -13.83 116.48, -18.82 129.79 M-3.42 101.72 C-7.74 107.83, -11.64 114.86, -17.99 128.68" stroke="#000000" stroke-width="1" fill="none"></path></g></g><mask></mask><g stroke-linecap="round"><g transform="translate(587.3234413175237 214.01395687204285) rotate(0 24.627358398170372 61.20157562390685)"><path d="M0.5 -0.66 C8.7 19.87, 41.96 101.6, 49.95 122.01 M-0.7 1.6 C7.34 22.36, 40.8 102.91, 49.4 123.07" stroke="#000000" stroke-width="1" fill="none"></path></g><g transform="translate(587.3234413175237 214.01395687204285) rotate(0 24.627358398170372 61.20157562390685)"><path d="M27.92 102.31 C34.7 107.71, 41.81 117.64, 49.05 121.25 M29.64 100.05 C37.05 109.56, 44.16 116.56, 49.55 122.32" stroke="#000000" stroke-width="1" fill="none"></path></g><g transform="translate(587.3234413175237 214.01395687204285) rotate(0 24.627358398170372 61.20157562390685)"><path d="M46.85 94.37 C46.65 102.74, 46.88 115.56, 49.05 121.25 M48.56 92.11 C49.17 104.52, 49.44 114.39, 49.55 122.32" stroke="#000000" stroke-width="1" fill="none"></path></g></g><mask></mask></svg>