<svg version="1.1" xmlns="http://www.w3.org/2000/svg" viewBox="0 0 846.6256115309479 897.1579318576385" width="846.6256115309479" height="897.1579318576385">
  <!-- svg-source:excalidraw -->
  
  <defs>
    <style class="style-fonts">
      @font-face {
        font-family: "Virgil";
        src: url("https://unpkg.com/@excalidraw/excalidraw@0.14.0/dist/excalidraw-assets/Virgil.woff2");
      }
      @font-face {
        font-family: "Cascadia";
        src: url("https://unpkg.com/@excalidraw/excalidraw@0.14.0/dist/excalidraw-assets/Cascadia.woff2");
      }
    </style>
  </defs>
  <rect x="0" y="0" width="846.6256115309479" height="897.1579318576385" fill="#ffffff"></rect><g stroke-linecap="round" transform="translate(37.13194444444389 442.90185546874966) rotate(0 172.318359375 152.86718750000006)"><path d="M32 0 M32 0 C104.24 0.48, 175.26 -0.47, 312.64 0 M32 0 C139.47 1.26, 246.29 0.69, 312.64 0 M312.64 0 C333.72 -1.3, 346.1 9.33, 344.64 32 M312.64 0 C335.67 1.97, 346.37 9.95, 344.64 32 M344.64 32 C342.19 107.56, 342.06 184.53, 344.64 273.73 M344.64 32 C345.08 126.88, 345.69 221.98, 344.64 273.73 M344.64 273.73 C343.69 296.88, 333.79 303.88, 312.64 305.73 M344.64 273.73 C342.58 293.52, 335.85 305.92, 312.64 305.73 M312.64 305.73 C221.61 302.61, 128.78 303.24, 32 305.73 M312.64 305.73 C253.21 304.34, 193.37 305.12, 32 305.73 M32 305.73 C11.81 306.9, 0.33 295.04, 0 273.73 M32 305.73 C11.83 306.29, -1.95 293.72, 0 273.73 M0 273.73 C0.27 197.53, 1.91 119.01, 0 32 M0 273.73 C0.34 190.44, -0.77 108.36, 0 32 M0 32 C-0.12 8.71, 11.69 0.25, 32 0 M0 32 C-2.16 10.81, 10.61 -1.03, 32 0" stroke="#000000" stroke-width="1" fill="none"></path></g><g stroke-linecap="round" transform="translate(57.59678819444389 492.62451171874966) rotate(0 150 20.5)"><path d="M10.25 0 M10.25 0 C72.16 -1.22, 133.12 1.23, 289.75 0 M10.25 0 C111.59 -1.16, 211.68 -1.9, 289.75 0 M289.75 0 C295.28 1.46, 298.66 4.89, 300 10.25 M289.75 0 C298.56 1.73, 299.28 3.8, 300 10.25 M300 10.25 C298.79 13.47, 299.32 22.49, 300 30.75 M300 10.25 C300.15 17.6, 300.48 22.9, 300 30.75 M300 30.75 C301.82 37.41, 294.73 39.21, 289.75 41 M300 30.75 C298.45 39.46, 296.77 41.63, 289.75 41 M289.75 41 C184.66 42.07, 81.7 40.83, 10.25 41 M289.75 41 C210.34 41.06, 131.76 41.72, 10.25 41 M10.25 41 C4.58 41.33, -0.02 38.6, 0 30.75 M10.25 41 C3.98 39.05, -1.35 37.98, 0 30.75 M0 30.75 C0.8 26.72, -1.34 21.21, 0 10.25 M0 30.75 C-0.53 23.73, 0.2 17.68, 0 10.25 M0 10.25 C-1.96 4.44, 3.67 -1.88, 10.25 0 M0 10.25 C0.14 3.36, 2.38 -1.89, 10.25 0" stroke="#000000" stroke-width="1" fill="none"></path></g><g transform="translate(183.59678819444207 503.62451171874966) rotate(0 24 9.5)"><text x="24" y="15" font-family="Cascadia, Segoe UI Emoji" font-size="16px" fill="#000000" text-anchor="middle" style="white-space: pre;" direction="ltr">Flask</text></g><g stroke-linecap="round" transform="translate(55.74913194444389 544.2729492187497) rotate(0 152.5 20.5)"><path d="M10.25 0 M10.25 0 C94.82 2.93, 182.15 1.28, 294.75 0 M10.25 0 C119.65 -1.92, 228.35 -1.27, 294.75 0 M294.75 0 C300.24 1.47, 306.72 4.92, 305 10.25 M294.75 0 C300.86 0.38, 303.93 3.19, 305 10.25 M305 10.25 C304.21 16.38, 305.28 19.66, 305 30.75 M305 10.25 C305.41 16.02, 305.92 22.65, 305 30.75 M305 30.75 C303.14 35.8, 300.24 42.63, 294.75 41 M305 30.75 C305.18 38.21, 303.21 39.26, 294.75 41 M294.75 41 C192.84 39.51, 92.42 39.9, 10.25 41 M294.75 41 C206.45 40.84, 117.17 40.52, 10.25 41 M10.25 41 C3.39 42.01, 0.49 35.89, 0 30.75 M10.25 41 C2.07 41.4, -1.08 35.7, 0 30.75 M0 30.75 C-1.57 26.27, 0.28 18.15, 0 10.25 M0 30.75 C0.15 22.83, -0.83 15.54, 0 10.25 M0 10.25 C0.25 1.53, 3.54 -0.05, 10.25 0 M0 10.25 C-1.03 1.53, 4.05 -2.02, 10.25 0" stroke="#000000" stroke-width="1" fill="none"></path></g><g transform="translate(184.24913194444207 555.2729492187497) rotate(0 24 9.5)"><text x="24" y="15" font-family="Cascadia, Segoe UI Emoji" font-size="16px" fill="#000000" text-anchor="middle" style="white-space: pre;" direction="ltr">py-tx</text></g><g stroke-linecap="round" transform="translate(54.02256944444389 594.6127929687497) rotate(0 50.5 25)"><path d="M12.5 0 M12.5 0 C30.52 -1.16, 47.81 1.14, 88.5 0 M12.5 0 C41.07 0.83, 70.27 0.83, 88.5 0 M88.5 0 C98.55 1.5, 100.37 4.5, 101 12.5 M88.5 0 C95.76 -0.23, 98.91 2.8, 101 12.5 M101 12.5 C101.32 18.37, 101.01 22.69, 101 37.5 M101 12.5 C102.01 21.88, 100.17 30.54, 101 37.5 M101 37.5 C99.65 47.47, 96.99 50.55, 88.5 50 M101 37.5 C102.62 44.09, 98.1 47.75, 88.5 50 M88.5 50 C65.92 48.09, 44.23 49.17, 12.5 50 M88.5 50 C68.39 50.6, 47.1 50.94, 12.5 50 M12.5 50 C4.65 48.3, -1.17 46.18, 0 37.5 M12.5 50 C3.09 48.12, -0.93 46.56, 0 37.5 M0 37.5 C0.54 26.6, 1.86 18.13, 0 12.5 M0 37.5 C-0.98 31.78, 0.13 24.1, 0 12.5 M0 12.5 C0.13 4.11, 3.27 -1.64, 12.5 0 M0 12.5 C0.64 2.15, 3.94 -0.48, 12.5 0" stroke="#000000" stroke-width="1" fill="none"></path></g><g transform="translate(71.02256944444389 610.1127929687497) rotate(0 33.5 9.5)"><text x="33.5" y="15" font-family="Cascadia, Segoe UI Emoji" font-size="16px" fill="#000000" text-anchor="middle" style="white-space: pre;" direction="ltr">hashing</text></g><g stroke-linecap="round" transform="translate(158.72569444444207 594.1557617187497) rotate(0 50.5 25)"><path d="M12.5 0 M12.5 0 C43.11 1.96, 72.05 0.48, 88.5 0 M12.5 0 C33.69 0.18, 57.08 0.2, 88.5 0 M88.5 0 C96.21 0.33, 100.07 3.97, 101 12.5 M88.5 0 C94.74 -1.37, 98.72 3.4, 101 12.5 M101 12.5 C101.14 22.44, 102.62 32.91, 101 37.5 M101 12.5 C100.3 17.93, 100.55 25.96, 101 37.5 M101 37.5 C101.16 46.38, 98.25 48.49, 88.5 50 M101 37.5 C102.27 43.58, 96.67 48.7, 88.5 50 M88.5 50 C72.64 49.37, 55.7 51.4, 12.5 50 M88.5 50 C61.33 50.63, 34.44 49.28, 12.5 50 M12.5 50 C2.99 50.35, -0.94 44.2, 0 37.5 M12.5 50 C3.24 50.73, 1.33 44.1, 0 37.5 M0 37.5 C1.63 27.48, -1.06 20.39, 0 12.5 M0 37.5 C0.37 29.2, 0.31 22.76, 0 12.5 M0 12.5 C-0.9 2.52, 4.72 -1.76, 12.5 0 M0 12.5 C-0.23 3.69, 1.97 -0.69, 12.5 0" stroke="#000000" stroke-width="1" fill="none"></path></g><g transform="translate(171.22569444444207 609.6557617187497) rotate(0 38 9.5)"><text x="38" y="15" font-family="Cascadia, Segoe UI Emoji" font-size="16px" fill="#000000" text-anchor="middle" style="white-space: pre;" direction="ltr">matching</text></g><g stroke-linecap="round" transform="translate(263.52256944444207 594.5034179687497) rotate(0 50.5 25)"><path d="M12.5 0 M12.5 0 C34.9 -0.39, 53.68 -1.97, 88.5 0 M12.5 0 C41.72 0.19, 68.9 -0.39, 88.5 0 M88.5 0 C95.9 -0.2, 99.18 2.98, 101 12.5 M88.5 0 C94.56 -0.76, 103.12 4.62, 101 12.5 M101 12.5 C102.59 21.85, 100.07 31.42, 101 37.5 M101 12.5 C100.1 20.6, 100.85 27.33, 101 37.5 M101 37.5 C102.41 44.32, 97.94 48.04, 88.5 50 M101 37.5 C100.84 44.53, 94.81 49.63, 88.5 50 M88.5 50 C69.87 51.81, 53.49 51.11, 12.5 50 M88.5 50 C64.71 49.54, 39.84 50.56, 12.5 50 M12.5 50 C3.23 48.36, -0.81 46.47, 0 37.5 M12.5 50 C5.5 48.27, 0.97 46.24, 0 37.5 M0 37.5 C-1.22 32.43, -0.32 25.42, 0 12.5 M0 37.5 C0.03 28.7, -0.48 19.12, 0 12.5 M0 12.5 C0.55 2.41, 3.97 -0.42, 12.5 0 M0 12.5 C-2.2 3.47, 4.87 2.05, 12.5 0" stroke="#000000" stroke-width="1" fill="none"></path></g><g transform="translate(276.02256944444207 610.0034179687497) rotate(0 38 9.5)"><text x="38" y="15" font-family="Cascadia, Segoe UI Emoji" font-size="16px" fill="#000000" text-anchor="middle" style="white-space: pre;" direction="ltr">curation</text></g><g stroke-linecap="round" transform="translate(55.19835069444389 657.9838867187497) rotate(0 64 22.5)"><path d="M11.25 0 M11.25 0 C51.91 -1.44, 94.52 -1.49, 116.75 0 M11.25 0 C50.36 -0.63, 89.64 -0.89, 116.75 0 M116.75 0 C122.43 -1.19, 126.02 3.09, 128 11.25 M116.75 0 C126.37 0.46, 128.97 3.86, 128 11.25 M128 11.25 C127.24 19.97, 128 23.2, 128 33.75 M128 11.25 C127.93 16.27, 128.55 19.98, 128 33.75 M128 33.75 C129.1 39.29, 124.11 43.87, 116.75 45 M128 33.75 C125.98 40.88, 122.82 45.3, 116.75 45 M116.75 45 C87.08 47.16, 55.44 45.96, 11.25 45 M116.75 45 C79.16 44.28, 42.28 43.29, 11.25 45 M11.25 45 C2.94 45.63, 1.16 39.74, 0 33.75 M11.25 45 C4.72 45.4, -2.24 43.17, 0 33.75 M0 33.75 C0 26.69, 1.14 23.8, 0 11.25 M0 33.75 C-0.46 28.3, 0.26 23.61, 0 11.25 M0 11.25 C-0.2 3.33, 1.84 -0.6, 11.25 0 M0 11.25 C0.71 5.8, 2.03 -0.13, 11.25 0" stroke="#000000" stroke-width="1" fill="none"></path></g><g transform="translate(95.19835069444434 670.9838867187497) rotate(0 24 9.5)"><text x="24" y="15" font-family="Cascadia, Segoe UI Emoji" font-size="16px" fill="#000000" text-anchor="middle" style="white-space: pre;" direction="ltr">FAISS</text></g><g stroke-linecap="round" transform="translate(233.09201388888823 819.1579318576385) rotate(0 262 34)"><path d="M17 0 M17 0 C171.33 0.77, 325.06 2.04, 507 0 M17 0 C200.67 -0.38, 384.34 -0.59, 507 0 M507 0 C516.35 -0.66, 525.85 6.07, 524 17 M507 0 C519.3 0.11, 524.16 7.48, 524 17 M524 17 C523.66 26.69, 522.05 38.75, 524 51 M524 17 C524.73 29.22, 524.58 41.97, 524 51 M524 51 C523.86 61.2, 516.58 67.68, 507 68 M524 51 C522.57 62.63, 518.15 67.36, 507 68 M507 68 C314.21 69.18, 121.58 69.4, 17 68 M507 68 C401.35 68.02, 295.93 68.49, 17 68 M17 68 C6.83 66.49, 0.84 62.68, 0 51 M17 68 C3.42 69.92, -1.68 61.17, 0 51 M0 51 C1.04 41.07, -1.86 30.76, 0 17 M0 51 C0.43 40.01, 0.05 30.57, 0 17 M0 17 C-1.91 5.06, 6.28 1.78, 17 0 M0 17 C-1.72 5.54, 4.3 2.23, 17 0" stroke="#000000" stroke-width="1" fill="none"></path></g><g transform="translate(381.59201388888823 837.1579318576385) rotate(0 113.5 16)"><text x="113.5" y="26" font-family="Helvetica, Segoe UI Emoji" font-size="28px" fill="#000000" text-anchor="middle" style="white-space: pre;" direction="ltr">postgres server(s)</text></g><g stroke-linecap="round" transform="translate(195.96006944444207 657.7299804687497) rotate(0 84 30)"><path d="M15 0 M15 0 C68.21 0.49, 117.35 -0.68, 153 0 M15 0 C49.38 0.27, 84.61 2.18, 153 0 M153 0 C163.4 0.84, 168.09 5.14, 168 15 M153 0 C164.81 0.91, 166.92 7.09, 168 15 M168 15 C166.38 25.37, 167.88 33.02, 168 45 M168 15 C166.79 26.05, 167.21 36.36, 168 45 M168 45 C167.68 53.76, 163.26 59.84, 153 60 M168 45 C167.36 57.16, 164.32 61.34, 153 60 M153 60 C109.84 59, 64.53 61.05, 15 60 M153 60 C118.39 60.02, 82.39 59.86, 15 60 M15 60 C5.35 58.05, 1.67 53.54, 0 45 M15 60 C3.83 59.99, -0.13 52.75, 0 45 M0 45 C0.09 34.41, -0.94 22.29, 0 15 M0 45 C0.05 34.21, -0.04 25.65, 0 15 M0 15 C1.78 3.5, 4.89 -1.19, 15 0 M0 15 C2.23 3.34, 6.39 -1.54, 15 0" stroke="#000000" stroke-width="1" fill="none"></path></g><g transform="translate(208.96006944444207 678.2299804687497) rotate(0 71 9.5)"><text x="71" y="15" font-family="Cascadia, Segoe UI Emoji" font-size="16px" fill="#000000" text-anchor="middle" style="white-space: pre;" direction="ltr">postgres client</text></g><g transform="translate(118.40928819444207 454.37451171874966) rotate(0 82.5 12.5)"><text x="0" y="18" font-family="Virgil, Segoe UI Emoji" font-size="20px" fill="#000000" text-anchor="start" style="white-space: pre;" direction="ltr">Docker container</text></g><g stroke-linecap="round" transform="translate(38.89756944444389 368.49913194444446) rotate(0 170 25)"><path d="M12.5 0 M12.5 0 C134.27 0.04, 255.43 -0.59, 327.5 0 M12.5 0 C88.95 0.88, 164.4 0.77, 327.5 0 M327.5 0 C335.97 1.57, 340.79 3.22, 340 12.5 M327.5 0 C337.92 -0.2, 337.87 2.11, 340 12.5 M340 12.5 C340.75 19.73, 338.69 25.24, 340 37.5 M340 12.5 C339.1 17.39, 339.36 22.73, 340 37.5 M340 37.5 C339.84 45.28, 337.71 51.15, 327.5 50 M340 37.5 C341.34 46.21, 335.81 51.17, 327.5 50 M327.5 50 C225.59 48.03, 122.02 48.12, 12.5 50 M327.5 50 C223.34 48.44, 117.9 48.91, 12.5 50 M12.5 50 C2.7 48.98, -0.01 45.72, 0 37.5 M12.5 50 C1.91 51.18, 0.29 43.67, 0 37.5 M0 37.5 C-1.64 30.4, -1.75 21.99, 0 12.5 M0 37.5 C0.55 31.41, -0.51 23.49, 0 12.5 M0 12.5 C-1.19 6.1, 2.72 1.21, 12.5 0 M0 12.5 C-1.54 1.91, 1.88 2.11, 12.5 0" stroke="#000000" stroke-width="1" fill="none"></path></g><g transform="translate(172.3975694444439 377.49913194444446) rotate(0 36.5 16)"><text x="36.5" y="26" font-family="Helvetica, Segoe UI Emoji" font-size="28px" fill="#000000" text-anchor="middle" style="white-space: pre;" direction="ltr">Nginx</text></g><g stroke-linecap="round"><g transform="translate(340.97256919184974 423.8766248219372) rotate(0 1.3540119065828549 30.147879147809533)"><path d="M-0.56 -0.12 C-0.31 9.91, 0.86 50.23, 1.13 60.36 M1.35 -1.23 C1.99 8.92, 2.94 51.02, 3.27 61.52" stroke="#000000" stroke-width="1" fill="none"></path></g><g transform="translate(340.97256919184974 423.8766248219372) rotate(0 1.3540119065828549 30.147879147809533)"><path d="M-7.95 31.8 C-5.93 39.19, -2.45 50.51, 3.67 62.37 M-7.35 33.15 C-3.46 41.95, -1.94 49.64, 2.59 62.34" stroke="#000000" stroke-width="1" fill="none"></path></g><g transform="translate(340.97256919184974 423.8766248219372) rotate(0 1.3540119065828549 30.147879147809533)"><path d="M12.57 31.25 C9.07 38.69, 7.05 50.16, 3.67 62.37 M13.16 32.6 C10.8 41.72, 6.07 49.59, 2.59 62.34" stroke="#000000" stroke-width="1" fill="none"></path></g></g><mask></mask><g transform="translate(352.02900083967734 10) rotate(0 77 17.5)"><text x="0" y="25" font-family="Virgil, Segoe UI Emoji" font-size="28px" fill="#000000" text-anchor="start" style="white-space: pre;" direction="ltr">API clients</text></g><g stroke-linecap="round" transform="translate(10 274.56597222222183) rotate(0 202.5564236111111 251.96614583333331)"><path d="M32 0 M32 0 C129.62 0.9, 231.1 1.61, 373.11 0 M32 0 C149.21 0.11, 265.05 0.45, 373.11 0 M373.11 0 C394.27 -1.86, 403.33 9.32, 405.11 32 M373.11 0 C396.32 0.18, 405.74 12.29, 405.11 32 M405.11 32 C406.26 130.11, 405.45 229.18, 405.11 471.93 M405.11 32 C405.26 137.11, 405.68 241.58, 405.11 471.93 M405.11 471.93 C405.44 493.24, 395.46 504.42, 373.11 503.93 M405.11 471.93 C403.16 491.92, 394.85 502.85, 373.11 503.93 M373.11 503.93 C299.44 503.65, 224.78 504.88, 32 503.93 M373.11 503.93 C303.73 502.27, 234.98 501.62, 32 503.93 M32 503.93 C11.69 504.18, -1.88 493.39, 0 471.93 M32 503.93 C10.61 502.9, -1.89 493.9, 0 471.93 M0 471.93 C-0.73 378.27, 0.53 286.1, 0 32 M0 471.93 C0.61 372.54, 0.42 273.53, 0 32 M0 32 C-1.96 8.68, 12.5 -0.58, 32 0 M0 32 C1.22 10.26, 12.1 -0.73, 32 0" stroke="#000000" stroke-width="1" fill="none"></path></g><g transform="translate(93.4010416666647 294.05989583333314) rotate(0 118.5 20.5)"><text x="118.5" y="33" font-family="Helvetica, Segoe UI Emoji" font-size="36px" fill="#000000" text-anchor="middle" style="white-space: pre;" direction="ltr">OMM Server A</text></g><g stroke-linecap="round" transform="translate(458.6447087531701 445.74690755208303) rotate(0 172.318359375 152.8671875)"><path d="M32 0 M32 0 C143.51 0.65, 252.41 -0.95, 312.64 0 M32 0 C112.37 0.02, 193.34 0, 312.64 0 M312.64 0 C333.39 0.91, 345.89 11.2, 344.64 32 M312.64 0 C332.34 -1.4, 343.69 8.48, 344.64 32 M344.64 32 C344.66 127.51, 343.45 221.71, 344.64 273.73 M344.64 32 C346.81 113.27, 346.2 193.15, 344.64 273.73 M344.64 273.73 C346.32 294.36, 333.02 307.44, 312.64 305.73 M344.64 273.73 C344.55 292.94, 333.7 303.86, 312.64 305.73 M312.64 305.73 C240.28 307.1, 168.38 308.33, 32 305.73 M312.64 305.73 C230.25 307.42, 147.05 306.84, 32 305.73 M32 305.73 C10.47 307.54, 1.63 295.63, 0 273.73 M32 305.73 C12.43 304.79, 0.75 295.91, 0 273.73 M0 273.73 C2.26 209.71, 0.67 148.98, 0 32 M0 273.73 C1.27 209.65, 0.96 146.97, 0 32 M0 32 C-1.16 12.2, 10.9 -1, 32 0 M0 32 C-1.35 9.06, 10.06 -1.48, 32 0" stroke="#000000" stroke-width="1" fill="none"></path></g><g stroke-linecap="round" transform="translate(479.1095525031701 495.46956380208303) rotate(0 150 20.5)"><path d="M10.25 0 M10.25 0 C83.51 -1.7, 154.7 -2.28, 289.75 0 M10.25 0 C108.11 1.09, 205.36 1.5, 289.75 0 M289.75 0 C297.5 1.26, 300.53 2, 300 10.25 M289.75 0 C295.18 -0.94, 297.82 5.58, 300 10.25 M300 10.25 C300.15 15.18, 298.85 20.91, 300 30.75 M300 10.25 C300.59 17.95, 299.52 27.09, 300 30.75 M300 30.75 C299.29 36.64, 298.29 40.93, 289.75 41 M300 30.75 C297.87 37.31, 294.71 39.96, 289.75 41 M289.75 41 C204.78 38.45, 121.31 39.69, 10.25 41 M289.75 41 C218.7 42.1, 146.58 42.04, 10.25 41 M10.25 41 C5.22 42.63, 0.56 39.11, 0 30.75 M10.25 41 C2.48 41.75, 0.84 36.68, 0 30.75 M0 30.75 C-1 25.07, 1.81 21.41, 0 10.25 M0 30.75 C-0.33 25.65, 0.96 19.09, 0 10.25 M0 10.25 C1.54 3.65, 2.42 -1.17, 10.25 0 M0 10.25 C-1.61 2.81, 1.93 0.07, 10.25 0" stroke="#000000" stroke-width="1" fill="none"></path></g><g transform="translate(605.1095525031692 506.46956380208303) rotate(0 24 9.5)"><text x="24" y="15" font-family="Cascadia, Segoe UI Emoji" font-size="16px" fill="#000000" text-anchor="middle" style="white-space: pre;" direction="ltr">Flask</text></g><g stroke-linecap="round" transform="translate(477.2618962531701 547.118001302083) rotate(0 152.5 20.5)"><path d="M10.25 0 M10.25 0 C122.45 -0.74, 237.61 -0.18, 294.75 0 M10.25 0 C73.25 1.57, 135.51 2.26, 294.75 0 M294.75 0 C302.12 -1.42, 303.78 2.6, 305 10.25 M294.75 0 C299.4 2.16, 303.7 1.8, 305 10.25 M305 10.25 C304.03 18.51, 306.83 25.17, 305 30.75 M305 10.25 C304.67 18.12, 304.77 23.85, 305 30.75 M305 30.75 C306.71 37.51, 299.73 40.76, 294.75 41 M305 30.75 C303.13 36.54, 301.65 42.74, 294.75 41 M294.75 41 C226.77 39.08, 156.19 40, 10.25 41 M294.75 41 C194.49 40.87, 95.08 41.56, 10.25 41 M10.25 41 C3.98 42.53, -0.82 38.24, 0 30.75 M10.25 41 C4.26 40.1, -2.07 35.86, 0 30.75 M0 30.75 C1.78 23.32, -0.48 16.56, 0 10.25 M0 30.75 C0.97 22.37, 0.85 15.27, 0 10.25 M0 10.25 C-1 2.24, 2.02 -0.53, 10.25 0 M0 10.25 C-1.48 3.49, 5.31 1.81, 10.25 0" stroke="#000000" stroke-width="1" fill="none"></path></g><g transform="translate(605.7618962531692 558.118001302083) rotate(0 24 9.5)"><text x="24" y="15" font-family="Cascadia, Segoe UI Emoji" font-size="16px" fill="#000000" text-anchor="middle" style="white-space: pre;" direction="ltr">py-tx</text></g><g stroke-linecap="round" transform="translate(475.5353337531701 597.457845052083) rotate(0 50.5 25)"><path d="M12.5 0 M12.5 0 C38.27 0.6, 60.5 1.59, 88.5 0 M12.5 0 C29.47 0.85, 45.79 -0.49, 88.5 0 M88.5 0 C95.61 -0.82, 99.1 6.05, 101 12.5 M88.5 0 C95.53 -1.61, 102.6 4.5, 101 12.5 M101 12.5 C102.68 19.68, 101.74 28.57, 101 37.5 M101 12.5 C100.53 18.77, 101.74 25.95, 101 37.5 M101 37.5 C99.15 45.6, 95.2 49.09, 88.5 50 M101 37.5 C101.07 47.57, 95.51 49.61, 88.5 50 M88.5 50 C71.31 51.07, 56.92 51.26, 12.5 50 M88.5 50 C66.8 50.74, 43.58 50.69, 12.5 50 M12.5 50 C3.35 50.65, 0.73 45.05, 0 37.5 M12.5 50 C2.1 48.28, 0.63 44.51, 0 37.5 M0 37.5 C-0.8 30.94, 1.4 25.11, 0 12.5 M0 37.5 C0.55 29.03, -0.72 19.74, 0 12.5 M0 12.5 C-1.4 3.63, 2.88 0.06, 12.5 0 M0 12.5 C1.89 5.97, 3.77 -2.27, 12.5 0" stroke="#000000" stroke-width="1" fill="none"></path></g><g transform="translate(492.5353337531701 612.957845052083) rotate(0 33.5 9.5)"><text x="33.5" y="15" font-family="Cascadia, Segoe UI Emoji" font-size="16px" fill="#000000" text-anchor="middle" style="white-space: pre;" direction="ltr">hashing</text></g><g stroke-linecap="round" transform="translate(580.2384587531692 597.000813802083) rotate(0 50.5 25)"><path d="M12.5 0 M12.5 0 C32.82 1.3, 54.71 1.23, 88.5 0 M12.5 0 C33.34 -1.19, 53.04 -0.89, 88.5 0 M88.5 0 C94.93 1.88, 99.87 2.77, 101 12.5 M88.5 0 C98.44 0.34, 100.93 3.01, 101 12.5 M101 12.5 C102.09 22.08, 100.62 28.3, 101 37.5 M101 12.5 C101.77 22.06, 99.99 31.58, 101 37.5 M101 37.5 C99.37 44.93, 96.89 51.51, 88.5 50 M101 37.5 C99.67 45.45, 94.87 51.46, 88.5 50 M88.5 50 C67.12 51.72, 43.61 50.2, 12.5 50 M88.5 50 C66.74 51.38, 44.01 50.95, 12.5 50 M12.5 50 C4.9 49.22, -1.8 44.33, 0 37.5 M12.5 50 C4.79 48.67, -1.58 47.74, 0 37.5 M0 37.5 C1.68 30.09, 0.94 26.08, 0 12.5 M0 37.5 C-0.69 30.87, -0.89 25.14, 0 12.5 M0 12.5 C-1.29 4.23, 5.81 1.57, 12.5 0 M0 12.5 C-0.4 1.9, 5.23 -1.7, 12.5 0" stroke="#000000" stroke-width="1" fill="none"></path></g><g transform="translate(592.7384587531692 612.500813802083) rotate(0 38 9.5)"><text x="38" y="15" font-family="Cascadia, Segoe UI Emoji" font-size="16px" fill="#000000" text-anchor="middle" style="white-space: pre;" direction="ltr">matching</text></g><g stroke-linecap="round" transform="translate(685.0353337531692 597.348470052083) rotate(0 50.5 25)"><path d="M12.5 0 M12.5 0 C35.59 0.85, 61.4 0.34, 88.5 0 M12.5 0 C39.46 0.13, 66.69 1.48, 88.5 0 M88.5 0 C95.7 -1.4, 102.4 4.46, 101 12.5 M88.5 0 C96.76 -1.15, 101.78 6.24, 101 12.5 M101 12.5 C100.5 18.79, 102.79 26.19, 101 37.5 M101 12.5 C100.29 18.7, 100.4 24.68, 101 37.5 M101 37.5 C101.06 47.34, 95.68 49.66, 88.5 50 M101 37.5 C99.04 47.3, 96.72 48.99, 88.5 50 M88.5 50 C61.43 50.27, 34.27 52.29, 12.5 50 M88.5 50 C59.1 50.91, 30.87 50.19, 12.5 50 M12.5 50 C2.37 48.5, 0.54 44.68, 0 37.5 M12.5 50 C2.59 51.91, -0.83 45.15, 0 37.5 M0 37.5 C0.67 32.73, -1.37 25.97, 0 12.5 M0 37.5 C-0.57 29.45, -0.52 21.96, 0 12.5 M0 12.5 C1.64 5.74, 3.82 -1.97, 12.5 0 M0 12.5 C1.06 2.47, 3.7 1.39, 12.5 0" stroke="#000000" stroke-width="1" fill="none"></path></g><g transform="translate(697.5353337531692 612.848470052083) rotate(0 38 9.5)"><text x="38" y="15" font-family="Cascadia, Segoe UI Emoji" font-size="16px" fill="#000000" text-anchor="middle" style="white-space: pre;" direction="ltr">curation</text></g><g stroke-linecap="round" transform="translate(476.7111150031701 660.828938802083) rotate(0 64 22.5)"><path d="M11.25 0 M11.25 0 C50.22 0.16, 91.62 -0.22, 116.75 0 M11.25 0 C34.48 1.37, 59.05 -0.27, 116.75 0 M116.75 0 C125.65 0.29, 127.94 2.75, 128 11.25 M116.75 0 C125.03 2.07, 127.72 4.74, 128 11.25 M128 11.25 C129.61 18.67, 126.99 29.22, 128 33.75 M128 11.25 C126.98 17.46, 127.82 25.34, 128 33.75 M128 33.75 C126.85 40.91, 122.54 46.27, 116.75 45 M128 33.75 C127.88 40.24, 125.53 46.2, 116.75 45 M116.75 45 C78.06 46.68, 41.4 45.44, 11.25 45 M116.75 45 C77.39 44.95, 36.41 44.6, 11.25 45 M11.25 45 C4.29 43.85, -1.37 42.91, 0 33.75 M11.25 45 C2.92 44.31, -0.89 43.1, 0 33.75 M0 33.75 C-1.26 29.46, 0.13 21.09, 0 11.25 M0 33.75 C-0.49 28.35, 0.98 23.68, 0 11.25 M0 11.25 C-0.35 1.78, 4.68 -1.48, 11.25 0 M0 11.25 C-0.47 5.14, 5.72 -0.8, 11.25 0" stroke="#000000" stroke-width="1" fill="none"></path></g><g transform="translate(516.7111150031701 673.828938802083) rotate(0 24 9.5)"><text x="24" y="15" font-family="Cascadia, Segoe UI Emoji" font-size="16px" fill="#000000" text-anchor="middle" style="white-space: pre;" direction="ltr">FAISS</text></g><g stroke-linecap="round" transform="translate(617.4728337531692 660.575032552083) rotate(0 84 30)"><path d="M15 0 M15 0 C67.48 -0.1, 116.04 -1.85, 153 0 M15 0 C50.17 -2, 87.17 -1.15, 153 0 M153 0 C162.94 -1, 168.68 6.8, 168 15 M153 0 C162.72 0.99, 169.41 4.3, 168 15 M168 15 C167.31 24.35, 168.18 28.43, 168 45 M168 15 C167.79 24.4, 167.18 32.12, 168 45 M168 45 C166.29 56.27, 162.9 59.12, 153 60 M168 45 C169.28 56.2, 164.49 59.94, 153 60 M153 60 C114.77 61.81, 74.81 60.43, 15 60 M153 60 C106.19 58.71, 61.45 58.88, 15 60 M15 60 C3.63 61.66, -0.73 54.4, 0 45 M15 60 C4.11 61.85, -0.94 56, 0 45 M0 45 C0.4 32.36, -1 20.31, 0 15 M0 45 C1.01 37.58, 0.02 27.61, 0 15 M0 15 C0.93 3.52, 4.59 1.21, 15 0 M0 15 C1.97 4.2, 4.19 -1.05, 15 0" stroke="#000000" stroke-width="1" fill="none"></path></g><g transform="translate(630.4728337531692 681.075032552083) rotate(0 71 9.5)"><text x="71" y="15" font-family="Cascadia, Segoe UI Emoji" font-size="16px" fill="#000000" text-anchor="middle" style="white-space: pre;" direction="ltr">postgres client</text></g><g transform="translate(539.9220525031692 457.21956380208303) rotate(0 82.5 12.5)"><text x="0" y="18" font-family="Virgil, Segoe UI Emoji" font-size="20px" fill="#000000" text-anchor="start" style="white-space: pre;" direction="ltr">Docker container</text></g><g stroke-linecap="round" transform="translate(463.7697087531701 371.20008680555566) rotate(0 170 24)"><path d="M12 0 M12 0 C125.78 1, 239.94 2.91, 328 0 M12 0 C89 -1.58, 165.45 -1.32, 328 0 M328 0 C337.8 -0.24, 340.86 5.23, 340 12 M328 0 C335.3 -1.04, 341.93 3.19, 340 12 M340 12 C338.36 17.83, 338.58 23.22, 340 36 M340 12 C340.01 18.42, 340.82 26.5, 340 36 M340 36 C339.12 45.11, 337.04 49.3, 328 48 M340 36 C339.94 43.74, 335.77 50.07, 328 48 M328 48 C206.86 50.17, 87.4 49.16, 12 48 M328 48 C261.18 48.12, 195.76 48.35, 12 48 M12 48 C3.4 47.23, 1.61 43.18, 0 36 M12 48 C5 50.03, -1.34 45.77, 0 36 M0 36 C-1.28 27.99, -1.17 21.11, 0 12 M0 36 C-1.17 27.29, -0.93 17.45, 0 12 M0 12 C1.21 5.72, 3.31 -0.7, 12 0 M0 12 C-1.05 4.32, 6.19 -1.68, 12 0" stroke="#000000" stroke-width="1" fill="none"></path></g><g transform="translate(597.2697087531701 379.20008680555566) rotate(0 36.5 16)"><text x="36.5" y="26" font-family="Helvetica, Segoe UI Emoji" font-size="28px" fill="#000000" text-anchor="middle" style="white-space: pre;" direction="ltr">Nginx</text></g><g stroke-linecap="round"><g transform="translate(764.442395967119 424.36247996794873) rotate(0 0.5857305946456108 31.54996989819864)"><path d="M-0.49 -1.14 C-0.07 9.49, 1.63 52.11, 1.66 63.06 M1.45 0.88 C1.88 11.72, 1.19 53.94, 1.31 64.24" stroke="#000000" stroke-width="1" fill="none"></path></g><g transform="translate(764.442395967119 424.36247996794873) rotate(0 0.5857305946456108 31.54996989819864)"><path d="M-10.74 37.89 C-7.82 41.12, -2.97 49.29, 1.25 63.24 M-8.41 36.62 C-5.5 45, -0.97 54.53, 0.84 65.09" stroke="#000000" stroke-width="1" fill="none"></path></g><g transform="translate(764.442395967119 424.36247996794873) rotate(0 0.5857305946456108 31.54996989819864)"><path d="M9.78 37.97 C8 41.1, 8.15 49.24, 1.25 63.24 M12.11 36.7 C8.16 45.03, 5.84 54.53, 0.84 65.09" stroke="#000000" stroke-width="1" fill="none"></path></g></g><mask></mask><g stroke-linecap="round" transform="translate(431.51276430872576 274.89366319444423) rotate(0 202.5564236111111 253.10980902777777)"><path d="M32 0 M32 0 C114.8 1.4, 194.16 3.08, 373.11 0 M32 0 C139.58 1.74, 246.62 1.42, 373.11 0 M373.11 0 C395.67 -0.6, 404.21 12.35, 405.11 32 M373.11 0 C393.63 -1.09, 407.08 10.58, 405.11 32 M405.11 32 C404.4 123.8, 405.6 214.97, 405.11 474.22 M405.11 32 C403.21 157, 403.51 282.69, 405.11 474.22 M405.11 474.22 C406.41 495.5, 394.22 506.02, 373.11 506.22 M405.11 474.22 C407.19 497.43, 395.09 507.98, 373.11 506.22 M373.11 506.22 C284.2 505.85, 195.34 507.41, 32 506.22 M373.11 506.22 C290.2 507.9, 207.52 508.63, 32 506.22 M32 506.22 C9.85 507.09, 1.76 494.39, 0 474.22 M32 506.22 C12.43 506.48, -1.15 494.2, 0 474.22 M0 474.22 C0.61 373.29, 1.36 270.56, 0 32 M0 474.22 C-1.12 385.46, -0.59 295.93, 0 32 M0 32 C-0.7 9.76, 10.95 1.91, 32 0 M0 32 C-1.68 8.55, 10.53 1.5, 32 0" stroke="#000000" stroke-width="1" fill="none"></path></g><g transform="translate(517.134292086504 299.70008680555543) rotate(0 119.5 20.5)"><text x="119.5" y="33" font-family="Helvetica, Segoe UI Emoji" font-size="36px" fill="#000000" text-anchor="middle" style="white-space: pre;" direction="ltr">OMM Server B</text></g><g stroke-linecap="round"><g transform="translate(303.0640964051245 725.7707166883681) rotate(0 1.988230081919255 40.691703454553135)"><path d="M0.86 -0.01 C1.18 13.61, 1.49 67.81, 1.88 81.31 M-0.15 -1.07 C0.56 12.74, 3.65 68.65, 4.12 82.45" stroke="#000000" stroke-width="1" fill="none"></path></g><g transform="translate(303.0640964051245 725.7707166883681) rotate(0 1.988230081919255 40.691703454553135)"><path d="M-7.45 53.26 C-5.39 63.57, -2.54 72.68, 4.13 83.28 M-6.66 55.25 C-3.43 62.04, -0.61 68.34, 4.24 82.09" stroke="#000000" stroke-width="1" fill="none"></path></g><g transform="translate(303.0640964051245 725.7707166883681) rotate(0 1.988230081919255 40.691703454553135)"><path d="M13.05 52.31 C9.06 63.05, 5.85 72.44, 4.13 83.28 M13.83 54.3 C11.95 61.43, 9.62 67.97, 4.24 82.09" stroke="#000000" stroke-width="1" fill="none"></path></g></g><mask></mask><g stroke-linecap="round"><g transform="translate(667.4695599413658 727.4923963758681) rotate(0 0.4165675072456452 42.07282625171888)"><path d="M-1.16 -0.7 C-1.04 13.56, -0.34 70.53, -0.14 84.84 M0.43 1.55 C0.98 15.5, 1.65 69.35, 1.99 82.97" stroke="#000000" stroke-width="1" fill="none"></path></g><g transform="translate(667.4695599413658 727.4923963758681) rotate(0 0.4165675072456452 42.07282625171888)"><path d="M-9.95 53.13 C-5.69 59.95, -2.67 66.45, 2.24 82.93 M-9.64 54.98 C-5.52 61.29, -4.08 65.99, 1.18 83.26" stroke="#000000" stroke-width="1" fill="none"></path></g><g transform="translate(667.4695599413658 727.4923963758681) rotate(0 0.4165675072456452 42.07282625171888)"><path d="M10.57 52.76 C10.13 59.46, 8.47 66.05, 2.24 82.93 M10.88 54.61 C10.63 60.92, 7.71 65.7, 1.18 83.26" stroke="#000000" stroke-width="1" fill="none"></path></g></g><mask></mask><g stroke-linecap="round" transform="translate(239.10130597539455 159.30512152777771) rotate(0 192 35)"><path d="M17.5 0 M17.5 0 C115.1 -0.07, 210.24 -2.2, 366.5 0 M17.5 0 C89.29 -1.11, 161.24 -1.3, 366.5 0 M366.5 0 C377.25 -0.45, 384.31 6.08, 384 17.5 M366.5 0 C380.45 1.28, 384.69 5.76, 384 17.5 M384 17.5 C384.15 27.23, 384.13 38.93, 384 52.5 M384 17.5 C384.34 26.92, 383.35 36.41, 384 52.5 M384 52.5 C383.08 65.18, 376.63 68.8, 366.5 70 M384 52.5 C382.12 62.76, 378.87 68.17, 366.5 70 M366.5 70 C246.43 69.32, 125.19 68.34, 17.5 70 M366.5 70 C227.95 71.46, 89.14 71.3, 17.5 70 M17.5 70 C5.74 71.52, 0.55 63.5, 0 52.5 M17.5 70 C3.81 69.88, -2.19 62.3, 0 52.5 M0 52.5 C-1.18 40.96, -1.42 28.94, 0 17.5 M0 52.5 C-1.11 42.52, -0.42 33.32, 0 17.5 M0 17.5 C1.85 5.97, 7.51 -0.93, 17.5 0 M0 17.5 C1.74 8.01, 5.59 -0.63, 17.5 0" stroke="#000000" stroke-width="1" fill="none"></path></g><g transform="translate(262.10130597539455 176.80512152777771) rotate(0 169 17.5)"><text x="169" y="25" font-family="Virgil, Segoe UI Emoji" font-size="28px" fill="#000000" text-anchor="middle" style="white-space: pre;" direction="ltr">Load balancer (Layer 4)</text></g><g stroke-linecap="round"><g transform="translate(361.84249504002355 232.20397292243103) rotate(0 -0.26472530576529607 65.26585387484795)"><path d="M-0.97 0.83 C-1.03 22.2, -0.42 107.62, -0.37 129.27 M0.72 0.21 C0.52 22.24, -0.87 108.91, -1.25 130.32" stroke="#000000" stroke-width="1" fill="none"></path></g><g transform="translate(361.84249504002355 232.20397292243103) rotate(0 -0.26472530576529607 65.26585387484795)"><path d="M-9.66 102.19 C-9.47 110.15, -4.13 117.86, -1.45 128.64 M-11.58 101.09 C-8.09 110.23, -4.92 117.23, -2.21 129.47" stroke="#000000" stroke-width="1" fill="none"></path></g><g transform="translate(361.84249504002355 232.20397292243103) rotate(0 -0.26472530576529607 65.26585387484795)"><path d="M10.85 102.53 C4.98 110.22, 4.25 117.83, -1.45 128.64 M8.94 101.43 C6.94 110.35, 4.63 117.26, -2.21 129.47" stroke="#000000" stroke-width="1" fill="none"></path></g></g><mask></mask><g stroke-linecap="round"><g transform="translate(496.36180667082317 233.78645981682666) rotate(0 1.1947521260524354 66.02169952996024)"><path d="M0.72 0.47 C1.12 22.38, 2.44 110.46, 2.75 132.36 M-0.36 -0.32 C-0.09 21.18, 1.75 109.06, 2.15 130.75" stroke="#000000" stroke-width="1" fill="none"></path></g><g transform="translate(496.36180667082317 233.78645981682666) rotate(0 1.1947521260524354 66.02169952996024)"><path d="M-7.87 103.89 C-3.25 112.74, -0.42 119.79, 2.62 131.61 M-8.83 101.84 C-5.46 113.61, -1.52 123.36, 1.91 131.4" stroke="#000000" stroke-width="1" fill="none"></path></g><g transform="translate(496.36180667082317 233.78645981682666) rotate(0 1.1947521260524354 66.02169952996024)"><path d="M12.65 103.48 C10.49 112.59, 6.55 119.78, 2.62 131.61 M11.68 101.44 C7.53 113.51, 3.95 123.41, 1.91 131.4" stroke="#000000" stroke-width="1" fill="none"></path></g></g><mask></mask><g stroke-linecap="round"><g transform="translate(414.8707757877037 48.53515360090455) rotate(0 -1.2749166044436606 51.897091119512424)"><path d="M0.96 -1.18 C0.18 16.06, -2.85 86.08, -3.51 103.92 M0 0.82 C-0.51 18.13, -0.62 87.77, -1.28 104.97" stroke="#000000" stroke-width="1" fill="none"></path></g><g transform="translate(414.8707757877037 48.53515360090455) rotate(0 -1.2749166044436606 51.897091119512424)"><path d="M-13 75.07 C-8.57 87.17, -1.48 98.03, -3.06 106.74 M-10.22 77.58 C-8.33 85.36, -5.93 92.32, -1.57 105.62" stroke="#000000" stroke-width="1" fill="none"></path></g><g transform="translate(414.8707757877037 48.53515360090455) rotate(0 -1.2749166044436606 51.897091119512424)"><path d="M7.52 75.43 C3.77 87.55, 2.68 98.27, -3.06 106.74 M10.3 77.94 C6.23 85.73, 2.69 92.58, -1.57 105.62" stroke="#000000" stroke-width="1" fill="none"></path></g></g><mask></mask></svg>