<svg version="1.1" xmlns="http://www.w3.org/2000/svg" viewBox="0 0 1991.0403015007892 1077.9165272233295" width="1991.0403015007892" height="1077.9165272233295">
  <!-- svg-source:excalidraw -->
  
  <defs>
    <style class="style-fonts">
      @font-face {
        font-family: "Virgil";
        src: url("https://unpkg.com/@excalidraw/excalidraw@0.14.0/dist/excalidraw-assets/Virgil.woff2");
      }
      @font-face {
        font-family: "Cascadia";
        src: url("https://unpkg.com/@excalidraw/excalidraw@0.14.0/dist/excalidraw-assets/Cascadia.woff2");
      }
    </style>
  </defs>
  <rect x="0" y="0" width="1991.0403015007892" height="1077.9165272233295" fill="#ffffff"></rect><g stroke-linecap="round" transform="translate(677.473307781221 102.0462006023563) rotate(0 67.5 32)"><path d="M4.26 3.7 C4.26 3.7, 4.26 3.7, 4.26 3.7 M4.26 3.7 C4.26 3.7, 4.26 3.7, 4.26 3.7 M1.37 13.12 C4.56 10.47, 7.55 7.47, 10.56 2.55 M1.37 13.12 C5.13 9.26, 8.17 5.33, 10.56 2.55 M1.11 19.52 C8.23 12.33, 12.48 6.25, 16.86 1.4 M1.11 19.52 C4.46 14.41, 8.45 11.06, 16.86 1.4 M1.51 25.16 C6.89 19.96, 12.82 10.57, 22.5 1.01 M1.51 25.16 C9.58 16.79, 15.89 8.68, 22.5 1.01 M1.24 31.56 C6.56 23.35, 14.21 17.21, 27.49 1.37 M1.24 31.56 C9.92 21.41, 19.41 10.92, 27.49 1.37 M1.64 37.2 C10.76 25.52, 18.49 17.6, 33.13 0.97 M1.64 37.2 C13.48 24.61, 24.51 12.62, 33.13 0.97 M1.38 43.6 C10.39 34.37, 21.83 22.14, 38.12 1.33 M1.38 43.6 C8.67 34.03, 18.89 23.53, 38.12 1.33 M1.12 50 C10.77 38.42, 21.64 25.72, 43.76 0.94 M1.12 50 C15.57 32.22, 30.62 16.66, 43.76 0.94 M2.82 54.13 C18.95 33.87, 40.17 11.63, 48.75 1.3 M2.82 54.13 C15.81 37, 29.59 22.32, 48.75 1.3 M3.87 59.02 C18.76 43.44, 32.83 24.51, 54.39 0.91 M3.87 59.02 C19.12 40.02, 36.34 22.56, 54.39 0.91 M6.24 62.4 C25.35 44.42, 43.13 21.61, 59.38 1.27 M6.24 62.4 C27.53 38.56, 47.37 12.55, 59.38 1.27 M11.22 62.76 C22.16 47.56, 35.91 33.57, 65.02 0.87 M11.22 62.76 C29.56 41.55, 48.08 20.51, 65.02 0.87 M15.55 63.87 C30.44 44.11, 47.4 25.15, 70.01 1.23 M15.55 63.87 C37.16 39.26, 57.14 14.49, 70.01 1.23 M18.57 66.5 C34.16 46.17, 55.69 26.87, 75.65 0.84 M18.57 66.5 C37.27 44.94, 55.19 24.12, 75.65 0.84 M24.22 66.1 C37.94 49.45, 53.68 29.5, 80.64 1.2 M24.22 66.1 C36.4 53.52, 46.61 38.88, 80.64 1.2 M29.2 66.46 C46.44 48.27, 60.93 30.5, 86.28 0.8 M29.2 66.46 C42.04 53.34, 53.95 38.62, 86.28 0.8 M34.85 66.07 C58.75 40.53, 79.1 15.56, 91.27 1.16 M34.85 66.07 C48.8 52.2, 60.15 36.68, 91.27 1.16 M39.83 66.43 C51.06 53.32, 65.99 40.59, 96.91 0.77 M39.83 66.43 C53.2 51.04, 66.89 35.17, 96.91 0.77 M45.48 66.03 C65.13 45.69, 81.93 24.22, 101.9 1.13 M45.48 66.03 C61.85 46.24, 78.79 26.59, 101.9 1.13 M50.46 66.39 C73.2 42.21, 94.11 13.77, 107.54 0.73 M50.46 66.39 C62.69 52.45, 76.03 37.32, 107.54 0.73 M56.11 66 C72.97 44.38, 90.61 24.5, 112.53 1.09 M56.11 66 C72.9 47.55, 89.46 27.94, 112.53 1.09 M61.09 66.36 C75.49 50.9, 89.51 37.52, 118.17 0.7 M61.09 66.36 C77.84 46.64, 97.08 26.85, 118.17 0.7 M66.08 66.72 C85.21 43.45, 102.24 25.25, 121.85 2.57 M66.08 66.72 C85.05 45.66, 104.76 23.7, 121.85 2.57 M71.72 66.32 C86.23 47.97, 102.97 33.28, 126.18 3.68 M71.72 66.32 C83.32 51.73, 96.48 38.27, 126.18 3.68 M76.71 66.68 C91.55 48.63, 110.12 29.16, 131.16 4.04 M76.71 66.68 C87.91 51.64, 100.45 38.57, 131.16 4.04 M82.35 66.29 C92.68 55.28, 105.31 41.76, 133.53 7.42 M82.35 66.29 C102.11 44.32, 122.18 19.81, 133.53 7.42 M87.34 66.65 C104.36 49.52, 121.01 31.05, 135.23 11.56 M87.34 66.65 C105.98 45.9, 125.05 23.68, 135.23 11.56 M92.98 66.25 C108.38 49.41, 121.79 33.97, 137.6 14.93 M92.98 66.25 C105.25 53.67, 116.34 39.97, 137.6 14.93 M97.97 66.61 C105.83 56.87, 118.18 45.52, 137.99 20.58 M97.97 66.61 C109.57 52.64, 121.8 40.14, 137.99 20.58 M103.61 66.22 C110.55 58.4, 118.97 51.33, 137.73 26.98 M103.61 66.22 C114.95 51.82, 127.93 40.35, 137.73 26.98 M108.6 66.58 C120.29 52.34, 132.14 41.89, 138.12 32.62 M108.6 66.58 C117.46 55.79, 125.76 47.12, 138.12 32.62 M114.24 66.19 C120.39 61.22, 122.07 54.32, 137.86 39.02 M114.24 66.19 C124.19 55.73, 133.28 44.22, 137.86 39.02 M120.54 65.04 C127.08 61.79, 128.22 54.62, 134.98 48.43 M120.54 65.04 C124.88 59.9, 130.83 53.1, 134.98 48.43 M126.84 63.89 C128.87 61.97, 130.63 59.72, 133.4 56.34 M126.84 63.89 C127.87 62.27, 129.93 60.11, 133.4 56.34" stroke="#15aabf" stroke-width="0.5" fill="none"></path><path d="M16 0 M16 0 C49.34 -0.41, 79.92 -1.93, 119 0 M16 0 C47.39 -0.35, 79.67 0.03, 119 0 M119 0 C130.81 -1.26, 133.7 6.95, 135 16 M119 0 C129.24 1.5, 133.07 4.97, 135 16 M135 16 C136.76 27.15, 135.29 36.75, 135 48 M135 16 C135.5 24.38, 135.66 33.09, 135 48 M135 48 C134.84 57.76, 128.69 64.78, 119 64 M135 48 C133.04 57.12, 131.22 62.04, 119 64 M119 64 C79.35 63.8, 38.26 63.62, 16 64 M119 64 C80.67 64.81, 41.22 63.75, 16 64 M16 64 C5.35 64.9, -1.18 58.1, 0 48 M16 64 C4.02 64.12, -1 56.57, 0 48 M0 48 C0.98 39.14, -0.42 31.81, 0 16 M0 48 C-1.09 40.33, -0.71 30.31, 0 16 M0 16 C1.6 6.91, 6.15 1.2, 16 0 M0 16 C0.98 7.01, 3.07 1.52, 16 0" stroke="#000000" stroke-width="1" fill="none"></path></g><g transform="translate(699.973307781221 116.5462006023563) rotate(0 45 17.5)"><text x="45" y="25" font-family="Virgil, Segoe UI Emoji" font-size="27.942834003052937px" fill="#000000" text-anchor="middle" style="white-space: pre;" direction="ltr">hasher</text></g><g stroke-linecap="round" transform="translate(925.6915362572576 100.66752591075874) rotate(0 74 33.5)"><path d="M4.46 3.88 C4.46 3.88, 4.46 3.88, 4.46 3.88 M4.46 3.88 C4.46 3.88, 4.46 3.88, 4.46 3.88 M0.92 14.05 C5.28 9.42, 7.6 6.98, 10.76 2.73 M0.92 14.05 C3.67 10.19, 6.95 7.17, 10.76 2.73 M1.31 19.69 C3.11 14.45, 7.07 9.59, 17.71 0.82 M1.31 19.69 C5.05 15.83, 8.66 11.76, 17.71 0.82 M1.05 26.09 C7.92 20.41, 15.46 11.37, 22.7 1.18 M1.05 26.09 C5.32 20.36, 11.55 14.6, 22.7 1.18 M1.44 31.73 C9.14 24.47, 12.59 19.09, 28.34 0.79 M1.44 31.73 C8.88 22.37, 18.6 12.09, 28.34 0.79 M1.18 38.13 C10.26 28.3, 18.16 16.35, 33.33 1.15 M1.18 38.13 C12.22 25.25, 25.42 11.34, 33.33 1.15 M0.92 44.53 C13.04 27.47, 30.23 13.44, 38.97 0.75 M0.92 44.53 C10.42 34.08, 19.33 22.59, 38.97 0.75 M1.32 50.17 C12.3 37.85, 23.2 27.29, 43.96 1.11 M1.32 50.17 C11.31 39.11, 22.72 26.62, 43.96 1.11 M1.71 55.81 C18.41 35.59, 38.42 15.27, 49.6 0.72 M1.71 55.81 C12.2 44.21, 22.31 33.14, 49.6 0.72 M2.76 60.7 C23.09 38.29, 41.69 18.36, 54.59 1.08 M2.76 60.7 C14.17 45.79, 26.9 32.69, 54.59 1.08 M5.78 63.33 C23.7 40.32, 44.59 18.83, 60.23 0.68 M5.78 63.33 C26.97 37.7, 48.2 13.07, 60.23 0.68 M8.8 65.95 C26.27 49.04, 39.96 28.81, 65.22 1.04 M8.8 65.95 C30.23 40.63, 51.52 16.15, 65.22 1.04 M13.13 67.06 C35.4 40.04, 57.69 15.63, 70.86 0.65 M13.13 67.06 C28.9 48.56, 42.68 31.15, 70.86 0.65 M17.46 68.18 C32.07 50.83, 47.71 34.12, 75.85 1.01 M17.46 68.18 C37.93 44.72, 58.14 21.57, 75.85 1.01 M23.1 67.78 C37.27 53, 54.01 33.04, 81.49 0.62 M23.1 67.78 C40.89 46.08, 60.58 24.62, 81.49 0.62 M28.09 68.14 C44.34 50.67, 59.81 34.32, 86.48 0.98 M28.09 68.14 C44.78 48.95, 61.54 29.49, 86.48 0.98 M33.73 67.75 C51.33 45.08, 68.49 24.77, 92.12 0.58 M33.73 67.75 C53.61 45.62, 71.64 23.71, 92.12 0.58 M38.72 68.11 C52.54 53.52, 65.75 38.91, 97.11 0.94 M38.72 68.11 C61.21 44.06, 81.76 19.34, 97.11 0.94 M44.36 67.72 C61.91 48.02, 76.01 30.58, 102.75 0.55 M44.36 67.72 C61.91 47.27, 77.55 29.62, 102.75 0.55 M49.35 68.08 C62.3 54.33, 75.35 41.9, 107.74 0.91 M49.35 68.08 C62.55 52.56, 74.93 38.08, 107.74 0.91 M54.99 67.68 C68.19 52.92, 78.5 42.33, 113.38 0.51 M54.99 67.68 C69.87 51.09, 83.98 32.29, 113.38 0.51 M59.98 68.04 C72.97 51.15, 89.25 31.83, 118.37 0.87 M59.98 68.04 C79.68 46.05, 98.3 22.69, 118.37 0.87 M65.62 67.65 C81.39 48.57, 98.68 27.5, 124.01 0.48 M65.62 67.65 C86.37 43.97, 106.31 21.21, 124.01 0.48 M70.61 68.01 C92.37 41.89, 113.6 20.38, 129 0.84 M70.61 68.01 C84.43 51.33, 98.64 35.14, 129 0.84 M76.25 67.61 C94.8 46.39, 110.67 30.89, 133.33 1.95 M76.25 67.61 C94.56 47.03, 111.33 26, 133.33 1.95 M81.24 67.97 C97.83 53.08, 109.04 37.28, 137.66 3.07 M81.24 67.97 C100.18 47.03, 117.24 26.89, 137.66 3.07 M86.88 67.58 C106.13 45.29, 122.16 28.45, 142.65 3.43 M86.88 67.58 C106.44 45.97, 127.67 21.91, 142.65 3.43 M91.87 67.94 C111.43 43.96, 132.86 18.35, 145.67 6.05 M91.87 67.94 C112.73 44.12, 134.4 17.87, 145.67 6.05 M97.51 67.54 C108.04 52.93, 120.58 42.39, 148.69 8.68 M97.51 67.54 C114.81 45.99, 133.13 26.51, 148.69 8.68 M102.5 67.9 C110.77 56.53, 122.27 46.78, 149.08 14.32 M102.5 67.9 C119.03 48.29, 135.72 28.3, 149.08 14.32 M108.14 67.51 C117.2 58.57, 125.16 45.74, 149.48 19.96 M108.14 67.51 C123.14 48.96, 140.28 31.87, 149.48 19.96 M113.13 67.87 C124 53.11, 134.64 43.23, 149.22 26.36 M113.13 67.87 C126.34 52.75, 138.62 37.99, 149.22 26.36 M118.12 68.23 C124.53 60.75, 132.08 52.12, 149.61 32 M118.12 68.23 C124.35 60.09, 131.14 53.13, 149.61 32 M123.76 67.83 C129.22 62.97, 132.34 55.56, 149.35 38.4 M123.76 67.83 C132.19 57.81, 141.15 46.7, 149.35 38.4 M128.75 68.19 C134.55 61.34, 137.96 55.8, 149.74 44.04 M128.75 68.19 C133.28 62.74, 139.25 54.81, 149.74 44.04 M133.74 68.55 C140.54 62.75, 146.53 53.32, 148.83 51.2 M133.74 68.55 C139.75 61.66, 145.2 55.85, 148.83 51.2" stroke="#15aabf" stroke-width="0.5" fill="none"></path><path d="M16.75 0 M16.75 0 C41.64 -1.09, 64.91 -0.4, 131.25 0 M16.75 0 C59.79 0.52, 104.53 -0.07, 131.25 0 M131.25 0 C141.74 1.79, 149.91 6.65, 148 16.75 M131.25 0 C140.16 -0.91, 149.31 5.64, 148 16.75 M148 16.75 C148.6 24.22, 149.22 34.07, 148 50.25 M148 16.75 C147.39 23.65, 148.88 31.4, 148 50.25 M148 50.25 C149.23 61.11, 142 68.05, 131.25 67 M148 50.25 C147.86 61.37, 141.09 69.26, 131.25 67 M131.25 67 C88.69 66.35, 48.54 68.34, 16.75 67 M131.25 67 C93.12 65.1, 56.11 66.94, 16.75 67 M16.75 67 C6.51 66.23, -0.4 60.55, 0 50.25 M16.75 67 C4.47 66.85, 1.5 59.84, 0 50.25 M0 50.25 C-1.84 41.68, -1.05 37.29, 0 16.75 M0 50.25 C-0.77 37.57, 0.55 25.08, 0 16.75 M0 16.75 C0.51 4.2, 6.43 1.76, 16.75 0 M0 16.75 C1.42 5.06, 4.47 -1.3, 16.75 0" stroke="#000000" stroke-width="1" fill="none"></path></g><g transform="translate(945.6915362572576 116.66752591075874) rotate(0 54 17.5)"><text x="54" y="25" font-family="Virgil, Segoe UI Emoji" font-size="27.942834003052937px" fill="#000000" text-anchor="middle" style="white-space: pre;" direction="ltr">matcher</text></g><g stroke-linecap="round" transform="translate(1465.2927229967327 105.86650599975405) rotate(0 70.5 28)"><path d="M1.86 5.59 C1.86 5.59, 1.86 5.59, 1.86 5.59 M1.86 5.59 C1.86 5.59, 1.86 5.59, 1.86 5.59 M1.6 11.99 C4.06 10.63, 6.75 6.6, 8.16 4.44 M1.6 11.99 C3.31 9.88, 4.95 8.02, 8.16 4.44 M1.34 18.39 C5.91 13.78, 9.03 10.12, 15.77 1.78 M1.34 18.39 C5.56 12.95, 9.76 9.27, 15.77 1.78 M1.73 24.03 C10.71 14.31, 15.59 6.16, 21.41 1.39 M1.73 24.03 C10.06 15.42, 17.45 7.05, 21.41 1.39 M1.47 30.43 C9.4 19.77, 18.84 9.37, 26.4 1.75 M1.47 30.43 C8.81 22.67, 15.09 13.82, 26.4 1.75 M1.87 36.07 C7.72 30.23, 15.71 22.11, 31.39 2.11 M1.87 36.07 C10.63 27.61, 19.34 17.3, 31.39 2.11 M1.6 42.47 C13.45 26.18, 30.32 11.16, 37.03 1.72 M1.6 42.47 C12.45 31.54, 22.36 19.32, 37.03 1.72 M2.65 47.36 C12.21 36.54, 25.41 20.57, 42.02 2.08 M2.65 47.36 C11.75 36.72, 21.92 25.7, 42.02 2.08 M3.71 52.25 C21.98 33.29, 38.82 12.52, 47.66 1.68 M3.71 52.25 C18.33 34.14, 34.93 16.57, 47.66 1.68 M6.72 54.87 C20.49 41.88, 31.74 28.9, 52.65 2.04 M6.72 54.87 C19.81 40.86, 30.35 27.45, 52.65 2.04 M10.4 56.74 C23.44 44.42, 35.12 31.37, 58.29 1.65 M10.4 56.74 C23.42 42.89, 34.97 28.4, 58.29 1.65 M15.39 57.1 C29.26 40.63, 44.46 23.75, 63.28 2.01 M15.39 57.1 C30.48 40.43, 44.47 23.06, 63.28 2.01 M20.37 57.46 C37.17 41.2, 52.5 20.75, 68.27 2.37 M20.37 57.46 C36.66 38.7, 54.4 18.44, 68.27 2.37 M26.02 57.07 C42.6 39.62, 60.11 19.52, 73.91 1.97 M26.02 57.07 C37.34 43.98, 51.58 29.91, 73.91 1.97 M31 57.43 C41.96 43.9, 56.95 28.35, 78.9 2.33 M31 57.43 C43.74 41.43, 58.7 24.85, 78.9 2.33 M36.65 57.03 C49.44 40.45, 60.57 29.95, 84.54 1.94 M36.65 57.03 C55.53 35.84, 73.35 13.94, 84.54 1.94 M41.63 57.39 C57.32 40.06, 68.79 27.05, 89.53 2.3 M41.63 57.39 C57.71 40.66, 71.72 22.73, 89.53 2.3 M47.28 57 C61.68 40.89, 75.76 20.78, 95.17 1.9 M47.28 57 C61.83 41.05, 75.39 24.14, 95.17 1.9 M52.26 57.36 C66.63 40.51, 79.44 24.31, 100.16 2.26 M52.26 57.36 C61.62 45.78, 71.76 35.86, 100.16 2.26 M57.25 57.72 C68.58 45.59, 78.61 30.93, 105.14 2.62 M57.25 57.72 C74.5 38.03, 90.75 17.62, 105.14 2.62 M62.89 57.32 C76.44 41.13, 89.9 25.86, 110.79 2.23 M62.89 57.32 C77.51 40.62, 90.43 26.07, 110.79 2.23 M67.88 57.68 C78.92 46.82, 87.12 34.12, 115.77 2.59 M67.88 57.68 C79.96 45.32, 91.49 31.39, 115.77 2.59 M73.52 57.29 C82.56 44.75, 92.81 33.66, 121.42 2.19 M73.52 57.29 C86.32 42.54, 99.1 28.59, 121.42 2.19 M78.51 57.65 C93.09 41.26, 103.71 28.78, 126.4 2.55 M78.51 57.65 C91.24 44.35, 102.63 31.05, 126.4 2.55 M84.15 57.25 C101.66 36.64, 122.15 13.74, 133.36 0.65 M84.15 57.25 C99.96 38.88, 116.92 19.83, 133.36 0.65 M89.14 57.61 C105.44 40.97, 117.36 25.21, 136.38 3.27 M89.14 57.61 C105.85 40.35, 121.46 20.04, 136.38 3.27 M94.13 57.97 C104.22 44.9, 119.13 31.36, 139.4 5.9 M94.13 57.97 C106.11 42.18, 120.75 27.01, 139.4 5.9 M99.77 57.58 C110.57 45.85, 118.96 35.65, 141.1 10.03 M99.77 57.58 C112.9 44.45, 123.88 30.66, 141.1 10.03 M104.76 57.94 C114.55 48.24, 123.05 35.45, 143.47 13.41 M104.76 57.94 C116.43 46.38, 125.35 33.86, 143.47 13.41 M110.4 57.54 C120.48 46.31, 126.18 39.5, 143.86 19.05 M110.4 57.54 C117.48 50.41, 125.8 40.78, 143.86 19.05 M115.39 57.9 C124.82 48.57, 132.93 37.29, 143.6 25.45 M115.39 57.9 C124.54 46.13, 133.86 35.28, 143.6 25.45 M121.03 57.51 C131.62 48.82, 138.2 36.73, 143.34 31.85 M121.03 57.51 C128.98 49.24, 137.23 39.75, 143.34 31.85 M127.33 56.36 C131.41 50.31, 136.66 46.58, 143.08 38.25 M127.33 56.36 C133.83 49.67, 137.76 44.25, 143.08 38.25 M134.29 54.46 C137.95 51.3, 138.96 48.92, 142.81 44.65 M134.29 54.46 C136.56 50.72, 139.4 48.5, 142.81 44.65" stroke="#15aabf" stroke-width="0.5" fill="none"></path><path d="M14 0 M14 0 C54.91 -1.08, 99.51 -1.44, 127 0 M14 0 C43.93 -1.72, 74.39 -0.27, 127 0 M127 0 C137.57 -0.4, 140.38 3.93, 141 14 M127 0 C136.44 -0.68, 141.34 3.91, 141 14 M141 14 C140.58 23.1, 141.15 29.84, 141 42 M141 14 C140.5 24.11, 140.07 33.08, 141 42 M141 42 C139.38 51.8, 136.26 55.37, 127 56 M141 42 C141.49 51.08, 136.89 56.36, 127 56 M127 56 C85.18 56.36, 39.45 55.8, 14 56 M127 56 C91.93 56.97, 59.01 55.83, 14 56 M14 56 C3.18 55.77, 0.5 52.68, 0 42 M14 56 C5.12 55.86, 0.54 50.54, 0 42 M0 42 C0.11 34.86, -0.75 32.02, 0 14 M0 42 C-1.04 35.27, 0.19 28.17, 0 14 M0 14 C0.05 3.9, 6.38 -0.28, 14 0 M0 14 C0.91 5.88, 3.81 -1.72, 14 0" stroke="#000000" stroke-width="1" fill="none"></path></g><g transform="translate(1483.2927229967327 116.36650599975405) rotate(0 52.5 17.5)"><text x="52.5" y="25" font-family="Virgil, Segoe UI Emoji" font-size="28px" fill="#000000" text-anchor="middle" style="white-space: pre;" direction="ltr">curator</text></g><g stroke-linecap="round" transform="translate(1215.2354530735884 107.25731561294447) rotate(0 86.5 28)"><path d="M1.86 5.59 C1.86 5.59, 1.86 5.59, 1.86 5.59 M1.86 5.59 C1.86 5.59, 1.86 5.59, 1.86 5.59 M1.6 11.99 C4.39 8.52, 6.7 7.31, 8.16 4.44 M1.6 11.99 C3.25 10.11, 4.93 8.25, 8.16 4.44 M1.34 18.39 C7.3 11.55, 10.76 10.33, 15.77 1.78 M1.34 18.39 C6.42 13.5, 9.88 7.79, 15.77 1.78 M1.73 24.03 C8.82 19.88, 10.93 14.54, 21.41 1.39 M1.73 24.03 C8.79 16.67, 14.2 9.94, 21.41 1.39 M1.47 30.43 C10.61 19.41, 16.8 13.89, 26.4 1.75 M1.47 30.43 C10.06 21.29, 20.19 10.01, 26.4 1.75 M1.87 36.07 C12.13 23.03, 24.19 8.2, 31.39 2.11 M1.87 36.07 C13.28 23.24, 25.26 8.15, 31.39 2.11 M1.6 42.47 C8.67 31.98, 17.65 25.53, 37.03 1.72 M1.6 42.47 C13.42 27.31, 26.27 14.12, 37.03 1.72 M2.65 47.36 C9.39 37.78, 19.36 29.8, 42.02 2.08 M2.65 47.36 C16.55 30.81, 30.58 13.87, 42.02 2.08 M3.71 52.25 C13.35 42.67, 21.88 29.18, 47.66 1.68 M3.71 52.25 C19.71 32.53, 37.84 14.29, 47.66 1.68 M6.72 54.87 C20.55 36.62, 34.24 23.24, 52.65 2.04 M6.72 54.87 C23.4 35.76, 39.18 16.96, 52.65 2.04 M10.4 56.74 C20.86 44.67, 32.52 31.3, 58.29 1.65 M10.4 56.74 C20.09 44.43, 30.46 33.35, 58.29 1.65 M15.39 57.1 C25.27 46.77, 32.95 34.11, 63.28 2.01 M15.39 57.1 C31.65 38.29, 48.31 18.33, 63.28 2.01 M20.37 57.46 C32.49 43.59, 42.23 30.78, 68.92 1.61 M20.37 57.46 C32.11 43.73, 45.41 27.36, 68.92 1.61 M26.02 57.07 C44.99 36.78, 63.46 13, 73.91 1.97 M26.02 57.07 C44.31 36.22, 61.77 16.59, 73.91 1.97 M31 57.43 C42.13 44.66, 51.45 33.81, 78.9 2.33 M31 57.43 C48.22 37.13, 67.54 15.52, 78.9 2.33 M36.65 57.03 C49.96 39.96, 60.83 28.41, 84.54 1.94 M36.65 57.03 C52.38 40.51, 65.89 24.16, 84.54 1.94 M41.63 57.39 C62.65 34.74, 78.85 15.92, 89.53 2.3 M41.63 57.39 C54.1 43.02, 67.26 27.51, 89.53 2.3 M47.28 57 C57.99 44.9, 68.61 28.46, 95.17 1.9 M47.28 57 C60.8 40.2, 74.17 24.54, 95.17 1.9 M52.26 57.36 C67.47 37.73, 83.9 18.15, 100.16 2.26 M52.26 57.36 C65.16 42.37, 79.15 24.58, 100.16 2.26 M57.25 57.72 C70.68 42.87, 80.72 28.56, 105.8 1.87 M57.25 57.72 C71.74 40.34, 86.36 25.29, 105.8 1.87 M62.89 57.32 C79.21 37.19, 99.37 15.77, 110.79 2.23 M62.89 57.32 C74.43 42.52, 87.26 28.43, 110.79 2.23 M67.88 57.68 C84.68 39.54, 100.68 19.01, 115.77 2.59 M67.88 57.68 C85.63 38.11, 104.1 16.26, 115.77 2.59 M73.52 57.29 C86.16 41.86, 102.11 25.96, 121.42 2.19 M73.52 57.29 C82.71 46.14, 93.36 34.38, 121.42 2.19 M78.51 57.65 C95.66 38.75, 116.03 16.93, 126.4 2.55 M78.51 57.65 C97.57 36.14, 115.67 15.65, 126.4 2.55 M84.15 57.25 C103.61 38.34, 120.76 16.5, 132.05 2.16 M84.15 57.25 C96.93 42.57, 109.77 27.59, 132.05 2.16 M89.14 57.61 C105.02 40.42, 118.58 24.02, 137.03 2.52 M89.14 57.61 C102.73 41.66, 115.04 26.42, 137.03 2.52 M94.78 57.22 C110.71 39.34, 126.24 22.08, 142.68 2.13 M94.78 57.22 C114.44 35.57, 132.02 13.94, 142.68 2.13 M99.77 57.58 C112.46 42.17, 129.75 23.17, 147.66 2.49 M99.77 57.58 C111.31 45.22, 121.39 32.83, 147.66 2.49 M104.76 57.94 C117.82 43.06, 129.66 27.36, 153.31 2.09 M104.76 57.94 C122.97 35.88, 141.1 16.29, 153.31 2.09 M110.4 57.54 C122.38 45.62, 131.75 35.12, 158.29 2.45 M110.4 57.54 C123.02 43.8, 136.19 27.84, 158.29 2.45 M115.39 57.9 C128.68 45.17, 140.39 30.1, 163.28 2.81 M115.39 57.9 C128.76 42.61, 143.49 27.18, 163.28 2.81 M121.03 57.51 C135.43 42.68, 147.56 27.79, 168.27 3.17 M121.03 57.51 C134.85 42.13, 146.86 28.66, 168.27 3.17 M126.02 57.87 C140.14 41.41, 150.79 26.5, 171.29 5.8 M126.02 57.87 C136.28 45.62, 145.2 34.17, 171.29 5.8 M131.66 57.48 C143.44 44.52, 152.71 30.42, 172.99 9.93 M131.66 57.48 C147.82 39.54, 163.03 21.33, 172.99 9.93 M136.65 57.84 C148.98 43.67, 162.04 28.49, 175.36 13.31 M136.65 57.84 C150.85 41.68, 163.59 27.09, 175.36 13.31 M141.64 58.2 C153.31 44.43, 163.86 29.63, 175.09 19.71 M141.64 58.2 C154.72 42.64, 166.82 28.5, 175.09 19.71 M147.28 57.8 C155.67 48.03, 162.82 40.48, 175.49 25.35 M147.28 57.8 C155.37 49.88, 163.52 39.52, 175.49 25.35 M152.27 58.16 C162.46 48.76, 168.92 37.99, 175.23 31.75 M152.27 58.16 C158.48 50.53, 166.7 43.22, 175.23 31.75 M159.22 56.26 C161.23 53.41, 166.14 48.7, 174.97 38.14 M159.22 56.26 C162.62 52.4, 167.44 46.28, 174.97 38.14 M166.18 54.35 C169.53 50.56, 171.85 47.3, 174.7 44.54 M166.18 54.35 C167.98 52.96, 169.67 50.7, 174.7 44.54" stroke="#15aabf" stroke-width="0.5" fill="none"></path><path d="M14 0 M14 0 C60.17 0.24, 104.35 0.31, 159 0 M14 0 C68.8 1.01, 125.03 1.38, 159 0 M159 0 C168.02 1.18, 172 4.21, 173 14 M159 0 C166.49 0.47, 175.23 3.51, 173 14 M173 14 C174.45 21, 174.13 30.38, 173 42 M173 14 C173.93 20.06, 172.48 24.75, 173 42 M173 42 C171.56 49.64, 170.32 56.46, 159 56 M173 42 C171.59 52.41, 168.65 56.75, 159 56 M159 56 C100.93 54.49, 43.62 57.44, 14 56 M159 56 C123.14 56.87, 86.31 57.32, 14 56 M14 56 C3.84 57.8, 0.89 51.93, 0 42 M14 56 C4.28 53.82, 0.22 50.09, 0 42 M0 42 C0.04 32.29, -1.05 21.54, 0 14 M0 42 C-0.7 36.17, 0.71 31.11, 0 14 M0 14 C1.49 2.68, 5.15 -1.5, 14 0 M0 14 C0.78 5.42, 2.46 -1.44, 14 0" stroke="#000000" stroke-width="1" fill="none"></path></g><g transform="translate(1234.7354530735884 117.75731561294447) rotate(0 67 17.5)"><text x="67" y="25" font-family="Virgil, Segoe UI Emoji" font-size="28px" fill="#000000" text-anchor="middle" style="white-space: pre;" direction="ltr">database</text></g><g stroke-linecap="round"><g transform="translate(743.8968094311327 180.33630868767068) rotate(0 -1.0828470492121482 433.3866303392946)"><path d="M-0.32 1.14 C-0.98 145.64, -2.39 722.19, -3.11 866.08 M1.71 0.69 C0.85 144.94, -3.2 720.27, -3.87 864.39" stroke="#000000" stroke-width="1" fill="none"></path></g></g><mask></mask><g stroke-linecap="round"><g transform="translate(1001.3478288984442 172.4701821783617) rotate(0 -3.665234601993518 438.1697517286302)"><path d="M-0.76 0.18 C-2.28 146.34, -7.46 731.03, -8.37 877.11 M1.04 -0.77 C-0.19 145, -5.02 728.72, -6.29 875.17" stroke="#000000" stroke-width="1" fill="none"></path></g></g><mask></mask><g stroke-linecap="round"><g transform="translate(1536.246006969281 165.09120397398283) rotate(0 -4.940406345241854 447.4374471415707)"><path d="M0.68 0.34 C-1.03 149.75, -8.6 746.18, -10.56 895.4 M-0.42 -0.52 C-1.71 148.61, -6.78 744.51, -8.19 893.55" stroke="#000000" stroke-width="1" fill="none"></path></g></g><mask></mask><g stroke-linecap="round"><g transform="translate(1301.9371058544616 166.60913092478881) rotate(0 -5.556590937966348 446.82496410766146)"><path d="M-1.19 -0.08 C-2.84 148.91, -9.01 744.28, -10.63 893.29 M0.39 -1.17 C-1.35 148.08, -9.49 745.95, -11.51 894.82" stroke="#000000" stroke-width="1" fill="none"></path></g></g><mask></mask><g mask="url(#mask-WXpRKW0x7MMB_fIahs9ZD)" stroke-linecap="round"><g transform="translate(352.58881253371584 280.8332819013938) rotate(0 197.06618983684365 4.005787662302623)"><path d="M0.65 0.69 C66.16 1.89, 326.95 5.61, 392.26 6.57 M-0.46 0 C65.5 1.45, 329.27 6.75, 394.6 8.01" stroke="#000000" stroke-width="1" fill="none"></path></g><g transform="translate(352.58881253371584 280.8332819013938) rotate(0 197.06618983684365 4.005787662302623)"><path d="M367.36 16.51 C372.65 14.51, 379.12 14.71, 395.03 7.53 M366.04 16.78 C374.22 14.22, 382.32 12.32, 395.25 7.72" stroke="#000000" stroke-width="1" fill="none"></path></g><g transform="translate(352.58881253371584 280.8332819013938) rotate(0 197.06618983684365 4.005787662302623)"><path d="M367.76 -4 C372.85 -1.16, 379.23 3.88, 395.03 7.53 M366.45 -3.74 C374.69 -0.52, 382.68 3.35, 395.25 7.72" stroke="#000000" stroke-width="1" fill="none"></path></g></g><mask id="mask-WXpRKW0x7MMB_fIahs9ZD"><rect x="0" y="0" fill="#fff" width="845.5681422393504" height="387.58984935626745"></rect><rect x="466.0784773865333" y="266.7115656288306" fill="#000" width="166" height="35" opacity="1"></rect></mask><g transform="translate(466.0784773865332 266.7115656288306) rotate(0 83.57652498402626 18.127503934865786)"><text x="83" y="25" font-family="Virgil, Segoe UI Emoji" font-size="28px" fill="#000000" text-anchor="middle" style="white-space: pre;" direction="ltr">photo or url</text></g><g mask="url(#mask-FaHoOENk6g4NYArYb--DH)" stroke-linecap="round"><g transform="translate(1831.1940194949484 351.67121064743833) rotate(0 -541.91112291358 4.099660603576922)"><path d="M-1.14 -0.68 C-181.62 0.75, -903.16 6.28, -1083.75 7.94 M0.47 1.57 C-180.02 3.16, -903.28 7.36, -1084.29 8.88" stroke="#000000" stroke-width="1" fill="none"></path></g><g transform="translate(1831.1940194949484 351.67121064743833) rotate(0 -541.91112291358 4.099660603576922)"><path d="M-1057.31 -0.27 C-1064.46 0.24, -1068.59 4.88, -1083.18 8.73 M-1055.93 -1.92 C-1067.38 1.89, -1078.2 6.38, -1084.63 8.21" stroke="#000000" stroke-width="1" fill="none"></path></g><g transform="translate(1831.1940194949484 351.67121064743833) rotate(0 -541.91112291358 4.099660603576922)"><path d="M-1057.16 20.25 C-1064.24 16.12, -1068.41 16.12, -1083.18 8.73 M-1055.78 18.6 C-1067.1 14.3, -1077.97 10.68, -1084.63 8.21" stroke="#000000" stroke-width="1" fill="none"></path></g></g><mask id="mask-FaHoOENk6g4NYArYb--DH"><rect x="0" y="0" fill="#fff" width="3015.7278069958174" height="460.73823301737184"></rect><rect x="1205.927125744514" y="338.7047218324051" fill="#000" width="166" height="35" opacity="1"></rect></mask><g transform="translate(1205.927125744514 338.7047218324051) rotate(0 83.3557708368545 17.066149418610166)"><text x="83" y="25" font-family="Virgil, Segoe UI Emoji" font-size="28px" fill="#000000" text-anchor="middle" style="white-space: pre;" direction="ltr">photo or url</text></g><g stroke-linecap="round" transform="translate(918.3922599330268 509.80481844185647) rotate(0 82.5 60.5)"><path d="M29.87 -1.12 L135.08 -1.99 L148.66 2.46 L156.71 7.78 L161.79 18.68 L164.4 28.93 L166.42 97.97 L163.62 103.88 L159.02 112.39 L149.33 118.45 L134.76 119.13 L29.94 122.5 L15.47 117.75 L7.86 113.29 L3.05 102.45 L-0.6 98.74 L-0.11 23.76 L0.25 17.12 L7.03 8.57 L17.37 3.86 L28.84 0.69" stroke="none" stroke-width="0" fill="#ced4da"></path><path d="M30.25 0 M30.25 0 C72.01 -2.46, 111.09 -2.43, 134.75 0 M30.25 0 C55.38 0.46, 79.61 0.67, 134.75 0 M134.75 0 C155.03 -1.19, 165.56 8.1, 165 30.25 M134.75 0 C153.27 0.7, 163.86 12.35, 165 30.25 M165 30.25 C165.14 43.19, 163.89 57.07, 165 90.75 M165 30.25 C165.97 50.37, 164.35 68.68, 165 90.75 M165 90.75 C163.67 110.96, 153.06 121.92, 134.75 121 M165 90.75 C164.28 112.13, 155.57 120.47, 134.75 121 M134.75 121 C93.04 119.42, 52.81 119.07, 30.25 121 M134.75 121 C114.53 121.36, 92.04 122.74, 30.25 121 M30.25 121 C8.59 122.68, 1.49 110.68, 0 90.75 M30.25 121 C8.8 120.49, 0.21 113.02, 0 90.75 M0 90.75 C-1.26 77.76, 1.78 59.85, 0 30.25 M0 90.75 C-1.28 71.5, -0.54 51.02, 0 30.25 M0 30.25 C-0.95 11.74, 10.92 -1.32, 30.25 0 M0 30.25 C0.13 10.56, 9.74 -0.76, 30.25 0" stroke="#000000" stroke-width="1" fill="none"></path></g><g transform="translate(934.3922599330268 514.8048184418565) rotate(0 66.5 52.5)"><text x="66.5" y="25" font-family="Virgil, Segoe UI Emoji" font-size="28px" fill="#000000" text-anchor="middle" style="white-space: pre;" direction="ltr">hash </text><text x="66.5" y="60" font-family="Virgil, Segoe UI Emoji" font-size="28px" fill="#000000" text-anchor="middle" style="white-space: pre;" direction="ltr">similarity </text><text x="66.5" y="95" font-family="Virgil, Segoe UI Emoji" font-size="28px" fill="#000000" text-anchor="middle" style="white-space: pre;" direction="ltr">search</text></g><g mask="url(#mask-9BEgM38OmmXbKbduQPWE0)" stroke-linecap="round"><g transform="translate(357.50720126570207 459.3781513578931) rotate(0 319.14896985087256 10.838057954086594)"><path d="M-0.03 -0.33 C106.58 3.48, 533.45 19.57, 639.81 23.22 M-1.51 -1.55 C104.99 1.89, 532.18 17.51, 639.17 21.52" stroke="#000000" stroke-width="1" fill="none"></path></g><g transform="translate(357.50720126570207 459.3781513578931) rotate(0 319.14896985087256 10.838057954086594)"><path d="M610.07 31.71 C620.74 26.02, 626.89 24.32, 638.92 20.93 M610.51 31.64 C617.26 29.68, 624.68 26.65, 638.66 21.03" stroke="#000000" stroke-width="1" fill="none"></path></g><g transform="translate(357.50720126570207 459.3781513578931) rotate(0 319.14896985087256 10.838057954086594)"><path d="M610.82 11.21 C621.33 11.84, 627.25 16.49, 638.92 20.93 M611.27 11.13 C617.69 14.14, 624.92 16.1, 638.66 21.03" stroke="#000000" stroke-width="1" fill="none"></path></g></g><mask id="mask-9BEgM38OmmXbKbduQPWE0"><rect x="0" y="0" fill="#fff" width="1096.7276022411825" height="581.8024117470343"></rect><rect x="616.1174017534423" y="453.09028155246347" fill="#000" width="122" height="35" opacity="1"></rect></mask><g transform="translate(616.1174017534424 453.0902815524637) rotate(0 60.5387693631323 17.125927759516003)"><text x="61" y="25" font-family="Virgil, Segoe UI Emoji" font-size="28px" fill="#000000" text-anchor="middle" style="white-space: pre;" direction="ltr">pdq hash</text></g><g stroke-linecap="round" transform="translate(1217.3274033777998 697.872791256541) rotate(0 82.5 40)"><path d="M20.41 0.34 L145.51 0.83 L156.73 1.15 L161.29 6.33 L166.53 14.23 L166.47 59.03 L162.95 70.51 L158.77 75.33 L143.82 79.83 L18.44 78.62 L7.29 78.89 L2.83 70.4 L-0.47 65.9 L-0.39 17.01 L2.35 6.43 L6.09 3.65 L18.92 1.18" stroke="none" stroke-width="0" fill="#ced4da"></path><path d="M20 0 M20 0 C56.25 -0.28, 94.29 1.27, 145 0 M20 0 C68.85 1.48, 119.35 -0.15, 145 0 M145 0 C158.05 1.41, 164.99 7.85, 165 20 M145 0 C156.78 -0.25, 163.61 8.21, 165 20 M165 20 C164.89 32.02, 165.45 45.34, 165 60 M165 20 C165.85 30.91, 164.99 42.11, 165 60 M165 60 C163.65 72.11, 156.85 78.32, 145 80 M165 60 C164.09 74.09, 160.07 79.11, 145 80 M145 80 C98.09 79.42, 53.96 79.21, 20 80 M145 80 C117.13 80.96, 90.26 80.56, 20 80 M20 80 C4.71 80.01, -0.78 74.41, 0 60 M20 80 C6.94 81.52, 1.8 75.07, 0 60 M0 60 C-1.29 46.54, 0.59 31.55, 0 20 M0 60 C0.1 46.84, 1 33.71, 0 20 M0 20 C1.89 4.94, 4.97 1.4, 20 0 M0 20 C0.15 5, 8.42 -0.25, 20 0" stroke="#000000" stroke-width="1" fill="none"></path></g><g transform="translate(1229.8274033777998 720.372791256541) rotate(0 70 17.5)"><text x="70" y="25" font-family="Virgil, Segoe UI Emoji" font-size="28px" fill="#000000" text-anchor="middle" style="white-space: pre;" direction="ltr">SQL query</text></g><g mask="url(#mask-4oHw2lDdAqbHzJoxuvywp)" stroke-linecap="round"><g transform="translate(998.9926581691226 664.590426349594) rotate(0 149.2257643845076 2.0901363652808413)"><path d="M-0.91 -0.11 C48.84 0.61, 249.46 3.38, 299.36 3.99 M0.81 -1.22 C50.32 -0.28, 248.32 4.45, 298.33 5.4" stroke="#000000" stroke-width="1" fill="none"></path></g><g transform="translate(998.9926581691226 664.590426349594) rotate(0 149.2257643845076 2.0901363652808413)"><path d="M269.73 14.78 C280.05 10.05, 289.79 9.58, 296.99 5.51 M269.93 14.66 C278.03 12.89, 285.69 10.99, 299.09 5.77" stroke="#000000" stroke-width="1" fill="none"></path></g><g transform="translate(998.9926581691226 664.590426349594) rotate(0 149.2257643845076 2.0901363652808413)"><path d="M270.18 -5.73 C280.27 -2.89, 289.84 4.23, 296.99 5.51 M270.37 -5.86 C278.29 -2.19, 285.83 1.35, 299.09 5.77" stroke="#000000" stroke-width="1" fill="none"></path></g></g><mask id="mask-4oHw2lDdAqbHzJoxuvywp"><rect x="0" y="0" fill="#fff" width="1398.5141535166213" height="768.8228604952446"></rect><rect x="1092.753405842872" y="631.7066434224193" fill="#000" width="112" height="70" opacity="1"></rect></mask><g transform="translate(1092.7534058428716 631.7066434224193) rotate(0 55.46501671075822 34.97391929245555)"><text x="56" y="25" font-family="Virgil, Segoe UI Emoji" font-size="28px" fill="#000000" text-anchor="middle" style="white-space: pre;" direction="ltr">matched</text><text x="56" y="60" font-family="Virgil, Segoe UI Emoji" font-size="28px" fill="#000000" text-anchor="middle" style="white-space: pre;" direction="ltr">hashes</text></g><g mask="url(#mask-vNrHWz1A3HZurAIyskBws)" stroke-linecap="round"><g transform="translate(1298.1216115524721 802.3534170064481) rotate(0 -151.0463670249756 5.8807011826440885)"><path d="M0.14 -0.73 C-50.23 1.48, -252.06 10.26, -302.23 12.49 M-1.25 1.51 C-51.25 3.4, -250.04 9.05, -300.08 10.56" stroke="#000000" stroke-width="1" fill="none"></path></g><g transform="translate(1298.1216115524721 802.3534170064481) rotate(0 -151.0463670249756 5.8807011826440885)"><path d="M-273.41 -2.31 C-279.86 3.21, -287.8 4.59, -299.9 9.84 M-272.83 -1.15 C-281.87 3.79, -290.78 7.94, -300.29 9.89" stroke="#000000" stroke-width="1" fill="none"></path></g><g transform="translate(1298.1216115524721 802.3534170064481) rotate(0 -151.0463670249756 5.8807011826440885)"><path d="M-272.81 18.2 C-279.31 17.67, -287.43 13.01, -299.9 9.84 M-272.22 19.36 C-281.32 17.17, -290.43 14.17, -300.29 9.89" stroke="#000000" stroke-width="1" fill="none"></path></g></g><mask id="mask-vNrHWz1A3HZurAIyskBws"><rect x="0" y="0" fill="#fff" width="1699.2740968030994" height="914.4646115422611"></rect><rect x="1078.5453689271585" y="755.9090142743544" fill="#000" width="138" height="105" opacity="1"></rect></mask><g transform="translate(1078.5453689271585 755.9090142743544) rotate(0 68.52987560033802 52.32510391473784)"><text x="69" y="25" font-family="Virgil, Segoe UI Emoji" font-size="28px" fill="#000000" text-anchor="middle" style="white-space: pre;" direction="ltr">matched </text><text x="69" y="60" font-family="Virgil, Segoe UI Emoji" font-size="28px" fill="#000000" text-anchor="middle" style="white-space: pre;" direction="ltr">content </text><text x="69" y="95" font-family="Virgil, Segoe UI Emoji" font-size="28px" fill="#000000" text-anchor="middle" style="white-space: pre;" direction="ltr">metadata</text></g><g mask="url(#mask-nXETpi5eBQ3XSf4_GdJNW)" stroke-linecap="round"><g transform="translate(999.3624054179795 841.0832517664176) rotate(0 -319.30160663586554 9.712337399100534)"><path d="M0.23 0.47 C-106.32 3.62, -532.49 15.34, -638.83 18.32 M-1.11 -0.32 C-107.33 3.06, -530.37 16.43, -636.61 19.75" stroke="#000000" stroke-width="1" fill="none"></path></g><g transform="translate(999.3624054179795 841.0832517664176) rotate(0 -319.30160663586554 9.712337399100534)"><path d="M-607.96 7.04 C-618.54 12.52, -627.87 16.68, -638.51 18.47 M-608.51 9.04 C-615.9 11.14, -622.56 14.29, -636.79 19.92" stroke="#000000" stroke-width="1" fill="none"></path></g><g transform="translate(999.3624054179795 841.0832517664176) rotate(0 -319.30160663586554 9.712337399100534)"><path d="M-607.32 27.55 C-618.02 26.12, -627.56 23.37, -638.51 18.47 M-607.87 29.55 C-615.39 26.46, -622.21 24.41, -636.79 19.92" stroke="#000000" stroke-width="1" fill="none"></path></g></g><mask id="mask-nXETpi5eBQ3XSf4_GdJNW"><rect x="0" y="0" fill="#fff" width="1737.2545388299768" height="959.6133667883014"></rect><rect x="522.4163387119808" y="832.8483092773595" fill="#000" width="316" height="35" opacity="1"></rect></mask><g transform="translate(522.4163387119808 832.8483092773595) rotate(0 157.64446007013322 17.94727988815862)"><text x="158" y="25" font-family="Virgil, Segoe UI Emoji" font-size="28px" fill="#000000" text-anchor="middle" style="white-space: pre;" direction="ltr">detailed match results</text></g><g stroke-linecap="round" transform="translate(10 81.56609726116517) rotate(0 48.5 50)"><path d="M5.8 6.37 C5.8 6.37, 5.8 6.37, 5.8 6.37 M5.8 6.37 C5.8 6.37, 5.8 6.37, 5.8 6.37 M0.29 18.8 C5.64 12.37, 8.68 7.91, 14.72 2.2 M0.29 18.8 C3.41 16.28, 7.21 11.09, 14.72 2.2 M0.68 24.44 C6.4 16.79, 14.43 6.5, 20.37 1.8 M0.68 24.44 C8.9 16.53, 16.36 7.37, 20.37 1.8 M0.42 30.84 C7.53 21.29, 18.31 11.34, 26.01 1.41 M0.42 30.84 C10.13 19.88, 19.34 8.88, 26.01 1.41 M0.16 37.24 C10.14 25.4, 17.92 18.49, 31 1.77 M0.16 37.24 C6.75 29.97, 12.74 22.2, 31 1.77 M0.56 42.88 C11.42 29.15, 24.6 14.31, 36.64 1.37 M0.56 42.88 C8.53 33.15, 18.6 21.37, 36.64 1.37 M0.29 49.28 C12.07 35.18, 22.91 23.27, 41.63 1.73 M0.29 49.28 C7.91 40, 16.43 30.61, 41.63 1.73 M0.03 55.68 C15.19 39.61, 30.77 23.02, 47.27 1.34 M0.03 55.68 C14.33 37.18, 29.49 20.84, 47.27 1.34 M0.43 61.32 C13.89 48.62, 22.8 32.31, 52.26 1.7 M0.43 61.32 C19.93 37.73, 41.73 13.9, 52.26 1.7 M0.17 67.72 C21.94 41.91, 44.45 17.59, 57.24 2.06 M0.17 67.72 C21.42 42.83, 41.79 19.19, 57.24 2.06 M-0.1 74.12 C14.8 60.61, 26.01 42.61, 62.89 1.67 M-0.1 74.12 C23.39 47.9, 45.2 21.82, 62.89 1.67 M2.27 77.5 C18.69 58.09, 33.69 37.33, 67.87 2.03 M2.27 77.5 C28.07 48.64, 52.13 21.1, 67.87 2.03 M3.32 82.38 C32 53.71, 57.52 19.22, 73.52 1.63 M3.32 82.38 C20.62 64.43, 35.99 45.27, 73.52 1.63 M4.37 87.27 C27.35 58.85, 53.06 32.68, 79.16 1.24 M4.37 87.27 C23.33 66.93, 41.47 48.13, 79.16 1.24 M5.42 92.16 C33.99 59.46, 61.33 25.98, 83.49 2.35 M5.42 92.16 C27.11 65.94, 50.79 40.49, 83.49 2.35 M8.44 94.79 C26.06 75.16, 46.35 52.97, 87.82 3.47 M8.44 94.79 C22.98 75.76, 39.57 57.95, 87.82 3.47 M10.8 98.16 C27.74 79.02, 43.83 60.74, 90.84 6.09 M10.8 98.16 C40.47 65.28, 70.38 31.03, 90.84 6.09 M15.13 99.28 C34.41 79.78, 50.73 58.22, 93.2 9.47 M15.13 99.28 C37.04 73.45, 58.21 48.8, 93.2 9.47 M19.46 100.39 C34.65 79.58, 52.45 60.88, 96.22 12.09 M19.46 100.39 C39.04 79.14, 57.07 58.28, 96.22 12.09 M24.45 100.75 C44.49 79, 65.94 51.8, 97.27 16.98 M24.45 100.75 C40.76 82.15, 57.71 62.6, 97.27 16.98 M30.09 100.36 C53.87 70.84, 78.07 45.03, 98.32 21.87 M30.09 100.36 C45.79 82.66, 62.18 63.05, 98.32 21.87 M35.08 100.72 C58.28 74.4, 80.34 49.23, 99.37 26.76 M35.08 100.72 C57.14 74.31, 79.15 48.3, 99.37 26.76 M40.72 100.33 C52 83.92, 66.07 69.43, 99.77 32.4 M40.72 100.33 C53.81 82.67, 67.88 66.36, 99.77 32.4 M45.71 100.69 C60.18 84.94, 77.09 64.17, 99.51 38.8 M45.71 100.69 C61.32 83.42, 78.12 64.52, 99.51 38.8 M51.35 100.29 C66.43 84.48, 76.1 69, 99.24 45.2 M51.35 100.29 C65.41 83.91, 79.15 68.16, 99.24 45.2 M56.34 100.65 C72.31 85.5, 88.16 67.05, 99.64 50.84 M56.34 100.65 C68.8 86.68, 80.57 71.74, 99.64 50.84 M61.33 101.01 C69.24 89.41, 76.62 82.67, 99.38 57.24 M61.33 101.01 C74.32 86.42, 88.36 70.02, 99.38 57.24 M66.97 100.62 C77.21 88.77, 87.3 81.33, 99.12 63.64 M66.97 100.62 C75.34 91.41, 83.27 80.71, 99.12 63.64 M72.61 100.22 C80.64 93.37, 87.24 84.68, 99.51 69.28 M72.61 100.22 C82.4 88.97, 91.84 76.74, 99.51 69.28 M79.57 98.32 C84.28 90.85, 88.49 85.34, 99.25 75.68 M79.57 98.32 C85.73 91.39, 93.07 82.8, 99.25 75.68 M85.87 97.17 C90.56 94.69, 92.18 87.64, 98.33 82.83 M85.87 97.17 C87.86 93.2, 91 90.77, 98.33 82.83" stroke="#40c057" stroke-width="0.5" fill="none"></path><path d="M24.25 0 M24.25 0 C41.53 0.93, 56.59 -0.1, 72.75 0 M24.25 0 C42.11 -0.89, 58.17 0.58, 72.75 0 M72.75 0 C88.62 1.84, 98.83 8.92, 97 24.25 M72.75 0 C86.98 0.49, 97.88 8.36, 97 24.25 M97 24.25 C97.68 44.16, 97.29 65.79, 97 75.75 M97 24.25 C96.44 34.17, 97.43 45.43, 97 75.75 M97 75.75 C97.57 93.21, 90.52 99.99, 72.75 100 M97 75.75 C98.1 93.92, 88.8 99.41, 72.75 100 M72.75 100 C59.56 100.79, 48.7 98.15, 24.25 100 M72.75 100 C59.94 99.4, 48.44 100.78, 24.25 100 M24.25 100 C9.09 101.26, -0.82 92.82, 0 75.75 M24.25 100 C8.3 98.26, 1.13 89.93, 0 75.75 M0 75.75 C-0.97 61.06, 0.3 47.53, 0 24.25 M0 75.75 C1.2 60.31, 1.03 42.64, 0 24.25 M0 24.25 C-1.5 9.49, 8.32 -1.97, 24.25 0 M0 24.25 C-0.14 10.31, 8.16 -1.51, 24.25 0" stroke="#000000" stroke-width="1" fill="none"></path></g><g transform="translate(25 96.56609726116517) rotate(0 33.5 35)"><text x="33.5" y="25" font-family="Virgil, Segoe UI Emoji" font-size="28px" fill="#000000" text-anchor="middle" style="white-space: pre;" direction="ltr">site </text><text x="33.5" y="60" font-family="Virgil, Segoe UI Emoji" font-size="28px" fill="#000000" text-anchor="middle" style="white-space: pre;" direction="ltr">user</text></g><g stroke-linecap="round"><g transform="translate(58.92152534355239 184.42694390739143) rotate(0 -0.4295901021410389 197.63278412825605)"><path d="M0.37 0.38 C0.42 66.08, -0.27 328.91, -0.35 394.8 M-0.89 -0.47 C-0.93 65.29, -1.27 329.5, -1.23 395.73" stroke="#000000" stroke-width="1" fill="none"></path></g></g><mask></mask><g stroke-linecap="round" transform="translate(286.03274557729327 92.2338805791369) rotate(0 64 42)"><path d="M4.93 5.61 C4.93 5.61, 4.93 5.61, 4.93 5.61 M4.93 5.61 C4.93 5.61, 4.93 5.61, 4.93 5.61 M0.74 16.54 C2.59 12.78, 7.35 7.72, 13.2 2.2 M0.74 16.54 C2.9 14.03, 6.2 9.91, 13.2 2.2 M0.47 22.94 C4.89 17.11, 10.22 12.4, 18.84 1.81 M0.47 22.94 C6.45 16.8, 12.41 9.73, 18.84 1.81 M0.87 28.58 C6.75 19.56, 11.55 12.99, 23.83 2.17 M0.87 28.58 C9.22 19.25, 17.16 9.96, 23.83 2.17 M0.61 34.98 C10.43 24.13, 20.48 13.3, 28.82 2.53 M0.61 34.98 C9.36 24.46, 19.51 13.19, 28.82 2.53 M1 40.62 C12.93 28.92, 24.38 12.64, 34.46 2.13 M1 40.62 C8.52 33.86, 14 25.08, 34.46 2.13 M0.74 47.02 C11.92 37.48, 18.1 24.87, 39.45 2.49 M0.74 47.02 C15.36 31.31, 28.48 14.56, 39.45 2.49 M0.48 53.42 C14.95 35.84, 28.86 21.38, 45.09 2.1 M0.48 53.42 C14.8 36.83, 29.97 20.65, 45.09 2.1 M0.87 59.06 C14.62 44.58, 26.7 26.55, 50.08 2.46 M0.87 59.06 C17.99 39.63, 34.37 23.04, 50.08 2.46 M0.61 65.46 C16.67 44.66, 35.19 24.79, 55.72 2.06 M0.61 65.46 C15.85 47.85, 32.11 29.42, 55.72 2.06 M2.32 69.59 C24.92 45.99, 46.74 21.02, 60.71 2.42 M2.32 69.59 C15.81 53.49, 30.34 38.33, 60.71 2.42 M4.03 73.73 C27.32 45.49, 52.64 20.26, 66.35 2.03 M4.03 73.73 C23.47 52.25, 41.78 29.71, 66.35 2.03 M5.73 77.86 C28.22 47.68, 54.48 20.71, 71.34 2.39 M5.73 77.86 C29.85 49.86, 53.49 22.98, 71.34 2.39 M8.1 81.24 C32.71 51.63, 57.51 23.98, 76.98 1.99 M8.1 81.24 C28.8 57.25, 48.64 33.13, 76.98 1.99 M12.43 82.35 C32.71 60.52, 51.65 35.22, 81.97 2.35 M12.43 82.35 C39.66 50.71, 66.11 18.82, 81.97 2.35 M16.76 83.47 C33.79 62.39, 54.19 40.38, 87.61 1.96 M16.76 83.47 C42.37 53.64, 69.04 23.48, 87.61 1.96 M21.09 84.58 C40.89 60.13, 59.33 35.96, 92.6 2.32 M21.09 84.58 C42.98 60.34, 64.24 34.47, 92.6 2.32 M26.73 84.19 C51.98 51.99, 80.11 24.03, 97.59 2.68 M26.73 84.19 C48.24 58.79, 70.72 32.66, 97.59 2.68 M31.72 84.55 C51.78 62.76, 69.75 42.89, 103.23 2.28 M31.72 84.55 C53.47 61.61, 74.39 37.75, 103.23 2.28 M37.36 84.15 C53.1 68.39, 68.61 48.76, 108.87 1.89 M37.36 84.15 C61.59 53.38, 88.38 25.22, 108.87 1.89 M42.35 84.51 C59.2 65.76, 80.62 44.82, 113.2 3 M42.35 84.51 C57.74 67.67, 71.81 50.58, 113.2 3 M47.99 84.12 C73.58 52.63, 103.4 21.76, 117.53 4.12 M47.99 84.12 C75.97 53.93, 102.24 22.45, 117.53 4.12 M52.98 84.48 C74.56 63.27, 94.96 40.27, 121.86 5.23 M52.98 84.48 C78.87 55.32, 105.2 24.93, 121.86 5.23 M58.62 84.08 C77.78 61.66, 97.08 42.24, 124.88 7.86 M58.62 84.08 C80.03 57.8, 103.11 34.19, 124.88 7.86 M63.61 84.44 C86.09 62.46, 104.76 37.2, 127.9 10.48 M63.61 84.44 C86.41 59.08, 108.79 33.43, 127.9 10.48 M69.25 84.05 C82.4 70.39, 96.77 55.22, 128.3 16.13 M69.25 84.05 C91.01 57.69, 113.74 31.9, 128.3 16.13 M74.24 84.41 C85.54 67.56, 102.88 51.69, 128.04 22.52 M74.24 84.41 C91.54 64.93, 107.76 43.96, 128.04 22.52 M79.88 84.02 C95.79 68.62, 109.88 50.93, 128.43 28.17 M79.88 84.02 C96.53 64.52, 113.6 46.23, 128.43 28.17 M84.87 84.38 C99.32 68.7, 115.19 52.02, 128.17 34.56 M84.87 84.38 C101.29 66.66, 115.85 48.93, 128.17 34.56 M90.51 83.98 C102.92 69.2, 114.93 54.18, 127.91 40.96 M90.51 83.98 C103.52 70.02, 116.08 55.53, 127.91 40.96 M95.5 84.34 C107.03 68.9, 121.53 54.64, 128.3 46.61 M95.5 84.34 C108.25 70.04, 120.84 55.69, 128.3 46.61 M101.14 83.95 C108.47 72.22, 121.13 64.31, 128.04 53 M101.14 83.95 C107.9 75.65, 115.57 67.04, 128.04 53 M106.13 84.31 C116.08 75.9, 121.09 67.5, 128.43 58.65 M106.13 84.31 C112.19 75.78, 120.67 68.77, 128.43 58.65 M109.8 86.18 C115.71 77.03, 124.06 67.73, 128.83 64.29 M109.8 86.18 C114.94 78.96, 120.94 71.91, 128.83 64.29 M116.1 85.03 C119.07 80.95, 121.84 77.87, 127.26 72.2 M116.1 85.03 C120.12 79.5, 124.97 74.46, 127.26 72.2" stroke="#be4bdb" stroke-width="0.5" fill="none"></path><path d="M21 0 M21 0 C40.98 -0.95, 57.46 2.27, 107 0 M21 0 C48.43 -0.58, 76.52 0.04, 107 0 M107 0 C122.88 -0.27, 129.2 7.7, 128 21 M107 0 C121.68 -1.15, 127.95 5.91, 128 21 M128 21 C127.4 31.33, 127.74 40.75, 128 63 M128 21 C128.18 29.71, 127.38 38.55, 128 63 M128 63 C126.1 78.51, 122.28 84.79, 107 84 M128 63 C130.01 77.35, 121.81 84.15, 107 84 M107 84 C76.17 84.79, 42.87 82.33, 21 84 M107 84 C83.29 85.13, 59.11 84.07, 21 84 M21 84 C6.89 83.91, -1.59 75.06, 0 63 M21 84 C6.86 86.16, 0.91 78.33, 0 63 M0 63 C-1.65 47.34, -0.71 31.86, 0 21 M0 63 C-0.22 46.52, 0.69 31.87, 0 21 M0 21 C-0.35 6.86, 6.83 -0.4, 21 0 M0 21 C-1.12 5.89, 5.93 -0.44, 21 0" stroke="#000000" stroke-width="1" fill="none"></path></g><g transform="translate(299.03274557729327 97.2338805791369) rotate(0 51 35)"><text x="51" y="25" font-family="Virgil, Segoe UI Emoji" font-size="28px" fill="#000000" text-anchor="middle" style="white-space: pre;" direction="ltr">upload </text><text x="51" y="60" font-family="Virgil, Segoe UI Emoji" font-size="28px" fill="#000000" text-anchor="middle" style="white-space: pre;" direction="ltr">handler</text></g><g stroke-linecap="round"><g transform="translate(351.1988032576018 181.22415702146236) rotate(0 1.0514072371869077 421.1125050851059)"><path d="M-0.24 0.06 C0.24 140.51, 3.09 701.23, 3.93 841.67 M-1.82 -0.96 C-1.62 139.79, 1.81 702.88, 2.84 843.18" stroke="#000000" stroke-width="1" fill="none"></path></g></g><mask></mask><g stroke-linecap="round" transform="translate(1737.0403015007892 97.28330205786415) rotate(0 122 42)"><path d="M4.93 5.61 C4.93 5.61, 4.93 5.61, 4.93 5.61 M4.93 5.61 C4.93 5.61, 4.93 5.61, 4.93 5.61 M0.74 16.54 C6.14 10.53, 10.02 5.35, 13.2 2.2 M0.74 16.54 C3.61 13.23, 6.93 9.01, 13.2 2.2 M0.47 22.94 C6.1 18.94, 10.99 13.61, 18.84 1.81 M0.47 22.94 C5.95 15.3, 12.02 8.16, 18.84 1.81 M0.87 28.58 C9.76 19.07, 17.51 11.99, 23.83 2.17 M0.87 28.58 C9.15 18.54, 17.78 8.7, 23.83 2.17 M0.61 34.98 C8.2 27.24, 14.5 18.9, 28.82 2.53 M0.61 34.98 C6.69 27.05, 13.87 19.63, 28.82 2.53 M1 40.62 C10.76 28.18, 18.74 17.92, 34.46 2.13 M1 40.62 C13.11 26.29, 26.09 11.56, 34.46 2.13 M0.74 47.02 C12.67 35, 23.95 22.91, 39.45 2.49 M0.74 47.02 C12.93 30.79, 27.71 17.11, 39.45 2.49 M0.48 53.42 C11.76 44.78, 18.88 31.61, 45.09 2.1 M0.48 53.42 C11.25 43.24, 19.26 31.71, 45.09 2.1 M0.87 59.06 C14.14 45.45, 26.83 32.41, 50.08 2.46 M0.87 59.06 C14.46 45.44, 27.1 29.92, 50.08 2.46 M0.61 65.46 C14.38 51.48, 25.13 37.18, 55.72 2.06 M0.61 65.46 C12.7 51.44, 25.29 36.08, 55.72 2.06 M2.32 69.59 C16.8 50.58, 31.1 34.95, 60.71 2.42 M2.32 69.59 C24.27 42.34, 46.71 17.08, 60.71 2.42 M4.03 73.73 C20.34 58.2, 33.57 38.98, 66.35 2.03 M4.03 73.73 C20.98 55.16, 38.45 35.06, 66.35 2.03 M5.73 77.86 C31 48.06, 55.43 19.21, 71.34 2.39 M5.73 77.86 C29.76 50.19, 54.37 21.58, 71.34 2.39 M8.1 81.24 C27.17 57.28, 47.56 35.15, 76.98 1.99 M8.1 81.24 C23.88 63.36, 39.67 45.52, 76.98 1.99 M11.77 83.11 C27.38 66.07, 43.45 48.31, 81.97 2.35 M11.77 83.11 C33.76 56.14, 55.61 31.16, 81.97 2.35 M16.76 83.47 C36.08 58.12, 57.38 34.39, 87.61 1.96 M16.76 83.47 C32.46 64.47, 47.6 47.21, 87.61 1.96 M21.09 84.58 C46.8 59.95, 68.76 31.26, 92.6 2.32 M21.09 84.58 C36.63 68.7, 49.74 51.91, 92.6 2.32 M26.73 84.19 C45.08 64.28, 64.12 41.86, 97.59 2.68 M26.73 84.19 C43.51 65.67, 58.97 47.41, 97.59 2.68 M31.72 84.55 C60.86 51.37, 86.82 16.86, 103.23 2.28 M31.72 84.55 C45.52 67.75, 61.87 49.37, 103.23 2.28 M37.36 84.15 C53.27 67.16, 68.6 46.28, 108.22 2.64 M37.36 84.15 C58.94 59.56, 80.67 35.33, 108.22 2.64 M42.35 84.51 C65.85 60.33, 87.34 33.16, 113.86 2.25 M42.35 84.51 C58.4 66.49, 72.43 47.75, 113.86 2.25 M47.99 84.12 C62.02 63.67, 77.86 46.57, 118.85 2.61 M47.99 84.12 C70.58 57.84, 92.41 32.03, 118.85 2.61 M52.98 84.48 C70.8 64.27, 89.57 45.2, 124.49 2.22 M52.98 84.48 C76.08 60.39, 98.14 33.47, 124.49 2.22 M58.62 84.08 C74.28 63.97, 92.96 43, 129.48 2.58 M58.62 84.08 C85.82 52.63, 113.19 22.65, 129.48 2.58 M63.61 84.44 C92.35 51.77, 116.76 21.27, 135.12 2.18 M63.61 84.44 C81.17 62.7, 100.48 41.52, 135.12 2.18 M69.25 84.05 C82.92 68.23, 101.36 49.89, 140.11 2.54 M69.25 84.05 C91.53 59.08, 112.68 31.83, 140.11 2.54 M74.24 84.41 C89.26 66, 103.8 49.72, 145.75 2.15 M74.24 84.41 C94.4 61.51, 113.21 38.71, 145.75 2.15 M79.88 84.02 C94.42 65.18, 110.71 49.92, 150.74 2.51 M79.88 84.02 C101.99 56.88, 125.86 30.1, 150.74 2.51 M84.87 84.38 C113.45 51.71, 140.99 21.86, 156.38 2.11 M84.87 84.38 C100.05 67.87, 114.68 51.6, 156.38 2.11 M90.51 83.98 C111.55 61.54, 129.47 39.84, 161.37 2.47 M90.51 83.98 C111.69 59.56, 133.11 34.37, 161.37 2.47 M95.5 84.34 C119.33 57.54, 139.73 31.78, 167.01 2.08 M95.5 84.34 C120.52 55.06, 147.47 25.97, 167.01 2.08 M101.14 83.95 C126.88 52.91, 152.31 25.3, 172 2.44 M101.14 83.95 C127.66 53.84, 153.06 24.34, 172 2.44 M106.13 84.31 C134.57 53.08, 160.6 24.31, 177.64 2.04 M106.13 84.31 C128.13 61.09, 148.47 38, 177.64 2.04 M111.12 84.67 C129 62.9, 144.38 44.24, 182.63 2.4 M111.12 84.67 C134.69 58.79, 157.51 32.35, 182.63 2.4 M116.76 84.27 C134.56 66.17, 149.42 44, 188.27 2.01 M116.76 84.27 C131.94 66.61, 147.81 49.09, 188.27 2.01 M121.75 84.63 C149.06 51.81, 174.14 22.55, 193.26 2.37 M121.75 84.63 C148.34 53.03, 176.34 22.3, 193.26 2.37 M127.39 84.24 C152.22 52.88, 179.2 21.96, 198.9 1.97 M127.39 84.24 C154.86 53.76, 181.02 21.96, 198.9 1.97 M132.38 84.6 C159.92 53.18, 187.79 24.39, 203.89 2.33 M132.38 84.6 C149.61 65.69, 166.3 46.94, 203.89 2.33 M138.02 84.2 C166.36 52.26, 195.77 22.51, 208.87 2.69 M138.02 84.2 C159.17 59.88, 181.18 34.48, 208.87 2.69 M143.01 84.56 C161.44 66.31, 179.25 43.17, 214.52 2.3 M143.01 84.56 C158.26 66.94, 175.16 48.88, 214.52 2.3 M148.65 84.17 C167.03 66.1, 182.1 42.89, 219.5 2.66 M148.65 84.17 C173.47 58.14, 197.05 29.78, 219.5 2.66 M153.64 84.53 C175.04 59.95, 197.1 32.95, 225.15 2.27 M153.64 84.53 C175.68 59.88, 197.25 34.45, 225.15 2.27 M159.28 84.13 C176.97 65.4, 193.85 45.97, 230.13 2.63 M159.28 84.13 C178.12 59.41, 199.31 36.5, 230.13 2.63 M164.27 84.49 C180.67 65.47, 197.62 44.26, 234.46 3.74 M164.27 84.49 C187.64 58.58, 210.16 31.79, 234.46 3.74 M169.91 84.1 C184.84 68.14, 200.33 50.7, 238.14 5.61 M169.91 84.1 C184.4 67.76, 199.01 52.43, 238.14 5.61 M174.9 84.46 C193.51 61.46, 211.63 41.62, 241.81 7.48 M174.9 84.46 C199.72 56.67, 225.17 28.01, 241.81 7.48 M180.54 84.06 C192 68.04, 206.9 54.73, 243.52 11.61 M180.54 84.06 C194.24 69.69, 207.86 53.11, 243.52 11.61 M185.53 84.43 C195.43 72.74, 209.17 55.97, 244.57 16.5 M185.53 84.43 C208.25 58.83, 229.19 34.04, 244.57 16.5 M191.17 84.03 C210.09 62.88, 228.65 39.2, 244.31 22.9 M191.17 84.03 C204.48 68.81, 218.8 52.72, 244.31 22.9 M196.16 84.39 C214.37 64.51, 229.51 46.2, 244.71 28.54 M196.16 84.39 C211.01 66.92, 225.16 50.48, 244.71 28.54 M201.8 84 C217.98 67.41, 231.4 50.4, 244.44 34.94 M201.8 84 C216.01 67.71, 230.87 51.7, 244.44 34.94 M206.79 84.36 C221.15 68.88, 236.79 49.86, 244.84 40.58 M206.79 84.36 C213.67 74.77, 223.2 66.03, 244.84 40.58 M212.43 83.96 C221.83 72.96, 231.08 64.94, 244.58 46.98 M212.43 83.96 C222.77 71.39, 232.4 59.52, 244.58 46.98 M217.42 84.32 C227.57 74.44, 234.43 63.26, 244.97 52.62 M217.42 84.32 C227.81 73.25, 237.96 61.2, 244.97 52.62 M223.06 83.93 C231.69 76.13, 236.29 67.8, 244.71 59.02 M223.06 83.93 C230.81 75.24, 237.1 67.13, 244.71 59.02 M226.08 86.55 C228.39 81.17, 235.24 75.99, 245.76 63.91 M226.08 86.55 C231.79 80.79, 237.01 73.48, 245.76 63.91" stroke="#fd7e14" stroke-width="0.5" fill="none"></path><path d="M21 0 M21 0 C71.15 0.64, 122.6 1.81, 223 0 M21 0 C79.64 -1.37, 136.91 -1.74, 223 0 M223 0 C237.2 -0.03, 242.7 5.06, 244 21 M223 0 C237.27 -1.58, 241.72 9.02, 244 21 M244 21 C243.54 33.52, 243.56 43.69, 244 63 M244 21 C244.09 36.49, 243.82 49.69, 244 63 M244 63 C242.76 77.97, 236.86 82.67, 223 84 M244 63 C245.89 77.34, 237.72 83.58, 223 84 M223 84 C149.71 86.42, 76.34 84.2, 21 84 M223 84 C174.73 83.05, 126.62 82.31, 21 84 M21 84 C6.05 83.77, 1.04 76.82, 0 63 M21 84 C6.79 86.07, 1.36 76.07, 0 63 M0 63 C1.66 48.56, -1.33 32.72, 0 21 M0 63 C0.32 51.41, -1.16 40.1, 0 21 M0 21 C-1.59 6.37, 7.42 0.68, 21 0 M0 21 C-0.31 7.58, 8.67 2.29, 21 0" stroke="#000000" stroke-width="1" fill="none"></path></g><g transform="translate(1744.0403015007892 102.28330205786415) rotate(0 115 35)"><text x="115" y="25" font-family="Virgil, Segoe UI Emoji" font-size="28px" fill="#000000" text-anchor="middle" style="white-space: pre;" direction="ltr">trust &amp; safety </text><text x="115" y="60" font-family="Virgil, Segoe UI Emoji" font-size="28px" fill="#000000" text-anchor="middle" style="white-space: pre;" direction="ltr">team</text></g><g mask="url(#mask-_EAGuV-IWzl0d4d_fHgPb)" stroke-linecap="round"><g transform="translate(59.17582247707378 226.28519916878668) rotate(0 145.46548629012693 3.38665635782138)"><path d="M0.65 -0.53 C48.69 0.23, 240.97 4.82, 289.04 5.68 M-0.46 1.8 C47.89 3.29, 243.32 6.7, 291.4 7.31" stroke="#000000" stroke-width="1" fill="none"></path></g><g transform="translate(59.17582247707378 226.28519916878668) rotate(0 145.46548629012693 3.38665635782138)"><path d="M262.16 16 C273.69 12.28, 282.36 9.11, 291.3 5.59 M262.75 16.5 C273.73 14.45, 285.74 10.09, 292.17 8.26" stroke="#000000" stroke-width="1" fill="none"></path></g><g transform="translate(59.17582247707378 226.28519916878668) rotate(0 145.46548629012693 3.38665635782138)"><path d="M262.48 -4.52 C274.09 -0.67, 282.63 3.72, 291.3 5.59 M263.07 -4.02 C273.89 1.85, 285.78 5.41, 292.17 8.26" stroke="#000000" stroke-width="1" fill="none"></path></g></g><mask id="mask-_EAGuV-IWzl0d4d_fHgPb"><rect x="0" y="0" fill="#fff" width="448.8872764880482" height="331.7921183279184"></rect><rect x="166.531549482561" y="211.53865874835265" fill="#000" width="75" height="35" opacity="1"></rect></mask><g transform="translate(166.531549482561 211.53865874835265) rotate(0 38.10975928463972 18.13319677825541)"><text x="37.5" y="25" font-family="Virgil, Segoe UI Emoji" font-size="28px" fill="#000000" text-anchor="middle" style="white-space: pre;" direction="ltr">photo</text></g><g stroke-linecap="round" transform="translate(245.2001232512717 385.0099164246308) rotate(0 105 31.5)"><path d="M17.19 0.65 L199.27 1.37 L208.22 7.66 L210.12 10.27 L210.05 52.76 L202.42 59.58 L194.46 63.74 L7.08 60.42 L3.89 58.71 L2.05 51.24 L-0.51 10.16 L3.02 4.9 L4.23 4.08 L15.46 -0.98" stroke="none" stroke-width="0" fill="#ced4da"></path><path d="M15.75 0 M15.75 0 C83.44 -0.72, 147.77 0.16, 194.25 0 M15.75 0 C78.77 0.48, 141.83 -0.54, 194.25 0 M194.25 0 C203.8 0.61, 208.72 5.42, 210 15.75 M194.25 0 C204.44 2.26, 208.2 6.26, 210 15.75 M210 15.75 C209.23 25.57, 210.14 35.49, 210 47.25 M210 15.75 C209.47 26.48, 210.13 38.68, 210 47.25 M210 47.25 C210.4 58.87, 205.72 64.26, 194.25 63 M210 47.25 C208.95 59.88, 205.64 61.94, 194.25 63 M194.25 63 C148.42 64.75, 104.35 64.27, 15.75 63 M194.25 63 C141.3 63.31, 86.03 64.19, 15.75 63 M15.75 63 C6.23 61.1, -0.56 59.06, 0 47.25 M15.75 63 C5.48 62.56, 1.13 58.35, 0 47.25 M0 47.25 C1.91 37.46, 1 28.4, 0 15.75 M0 47.25 C0.09 38.2, -0.79 28.72, 0 15.75 M0 15.75 C0.53 6.22, 3.3 0.54, 15.75 0 M0 15.75 C1.37 5.6, 6.81 1.22, 15.75 0" stroke="#000000" stroke-width="1" fill="none"></path></g><g transform="translate(255.7001232512717 399.0099164246308) rotate(0 94.5 17.5)"><text x="94.5" y="25" font-family="Virgil, Segoe UI Emoji" font-size="28px" fill="#000000" text-anchor="middle" style="white-space: pre;" direction="ltr">check content</text></g><g stroke-linecap="round" transform="translate(283.6955207336521 881.1485581980169) rotate(0 70.5 60.5)"><path d="M31.72 0.31 L116.81 -0.8 L128.31 6.17 L133.55 7.5 L138.23 17.8 L139.45 30.66 L139.96 98.53 L139.59 103.41 L132.48 113.82 L125.66 118.36 L112.69 122.65 L21.68 121.67 L18.13 120.34 L8.07 114.8 L0.42 102.9 L-1.42 97.03 L1.67 24.62 L0.71 17.91 L8.64 6.18 L16.13 1.61 L29.42 -0.82" stroke="none" stroke-width="0" fill="#ced4da"></path><path d="M30.25 0 M30.25 0 C55.28 0.85, 83.36 -1.68, 110.75 0 M30.25 0 C56.27 0.66, 83.22 0.07, 110.75 0 M110.75 0 C131.2 -0.38, 142.43 11.22, 141 30.25 M110.75 0 C129.97 1.85, 142.66 11.63, 141 30.25 M141 30.25 C140.11 46.22, 140.89 60.5, 141 90.75 M141 30.25 C139.99 52.36, 140.2 72.55, 141 90.75 M141 90.75 C142.14 112.64, 131.94 121.65, 110.75 121 M141 90.75 C139.74 109.24, 129.04 119.88, 110.75 121 M110.75 121 C86.31 119.01, 61.3 119.98, 30.25 121 M110.75 121 C89.18 120.44, 68.07 119.92, 30.25 121 M30.25 121 C10.85 119.99, -0.57 110.65, 0 90.75 M30.25 121 C10.13 123.2, -0.14 109.15, 0 90.75 M0 90.75 C-1.98 76.23, 0.68 57.05, 0 30.25 M0 90.75 C0.46 69.93, 0.18 48.11, 0 30.25 M0 30.25 C-1.43 10.23, 8.35 -0.05, 30.25 0 M0 30.25 C0.46 10.19, 12.34 0.92, 30.25 0" stroke="#000000" stroke-width="1" fill="none"></path></g><g transform="translate(295.1955207336521 889.1485581980169) rotate(0 59 52.5)"><text x="59" y="25" font-family="Virgil, Segoe UI Emoji" font-size="28px" fill="#000000" text-anchor="middle" style="white-space: pre;" direction="ltr">apply </text><text x="59" y="60" font-family="Virgil, Segoe UI Emoji" font-size="28px" fill="#000000" text-anchor="middle" style="white-space: pre;" direction="ltr">content </text><text x="59" y="95" font-family="Virgil, Segoe UI Emoji" font-size="28px" fill="#000000" text-anchor="middle" style="white-space: pre;" direction="ltr">policy</text></g><g stroke-linecap="round"><g transform="translate(1861.763510580441 176.51968817281136) rotate(0 -4.327426494594533 445.366023572319)"><path d="M-1.16 -0.66 C-2.69 148.07, -6.86 742.76, -8.26 891.4 M0.43 1.6 C-1.32 150.05, -7.82 741.01, -9.08 889.51" stroke="#000000" stroke-width="1" fill="none"></path></g></g><mask></mask><g stroke-linecap="round" transform="translate(1756.627029029256 215.80542434005292) rotate(0 105 60.5)"><path d="M31.21 1.15 L178.3 1.92 L194.47 0.55 L196.34 3.43 L205.8 13.03 L209.21 21.63 L210.66 89.33 L209.14 98.93 L206.03 108.71 L197.61 116.05 L193.89 118.92 L181.37 121.36 L31.77 119.21 L24.82 119.06 L9.93 117.22 L4.3 108.28 L0.13 97.23 L-1.28 21.46 L2.04 15.72 L6.33 6.98 L15.58 3.09 L31.33 0.72" stroke="none" stroke-width="0" fill="#ced4da"></path><path d="M30.25 0 M30.25 0 C66.27 -3.13, 105.1 -3.23, 179.75 0 M30.25 0 C74.8 0.42, 117.83 -0.67, 179.75 0 M179.75 0 C200.85 -1.98, 211.98 10.1, 210 30.25 M179.75 0 C199.31 -0.91, 208.42 9.63, 210 30.25 M210 30.25 C212.09 51.72, 209.5 76.26, 210 90.75 M210 30.25 C209.26 51.74, 210.31 73.24, 210 90.75 M210 90.75 C210.21 112.88, 200.27 120.02, 179.75 121 M210 90.75 C208.59 110.77, 198.03 123.1, 179.75 121 M179.75 121 C128.8 121.59, 74.39 122.14, 30.25 121 M179.75 121 C129.38 121.61, 77.7 122.23, 30.25 121 M30.25 121 C10.36 119.37, -1.61 112.03, 0 90.75 M30.25 121 C11.41 119.47, -0.97 110.53, 0 90.75 M0 90.75 C-0.04 70.9, 0.41 52.73, 0 30.25 M0 90.75 C-0.53 78.05, 0.73 63.49, 0 30.25 M0 30.25 C1.51 8.12, 10.71 -0.12, 30.25 0 M0 30.25 C1.55 7.79, 10.01 -1.92, 30.25 0" stroke="#000000" stroke-width="1" fill="none"></path></g><g transform="translate(1798.627029029256 220.80542434005292) rotate(0 63 52.5)"><text x="63" y="25" font-family="Virgil, Segoe UI Emoji" font-size="28px" fill="#000000" text-anchor="middle" style="white-space: pre;" direction="ltr">add new </text><text x="63" y="60" font-family="Virgil, Segoe UI Emoji" font-size="28px" fill="#000000" text-anchor="middle" style="white-space: pre;" direction="ltr">violating </text><text x="63" y="95" font-family="Virgil, Segoe UI Emoji" font-size="28px" fill="#000000" text-anchor="middle" style="white-space: pre;" direction="ltr">content</text></g><g mask="url(#mask-YvNH5VJopJCTJWoUcnag8)" stroke-linecap="round"><g transform="translate(748.0617571683468 324.40829224758295) rotate(0 -197.77839913664732 9.049922785641456)"><path d="M0.41 -0.77 C-65.42 1.92, -329.12 14.17, -395.02 17.28 M-0.84 1.44 C-66.82 4.86, -330.15 16.45, -395.96 18.87" stroke="#000000" stroke-width="1" fill="none"></path></g><g transform="translate(748.0617571683468 324.40829224758295) rotate(0 -197.77839913664732 9.049922785641456)"><path d="M-369.5 7.47 C-376.11 11, -383.22 14.47, -395.16 17.57 M-368.47 8.15 C-376.48 11.34, -385.24 13.81, -396.41 19.26" stroke="#000000" stroke-width="1" fill="none"></path></g><g transform="translate(748.0617571683468 324.40829224758295) rotate(0 -197.77839913664732 9.049922785641456)"><path d="M-368.65 27.97 C-375.71 25.48, -383.07 22.92, -395.16 17.57 M-367.63 28.66 C-375.78 25.86, -384.79 22.35, -396.41 19.26" stroke="#000000" stroke-width="1" fill="none"></path></g></g><mask id="mask-YvNH5VJopJCTJWoUcnag8"><rect x="0" y="0" fill="#fff" width="1243.0839166263522" height="441.59839065172014"></rect><rect x="489.5506774393443" y="315.50334144965154" fill="#000" width="122" height="35" opacity="1"></rect></mask><g transform="translate(489.5506774393442 315.50334144965154) rotate(0 60.73268059235531 17.954873583572862)"><text x="61" y="25" font-family="Virgil, Segoe UI Emoji" font-size="28px" fill="#000000" text-anchor="middle" style="white-space: pre;" direction="ltr">pdq hash</text></g><g mask="url(#mask-_HU4TWLbkkXXWJacjoJPe)" stroke-linecap="round"><g transform="translate(748.1167734856134 382.57554404860593) rotate(0 556.3731771925458 13.708356595020291)"><path d="M-1.12 0.56 C184.46 5.07, 928.15 21.77, 1113.87 26.32 M0.49 -0.2 C185.91 4.55, 927.85 23.24, 1113.14 27.61" stroke="#000000" stroke-width="1" fill="none"></path></g><g transform="translate(748.1167734856134 382.57554404860593) rotate(0 556.3731771925458 13.708356595020291)"><path d="M1085.63 37.89 C1093.52 33.76, 1105.55 29.74, 1113.68 29.08 M1085.71 37.29 C1095.25 34.45, 1106.34 30.27, 1113.28 26.94" stroke="#000000" stroke-width="1" fill="none"></path></g><g transform="translate(748.1167734856134 382.57554404860593) rotate(0 556.3731771925458 13.708356595020291)"><path d="M1086.14 17.37 C1093.72 20.1, 1105.59 22.94, 1113.68 29.08 M1086.21 16.78 C1095.57 21.72, 1106.48 25.34, 1113.28 26.94" stroke="#000000" stroke-width="1" fill="none"></path></g></g><mask id="mask-_HU4TWLbkkXXWJacjoJPe"><rect x="0" y="0" fill="#fff" width="1961.557008261826" height="509.3484846239178"></rect><rect x="1243.8368908737198" y="378.46201433626175" fill="#000" width="122" height="35" opacity="1"></rect></mask><g transform="translate(1243.8368908737198 378.46201433626175) rotate(0 60.65305980443952 17.82188630736448)"><text x="61" y="25" font-family="Virgil, Segoe UI Emoji" font-size="28px" fill="#000000" text-anchor="middle" style="white-space: pre;" direction="ltr">pdq hash</text></g><g mask="url(#mask-1pntOc2cglEvW2WSP2p1O)" stroke-linecap="round"><g transform="translate(1857.260734031639 455.4271510764395) rotate(0 -162.26751755885618 8.339762870405934)"><path d="M-0.19 0.33 C-54.16 2.89, -269.21 13.14, -323.11 16.1 M-1.74 -0.55 C-55.98 2.09, -271.1 14.41, -324.35 17.23" stroke="#000000" stroke-width="1" fill="none"></path></g><g transform="translate(1857.260734031639 455.4271510764395) rotate(0 -162.26751755885618 8.339762870405934)"><path d="M-296.22 4.5 C-307.88 7.87, -314.49 11.97, -322.56 16.72 M-295.94 5.61 C-304.92 9.38, -315.89 12.62, -323.91 17.36" stroke="#000000" stroke-width="1" fill="none"></path></g><g transform="translate(1857.260734031639 455.4271510764395) rotate(0 -162.26751755885618 8.339762870405934)"><path d="M-295.09 24.99 C-307.28 21.01, -314.29 17.77, -322.56 16.72 M-294.81 26.1 C-304.27 23.12, -315.62 19.6, -323.91 17.36" stroke="#000000" stroke-width="1" fill="none"></path></g></g><mask id="mask-1pntOc2cglEvW2WSP2p1O"><rect x="0" y="0" fill="#fff" width="2279.8113991992896" height="572.3021560271402"></rect><rect x="1626.9854014478137" y="428.86465355178984" fill="#000" width="138" height="70" opacity="1"></rect></mask><g transform="translate(1626.9854014478137 428.86465355178984) rotate(0 68.00781502496909 34.90226039505558)"><text x="69" y="25" font-family="Virgil, Segoe UI Emoji" font-size="28px" fill="#000000" text-anchor="middle" style="white-space: pre;" direction="ltr">hash &amp;</text><text x="69" y="60" font-family="Virgil, Segoe UI Emoji" font-size="28px" fill="#000000" text-anchor="middle" style="white-space: pre;" direction="ltr">metadata</text></g><g mask="url(#mask-OmYByWzPA0cQiBboFLxVI)" stroke-linecap="round"><g transform="translate(1534.6100391962304 519.9062749129646) rotate(0 -116.41690472383561 3.109634524874764)"><path d="M0.2 0.16 C-38.53 1.46, -193.43 6.18, -232.47 7.03 M-1.15 -0.81 C-39.98 0.26, -194.63 4.34, -233.04 5.52" stroke="#000000" stroke-width="1" fill="none"></path></g><g transform="translate(1534.6100391962304 519.9062749129646) rotate(0 -116.41690472383561 3.109634524874764)"><path d="M-204.88 -4.31 C-211.51 -3.6, -222.71 -0.41, -233.39 4.45 M-204.88 -5.47 C-212.87 -2.19, -219.04 0.81, -233.4 6.16" stroke="#000000" stroke-width="1" fill="none"></path></g><g transform="translate(1534.6100391962304 519.9062749129646) rotate(0 -116.41690472383561 3.109634524874764)"><path d="M-204.31 16.2 C-210.97 10.86, -222.34 7.99, -233.39 4.45 M-204.3 15.04 C-212.41 12.9, -218.73 10.49, -233.4 6.16" stroke="#000000" stroke-width="1" fill="none"></path></g></g><mask id="mask-OmYByWzPA0cQiBboFLxVI"><rect x="0" y="0" fill="#fff" width="1867.8142051228256" height="625.7630119601702"></rect><rect x="1378.5079562329329" y="505.3346434365674" fill="#000" width="79" height="35" opacity="1"></rect></mask><g transform="translate(1378.5079562329329 505.3346434365674) rotate(0 39.68517823946195 17.68126600127198)"><text x="39.5" y="25" font-family="Virgil, Segoe UI Emoji" font-size="28px" fill="#000000" text-anchor="middle" style="white-space: pre;" direction="ltr">insert</text></g><g stroke-linecap="round" transform="translate(678.9162691337352 10) rotate(0 460.5 33)"><path d="M6.13 2.68 C6.13 2.68, 6.13 2.68, 6.13 2.68 M6.13 2.68 C6.13 2.68, 6.13 2.68, 6.13 2.68 M3.9 11.34 C5.76 6.4, 11.41 2.98, 13.09 0.78 M3.9 11.34 C6.19 8.85, 8.14 6.7, 13.09 0.78 M3.64 17.74 C5.29 12.94, 9.96 8.18, 18.07 1.14 M3.64 17.74 C8.71 12.04, 13.07 6.38, 18.07 1.14 M3.38 24.14 C9.3 15.85, 17.5 9.34, 23.06 1.5 M3.38 24.14 C11.93 15.85, 18.79 5.91, 23.06 1.5 M3.12 30.54 C13.92 19.95, 23.39 6.63, 28.7 1.1 M3.12 30.54 C9.09 22.18, 15.9 14.97, 28.7 1.1 M2.86 36.93 C12 27.53, 19.89 18.62, 33.69 1.46 M2.86 36.93 C15.08 23.68, 27.29 9.22, 33.69 1.46 M2.6 43.33 C12.43 30.26, 21.66 21.13, 39.33 1.07 M2.6 43.33 C10.68 33.98, 18.46 24.29, 39.33 1.07 M1.68 50.48 C17.79 31.82, 31.52 16.62, 44.32 1.43 M1.68 50.48 C10.87 39.53, 19.98 27.53, 44.32 1.43 M1.42 56.88 C12.08 44.58, 25.13 30.44, 49.96 1.03 M1.42 56.88 C13.72 43.22, 26.26 28.43, 49.96 1.03 M3.78 60.26 C24.45 36.27, 44.2 13.72, 54.95 1.39 M3.78 60.26 C22.81 37.7, 42.64 16.15, 54.95 1.39 M6.14 63.64 C19.1 46.79, 33.16 33.06, 60.59 1 M6.14 63.64 C20.4 48.67, 33.46 33.11, 60.59 1 M9.82 65.51 C32.44 42.34, 52.7 17.24, 65.58 1.36 M9.82 65.51 C27.73 44.36, 46.7 23.91, 65.58 1.36 M14.8 65.87 C31.5 44.22, 51.75 24.29, 71.22 0.96 M14.8 65.87 C32.57 46.57, 49.4 26, 71.22 0.96 M18.48 67.74 C36.24 47.81, 52.4 28.44, 76.21 1.32 M18.48 67.74 C34.39 51.37, 48.27 34.25, 76.21 1.32 M23.47 68.1 C46.71 43.46, 66.98 18.46, 81.85 0.93 M23.47 68.1 C38.75 51.68, 51.64 34.5, 81.85 0.93 M29.11 67.7 C46.19 47.43, 59.5 31.27, 86.84 1.29 M29.11 67.7 C50.23 44.56, 71.49 20.43, 86.84 1.29 M34.1 68.06 C50.4 49.31, 68.13 25.98, 92.48 0.9 M34.1 68.06 C50.46 49.25, 66.6 29.06, 92.48 0.9 M39.74 67.67 C57.55 46.84, 76.69 27.34, 97.47 1.26 M39.74 67.67 C57.56 48.42, 73.76 28.73, 97.47 1.26 M44.73 68.03 C62.74 47.68, 80.72 25.28, 102.46 1.62 M44.73 68.03 C61.26 47.81, 79.63 27.4, 102.46 1.62 M50.37 67.64 C66.33 51.91, 80.27 35.93, 108.1 1.22 M50.37 67.64 C72.69 43.5, 93.37 19.06, 108.1 1.22 M55.36 68 C68.33 55.01, 80.56 39.48, 113.09 1.58 M55.36 68 C69.47 52.78, 81.78 36.73, 113.09 1.58 M61 67.6 C74.78 50.23, 88.95 34.79, 118.73 1.19 M61 67.6 C81.36 44.55, 102.28 22.05, 118.73 1.19 M65.99 67.96 C82.31 46.59, 101.16 26.66, 123.72 1.55 M65.99 67.96 C80.45 51.85, 94.96 34.64, 123.72 1.55 M71.63 67.57 C92.25 44.6, 113.67 20.24, 129.36 1.15 M71.63 67.57 C84.92 53.64, 98.5 39.05, 129.36 1.15 M76.62 67.93 C92.5 45.66, 111.37 27.77, 134.35 1.51 M76.62 67.93 C100.21 40.69, 123.31 14.4, 134.35 1.51 M82.26 67.53 C98.77 46.4, 118.08 27.03, 139.99 1.12 M82.26 67.53 C98.32 49.56, 112.06 33.55, 139.99 1.12 M87.25 67.89 C109.79 39.34, 130.91 15.15, 144.98 1.48 M87.25 67.89 C107.76 44.39, 129.71 21.98, 144.98 1.48 M92.89 67.5 C109.45 48.08, 124.65 30.46, 150.62 1.08 M92.89 67.5 C114.11 43.75, 136.4 18.89, 150.62 1.08 M97.88 67.86 C122.43 42.81, 142.86 15.01, 155.61 1.44 M97.88 67.86 C113.9 50.39, 126.84 33.81, 155.61 1.44 M103.52 67.46 C127.89 43.52, 149.45 14.59, 161.25 1.05 M103.52 67.46 C122.03 46.65, 139.49 27.41, 161.25 1.05 M108.51 67.82 C122.68 51.38, 134.94 39.82, 166.24 1.41 M108.51 67.82 C123.5 48.17, 140.33 31.01, 166.24 1.41 M114.15 67.43 C134.99 41.49, 159.88 16.26, 171.88 1.01 M114.15 67.43 C129.65 49.34, 145.08 32.19, 171.88 1.01 M119.14 67.79 C137.86 44.3, 157.74 21.42, 176.87 1.37 M119.14 67.79 C133.7 49.82, 147.87 34.58, 176.87 1.37 M124.78 67.39 C143.22 46.27, 159.11 24.55, 182.51 0.98 M124.78 67.39 C143.68 44.77, 161.45 24.13, 182.51 0.98 M129.77 67.75 C140.69 52.69, 154.57 37.23, 187.5 1.34 M129.77 67.75 C145.27 49.89, 159.21 33.38, 187.5 1.34 M135.41 67.36 C158.37 41.14, 180.29 17.59, 193.14 0.94 M135.41 67.36 C156.7 43.51, 178.04 17.74, 193.14 0.94 M140.4 67.72 C151.4 51.86, 167.14 37.8, 198.13 1.3 M140.4 67.72 C155.46 51.08, 167.94 36.37, 198.13 1.3 M145.38 68.08 C163.14 47.07, 183.73 24.87, 203.77 0.91 M145.38 68.08 C168.26 42.88, 190.43 16.65, 203.77 0.91 M151.03 67.68 C166.23 50.28, 179.17 32.73, 208.76 1.27 M151.03 67.68 C173.13 42.88, 193.67 18.7, 208.76 1.27 M156.01 68.05 C174.21 49.48, 187.04 30.02, 213.75 1.63 M156.01 68.05 C176.24 44.91, 196.41 23.04, 213.75 1.63 M161.66 67.65 C172.53 53.9, 186.63 36.4, 219.39 1.24 M161.66 67.65 C177.89 49.51, 195.03 28.78, 219.39 1.24 M166.64 68.01 C180.05 49.82, 198.03 30.58, 224.38 1.6 M166.64 68.01 C185.49 47.28, 205.11 23.68, 224.38 1.6 M172.29 67.62 C190.55 43.02, 214.55 22.3, 230.02 1.2 M172.29 67.62 C187.38 50.22, 204.17 32.89, 230.02 1.2 M177.27 67.98 C194.66 46.59, 214.32 25.43, 235.01 1.56 M177.27 67.98 C189.65 51.71, 204.82 36.5, 235.01 1.56 M182.92 67.58 C195.66 51.76, 209.58 36.91, 240.65 1.17 M182.92 67.58 C196.86 50.89, 210.68 35.15, 240.65 1.17 M187.9 67.94 C208.74 40.14, 231.55 14.37, 245.64 1.53 M187.9 67.94 C202.22 52.06, 214.33 36.7, 245.64 1.53 M193.55 67.55 C214.73 41.91, 236.73 19.31, 251.28 1.13 M193.55 67.55 C217.85 41, 240.85 14.71, 251.28 1.13 M198.53 67.91 C220.1 43.08, 241.54 16.8, 256.27 1.49 M198.53 67.91 C215.87 47.86, 234.99 27.08, 256.27 1.49 M204.18 67.51 C218.71 49.98, 236.46 32.99, 261.91 1.1 M204.18 67.51 C226.62 43.61, 245.96 18.83, 261.91 1.1 M209.16 67.87 C227.87 46.55, 250.13 20.67, 266.9 1.46 M209.16 67.87 C229.12 46.18, 247.31 23.95, 266.9 1.46 M214.81 67.48 C235.38 44.66, 252.88 22.57, 272.54 1.06 M214.81 67.48 C227.95 53.56, 239.76 38.65, 272.54 1.06 M219.79 67.84 C238.28 51.1, 251.38 30.67, 277.53 1.42 M219.79 67.84 C231.87 54.44, 244.07 40.67, 277.53 1.42 M225.44 67.44 C244.98 41.12, 269.07 18.29, 283.17 1.03 M225.44 67.44 C242.83 47.87, 260.67 26.87, 283.17 1.03 M230.42 67.8 C249.58 46.65, 272.01 22.88, 288.16 1.39 M230.42 67.8 C246.5 48.4, 264.51 29.02, 288.16 1.39 M236.07 67.41 C255.77 45, 272.77 26.9, 293.8 0.99 M236.07 67.41 C260.37 40.57, 283.47 13.76, 293.8 0.99 M241.05 67.77 C256.02 51.09, 272.76 31.27, 298.79 1.35 M241.05 67.77 C264.14 40.54, 286.87 14.06, 298.79 1.35 M246.7 67.37 C261.31 52.94, 273.69 40.21, 304.43 0.96 M246.7 67.37 C266.4 44.6, 284.53 23.17, 304.43 0.96 M251.68 67.73 C269.61 50.27, 283.89 33.22, 309.42 1.32 M251.68 67.73 C272.63 42.25, 294.99 18.41, 309.42 1.32 M256.67 68.09 C277.4 46.29, 296.66 24.51, 315.06 0.93 M256.67 68.09 C280.15 44, 301.86 17.86, 315.06 0.93 M262.31 67.7 C284.59 40.75, 307.46 17.42, 320.05 1.29 M262.31 67.7 C280.76 44.51, 300.08 23.71, 320.05 1.29 M267.3 68.06 C278.74 55.03, 290.99 38.9, 325.03 1.65 M267.3 68.06 C283.88 49.79, 299.76 31.27, 325.03 1.65 M272.94 67.67 C293.44 43.01, 313.34 21.09, 330.68 1.25 M272.94 67.67 C285.81 51.65, 299.2 36.88, 330.68 1.25 M277.93 68.03 C292.67 50.78, 303.26 36.78, 335.66 1.61 M277.93 68.03 C291.22 52.52, 303.38 38.74, 335.66 1.61 M283.57 67.63 C298.84 49.53, 313.78 30.22, 341.31 1.22 M283.57 67.63 C298.67 50.73, 315.45 32.99, 341.31 1.22 M288.56 67.99 C300.99 54.04, 315.66 35.35, 346.3 1.58 M288.56 67.99 C302.62 52.13, 315 38.12, 346.3 1.58 M294.2 67.6 C303.93 54.3, 318.63 39.6, 351.94 1.18 M294.2 67.6 C312.53 46.83, 331.99 26.36, 351.94 1.18 M299.19 67.96 C316.39 50.91, 330.13 31.2, 356.93 1.54 M299.19 67.96 C321.51 41.15, 343.03 16.25, 356.93 1.54 M304.83 67.56 C326.48 44.58, 349.03 19.35, 362.57 1.15 M304.83 67.56 C319.28 49.38, 335.61 32.35, 362.57 1.15 M309.82 67.92 C326.67 48.43, 344.84 29.15, 367.56 1.51 M309.82 67.92 C322.72 53.19, 335.55 39.55, 367.56 1.51 M315.47 67.53 C335.43 46.14, 351.76 25.25, 373.2 1.11 M315.47 67.53 C333.08 48.56, 349.79 30.45, 373.2 1.11 M320.45 67.89 C338.73 49.93, 354.19 29.65, 378.19 1.47 M320.45 67.89 C339.52 45.67, 357.68 24.58, 378.19 1.47 M326.1 67.49 C346.35 45.03, 367.5 23.59, 383.83 1.08 M326.1 67.49 C347.96 42.43, 369.2 18.01, 383.83 1.08 M331.08 67.85 C347.51 50.37, 361.24 30.82, 388.82 1.44 M331.08 67.85 C348.21 46.3, 366.73 25.18, 388.82 1.44 M336.73 67.46 C356.14 46.81, 372.33 26.01, 394.46 1.04 M336.73 67.46 C360.41 40.37, 382.35 15.65, 394.46 1.04 M341.71 67.82 C360.33 46.7, 378.59 28.09, 399.45 1.4 M341.71 67.82 C358.19 49.3, 375.07 29.91, 399.45 1.4 M347.36 67.42 C360.39 54.9, 373.65 40.07, 405.09 1.01 M347.36 67.42 C362.35 49.8, 376.02 34.73, 405.09 1.01 M352.34 67.78 C374.33 43.12, 393.75 19.45, 410.08 1.37 M352.34 67.78 C372.94 43.27, 396.07 18.34, 410.08 1.37 M357.99 67.39 C369.33 51.19, 382.16 37.83, 415.72 0.98 M357.99 67.39 C376.15 47.32, 393.45 25.87, 415.72 0.98 M362.97 67.75 C375.55 55.08, 384.69 38.76, 420.71 1.34 M362.97 67.75 C382.91 43.39, 403.83 21.88, 420.71 1.34 M368.62 67.36 C382.1 53.47, 395.04 35.87, 426.35 0.94 M368.62 67.36 C388.94 43.42, 410.88 20.13, 426.35 0.94 M373.6 67.72 C388.66 52.14, 403.32 32.15, 431.34 1.3 M373.6 67.72 C386.78 50.17, 401.14 34.66, 431.34 1.3 M378.59 68.08 C398.71 48.22, 415.23 25.24, 436.98 0.91 M378.59 68.08 C394.76 51.19, 410.52 31.64, 436.98 0.91 M384.23 67.68 C395.24 53.81, 409.4 40.19, 441.97 1.27 M384.23 67.68 C404.86 44.02, 424.84 22.11, 441.97 1.27 M389.22 68.04 C403.88 52.49, 419.07 33.13, 446.95 1.63 M389.22 68.04 C409.38 44.26, 429.59 22.02, 446.95 1.63 M394.86 67.65 C416.85 40.56, 441.95 14.59, 452.6 1.23 M394.86 67.65 C416.19 42.95, 438.75 15.78, 452.6 1.23 M399.85 68.01 C411.81 53.39, 425.88 40.1, 457.58 1.59 M399.85 68.01 C420.42 45.56, 440.46 21.45, 457.58 1.59 M405.49 67.61 C426.65 42.29, 446.51 20.91, 463.23 1.2 M405.49 67.61 C425.43 44.56, 446.74 20.22, 463.23 1.2 M410.48 67.97 C428.99 46.49, 447.51 27.46, 468.21 1.56 M410.48 67.97 C425.04 49.33, 442.77 31.66, 468.21 1.56 M416.12 67.58 C439.1 40.67, 461.24 18.71, 473.86 1.16 M416.12 67.58 C431.27 49.65, 445.6 31.86, 473.86 1.16 M421.11 67.94 C441.64 43.05, 465.37 16.56, 478.84 1.52 M421.11 67.94 C444.18 42.39, 466.55 16.16, 478.84 1.52 M426.75 67.54 C441.99 47.11, 459.65 27.14, 484.49 1.13 M426.75 67.54 C438.48 53.93, 451.08 40.7, 484.49 1.13 M431.74 67.9 C444.49 52.91, 458.42 34.68, 489.47 1.49 M431.74 67.9 C444.64 55.88, 454.4 42.57, 489.47 1.49 M437.38 67.51 C454.67 47.35, 471 28.48, 495.12 1.09 M437.38 67.51 C455.18 45.67, 475.19 25.99, 495.12 1.09 M442.37 67.87 C455.3 49.84, 472.46 36.47, 500.1 1.45 M442.37 67.87 C458.37 51.96, 472.65 33.82, 500.1 1.45 M448.01 67.47 C465.39 47.56, 483.03 30, 505.75 1.06 M448.01 67.47 C470.48 42.07, 492.69 17.17, 505.75 1.06 M453 67.83 C469.21 46.48, 488.68 29.34, 510.73 1.42 M453 67.83 C474.48 43.12, 497.54 18.96, 510.73 1.42 M458.64 67.44 C479.73 43.87, 501.45 18.98, 516.38 1.02 M458.64 67.44 C471.54 52.91, 483.3 38.92, 516.38 1.02 M463.63 67.8 C479.15 50.08, 491.15 34.65, 521.36 1.38 M463.63 67.8 C473.94 53.18, 486.5 40.33, 521.36 1.38 M469.27 67.4 C492.15 42.51, 510.46 21.44, 527.01 0.99 M469.27 67.4 C488.2 45.33, 504.93 26.11, 527.01 0.99 M474.26 67.76 C494.89 45.07, 513.01 23.67, 531.99 1.35 M474.26 67.76 C490.62 50.57, 504.9 32.43, 531.99 1.35 M479.9 67.37 C494.46 51.67, 508.22 35.33, 537.64 0.96 M479.9 67.37 C491.3 53.77, 503.66 40.01, 537.64 0.96 M484.89 67.73 C499.59 51.91, 514.8 33.63, 542.62 1.32 M484.89 67.73 C500.95 48.87, 517.4 28.75, 542.62 1.32 M489.88 68.09 C508.22 44.6, 531.11 20.22, 548.27 0.92 M489.88 68.09 C505.43 48.64, 522.58 31.2, 548.27 0.92 M495.52 67.7 C518.13 43.53, 538.54 17.64, 553.25 1.28 M495.52 67.7 C512.24 47.3, 529.98 27.78, 553.25 1.28 M500.51 68.06 C521.89 43.8, 543.96 21.1, 558.24 1.64 M500.51 68.06 C521.18 44.33, 542.27 21.61, 558.24 1.64 M506.15 67.66 C522.56 46.75, 539.89 29.92, 563.88 1.25 M506.15 67.66 C527.9 42.81, 547.57 20.42, 563.88 1.25 M511.14 68.02 C529.51 48.52, 546.74 26.91, 568.87 1.61 M511.14 68.02 C530.33 47.61, 548.49 24.96, 568.87 1.61 M516.78 67.63 C533.32 48.87, 546.65 32.62, 574.51 1.21 M516.78 67.63 C539.17 42.81, 560.29 18.02, 574.51 1.21 M521.77 67.99 C540.87 44.75, 562.95 16.43, 579.5 1.57 M521.77 67.99 C540.15 47.31, 558.22 27.27, 579.5 1.57 M527.41 67.59 C539.79 51.9, 549.12 39.21, 585.14 1.18 M527.41 67.59 C542.66 47.62, 560.55 29.51, 585.14 1.18 M532.4 67.95 C547.33 50.26, 563.86 29.82, 590.13 1.54 M532.4 67.95 C550.63 48.16, 566.65 28.22, 590.13 1.54 M538.04 67.56 C553.96 49.51, 564.9 36.85, 595.77 1.14 M538.04 67.56 C555.26 45.18, 573.42 24.81, 595.77 1.14 M543.03 67.92 C562.01 48.43, 578.31 24.33, 600.76 1.5 M543.03 67.92 C561.15 45.83, 581.25 25.1, 600.76 1.5 M548.67 67.52 C563.43 51.8, 576.73 37.73, 606.4 1.11 M548.67 67.52 C565.48 46.85, 585.42 24.55, 606.4 1.11 M553.66 67.88 C572.72 46.65, 587.81 27.12, 611.39 1.47 M553.66 67.88 C569.56 48.99, 585.34 30.16, 611.39 1.47 M559.3 67.49 C581.98 43.19, 601.75 17.15, 617.03 1.07 M559.3 67.49 C581.45 42.78, 605.08 15.5, 617.03 1.07 M564.29 67.85 C579.25 50.25, 594.52 37.31, 622.02 1.43 M564.29 67.85 C580.68 50.54, 597.58 31.28, 622.02 1.43 M569.93 67.45 C582.55 53.44, 598.75 34.87, 627.66 1.04 M569.93 67.45 C586.22 48.26, 603.71 26.85, 627.66 1.04 M574.92 67.81 C589.4 50.99, 605.28 34.5, 632.65 1.4 M574.92 67.81 C591.83 48.92, 610.53 27.86, 632.65 1.4 M580.56 67.42 C598.91 47.33, 614.16 26.62, 638.29 1.01 M580.56 67.42 C595.37 50.38, 609.06 33.67, 638.29 1.01 M585.55 67.78 C607.42 39.82, 632.48 16.78, 643.28 1.37 M585.55 67.78 C609.03 41.8, 632.29 15.17, 643.28 1.37 M591.19 67.39 C605.76 50.55, 618.32 37.44, 648.92 0.97 M591.19 67.39 C608.27 47.22, 626.08 26.03, 648.92 0.97 M596.18 67.75 C613.55 45.41, 634.54 25.89, 653.91 1.33 M596.18 67.75 C609.29 51.43, 623.76 36.34, 653.91 1.33 M601.82 67.35 C615.56 50.37, 631.03 33.49, 659.55 0.94 M601.82 67.35 C622.18 42.22, 644.86 19.27, 659.55 0.94 M606.81 67.71 C620.48 54.68, 630.04 41.24, 664.54 1.3 M606.81 67.71 C627.16 44.68, 648.47 20.65, 664.54 1.3 M611.8 68.07 C630.54 49.36, 647.64 28.55, 670.18 0.9 M611.8 68.07 C634.62 42.99, 657 15.34, 670.18 0.9 M617.44 67.68 C640.88 43.23, 662.26 16.99, 675.17 1.26 M617.44 67.68 C636.88 44.88, 656.77 22.95, 675.17 1.26 M622.43 68.04 C638.56 49.63, 653.48 32.18, 680.16 1.62 M622.43 68.04 C644.18 42.96, 666.95 15.8, 680.16 1.62 M628.07 67.64 C648.35 45.87, 666.29 22.96, 685.8 1.23 M628.07 67.64 C639.14 54.83, 651.46 41.66, 685.8 1.23 M633.06 68 C646.68 49.21, 662.9 34.57, 690.79 1.59 M633.06 68 C645.46 54.85, 656.07 41.76, 690.79 1.59 M638.7 67.61 C657.79 47.43, 673.83 29.16, 696.43 1.19 M638.7 67.61 C651.57 52.65, 666.7 35.9, 696.43 1.19 M643.69 67.97 C656.95 52.9, 669.56 36.88, 701.42 1.55 M643.69 67.97 C663.42 43.92, 684.6 20.82, 701.42 1.55 M649.33 67.57 C661 53.79, 675.07 39.29, 707.06 1.16 M649.33 67.57 C672.1 41.05, 694.73 14.67, 707.06 1.16 M654.32 67.93 C674.26 46.6, 694.84 23.16, 712.05 1.52 M654.32 67.93 C676.92 41.34, 700.07 15.36, 712.05 1.52 M659.96 67.54 C675.11 49.3, 690.15 33.51, 717.69 1.12 M659.96 67.54 C674.3 51.66, 687.25 37.09, 717.69 1.12 M664.95 67.9 C683.55 44.22, 702.16 23.41, 722.68 1.48 M664.95 67.9 C683.31 45.18, 704.48 22.7, 722.68 1.48 M670.59 67.5 C686.14 46.75, 705.71 29.06, 728.32 1.09 M670.59 67.5 C694.16 41.98, 716.99 16.45, 728.32 1.09 M675.58 67.86 C687.94 54.04, 701.35 38.71, 733.31 1.45 M675.58 67.86 C688.63 51.54, 703.42 36.91, 733.31 1.45 M681.22 67.47 C700.11 43.71, 721.02 21.99, 738.95 1.06 M681.22 67.47 C701.79 43.55, 722.41 20.44, 738.95 1.06 M686.21 67.83 C701.23 53.03, 713.56 36.89, 743.94 1.42 M686.21 67.83 C709.88 42.42, 731.87 15.36, 743.94 1.42 M691.85 67.44 C703.93 54.18, 717.82 37.38, 749.58 1.02 M691.85 67.44 C706.02 49.82, 720.21 33.46, 749.58 1.02 M696.84 67.8 C716.76 46.68, 733.08 22.9, 754.57 1.38 M696.84 67.8 C719.27 43.25, 740.71 18.63, 754.57 1.38 M702.48 67.4 C715.63 54.94, 724.71 38.55, 760.21 0.99 M702.48 67.4 C716.36 49.41, 732.65 31.83, 760.21 0.99 M707.47 67.76 C732.34 42.48, 751.75 14.99, 765.2 1.35 M707.47 67.76 C729.68 42.25, 751.02 18.97, 765.2 1.35 M713.11 67.37 C727.89 54.22, 738.97 38.18, 770.84 0.95 M713.11 67.37 C725.96 53.25, 737.45 39.37, 770.84 0.95 M718.1 67.73 C735.56 49.96, 752.32 28.82, 775.83 1.31 M718.1 67.73 C732.95 49.67, 748.64 31.84, 775.83 1.31 M723.08 68.09 C738.24 51.85, 755.59 30.37, 781.47 0.92 M723.08 68.09 C735.07 55.35, 747.97 40.23, 781.47 0.92 M728.73 67.69 C742.86 50.12, 758.59 32.22, 786.46 1.28 M728.73 67.69 C748.08 45.5, 768.55 22.62, 786.46 1.28 M733.71 68.05 C752.61 43.64, 774.31 21.34, 791.45 1.64 M733.71 68.05 C754.72 43.23, 776.7 19.39, 791.45 1.64 M739.36 67.66 C761.82 43.16, 786.62 15.56, 797.09 1.24 M739.36 67.66 C760.15 43.88, 782.03 19.32, 797.09 1.24 M744.34 68.02 C765.78 43.39, 789.94 17.38, 802.08 1.6 M744.34 68.02 C758.89 50.52, 774.16 33.52, 802.08 1.6 M749.99 67.62 C761.83 51.13, 776.74 34.25, 807.72 1.21 M749.99 67.62 C769.82 45.5, 788.43 21.91, 807.72 1.21 M754.97 67.98 C768.94 49.22, 786.08 33.29, 812.71 1.57 M754.97 67.98 C774.58 46.46, 792.4 23.06, 812.71 1.57 M760.62 67.59 C775.75 51.72, 787.62 36.23, 818.35 1.17 M760.62 67.59 C778.49 44.97, 798.67 22.97, 818.35 1.17 M765.6 67.95 C788.53 41.85, 809.54 13.66, 823.34 1.53 M765.6 67.95 C780.76 50.16, 798.28 31.99, 823.34 1.53 M771.25 67.55 C783.63 53.64, 795.56 39.62, 828.98 1.14 M771.25 67.55 C784.73 52.04, 798.22 34.17, 828.98 1.14 M776.23 67.91 C797.25 42.86, 820.3 16.46, 833.97 1.5 M776.23 67.91 C798.48 42.07, 822.28 16.48, 833.97 1.5 M781.88 67.52 C798.36 47.93, 817.94 29.66, 839.61 1.1 M781.88 67.52 C796.04 52.58, 807.87 36.71, 839.61 1.1 M786.86 67.88 C806.9 46.31, 825.18 23.56, 844.6 1.46 M786.86 67.88 C804.61 48.07, 821.37 27.9, 844.6 1.46 M792.51 67.48 C803.54 55.37, 816.86 39.15, 850.24 1.07 M792.51 67.48 C809.77 48.65, 825.64 27.93, 850.24 1.07 M797.49 67.84 C816.39 44.84, 839.24 18.79, 855.23 1.43 M797.49 67.84 C820.95 42.7, 842.56 15.85, 855.23 1.43 M803.14 67.45 C828.06 40.5, 850.98 14.91, 860.87 1.04 M803.14 67.45 C819.08 46.78, 836.7 27.59, 860.87 1.04 M808.12 67.81 C825.52 48.17, 839.99 31.6, 865.86 1.4 M808.12 67.81 C829.16 42.76, 851.4 18, 865.86 1.4 M813.77 67.42 C827.52 48.89, 845.1 30.48, 871.5 1 M813.77 67.42 C834.1 43.96, 853.59 21.34, 871.5 1 M818.75 67.78 C833.63 50.04, 848.7 36.26, 876.49 1.36 M818.75 67.78 C840.7 41.99, 863.22 17.07, 876.49 1.36 M824.4 67.38 C848.57 43.88, 869.44 16.82, 882.13 0.97 M824.4 67.38 C835.9 53.79, 849.6 40.66, 882.13 0.97 M829.38 67.74 C843.65 51.47, 855.77 38.9, 887.12 1.33 M829.38 67.74 C852.25 42.01, 873.91 15.62, 887.12 1.33 M834.37 68.1 C849.45 52.09, 861.33 37.7, 892.76 0.93 M834.37 68.1 C849.78 49.47, 865.97 31.25, 892.76 0.93 M840.01 67.71 C858.47 49.73, 872.25 31.95, 897.75 1.29 M840.01 67.71 C854.26 52.89, 866.48 36.63, 897.75 1.29 M845 68.07 C862.72 50.02, 878.87 28.21, 903.39 0.9 M845 68.07 C858.27 53.43, 869.28 40.55, 903.39 0.9 M850.64 67.67 C862.91 50.3, 880.34 37.01, 907.07 2.77 M850.64 67.67 C872.11 42.06, 893.86 17.85, 907.07 2.77 M855.63 68.03 C877.85 43.82, 895.18 20.59, 912.05 3.13 M855.63 68.03 C873.41 46.8, 891.26 27.37, 912.05 3.13 M861.27 67.64 C879.17 48.97, 896.33 30.21, 916.38 4.24 M861.27 67.64 C882.43 43.36, 904.44 17.38, 916.38 4.24 M866.26 68 C886.66 42.06, 906.8 19.12, 918.75 7.62 M866.26 68 C884.62 46.45, 903.13 24.92, 918.75 7.62 M871.9 67.6 C889.96 44.72, 908.82 21.47, 921.77 10.25 M871.9 67.6 C884.28 55.79, 894.29 41.37, 921.77 10.25 M876.89 67.96 C890.2 52.51, 901.58 37.49, 921.5 16.64 M876.89 67.96 C891.53 51.72, 907.04 34.03, 921.5 16.64 M882.53 67.57 C895.88 50.31, 911.3 35.65, 921.9 22.29 M882.53 67.57 C894.42 53.96, 908.28 39.04, 921.9 22.29 M887.52 67.93 C898.08 53.95, 909.73 43.89, 921.64 28.68 M887.52 67.93 C897.96 55.22, 909.01 42.47, 921.64 28.68 M893.16 67.53 C902.44 58.95, 910.37 48.05, 922.03 34.33 M893.16 67.53 C903.67 55.63, 914.12 43.58, 922.03 34.33 M898.15 67.89 C904.13 60.57, 909.35 53.34, 922.43 39.97 M898.15 67.89 C908.49 56.48, 917.73 45.11, 922.43 39.97 M905.11 65.99 C910.05 61.35, 914.97 56.08, 922.16 46.37 M905.11 65.99 C908.94 60.19, 913.19 55.86, 922.16 46.37 M910.75 65.6 C913.1 61.92, 920.06 55.9, 923.22 51.26 M910.75 65.6 C915.61 60.62, 918.6 57.25, 923.22 51.26" stroke="#15aabf" stroke-width="0.5" fill="none"></path><path d="M16.5 0 M16.5 0 C348.25 -2.64, 679.3 -2.08, 904.5 0 M16.5 0 C215.29 -2.95, 413.89 -3.47, 904.5 0 M904.5 0 C916.01 -0.71, 921.41 3.65, 921 16.5 M904.5 0 C914.23 0.47, 920.68 6.19, 921 16.5 M921 16.5 C919.26 24.9, 921.05 32.92, 921 49.5 M921 16.5 C921.37 28.05, 921.88 37.58, 921 49.5 M921 49.5 C921.26 62.28, 916.19 64.48, 904.5 66 M921 49.5 C920.48 61.47, 917.67 64.94, 904.5 66 M904.5 66 C694.79 68.36, 485.25 68.23, 16.5 66 M904.5 66 C712.32 66.7, 519.82 66.84, 16.5 66 M16.5 66 C6.8 67.23, -1.37 61.94, 0 49.5 M16.5 66 C3.94 66.15, 2 61.89, 0 49.5 M0 49.5 C-0.48 39.52, -0.19 29.17, 0 16.5 M0 49.5 C-1 37.66, -0.05 26.82, 0 16.5 M0 16.5 C1.67 4.44, 4.56 -1.48, 16.5 0 M0 16.5 C2.14 7.76, 5.21 0.99, 16.5 0" stroke="#000000" stroke-width="1" fill="none"></path></g><g transform="translate(984.9162691337352 20.5) rotate(0 154.5 22.5)"><text x="154.5" y="32" font-family="Virgil, Segoe UI Emoji" font-size="36px" fill="#000000" text-anchor="middle" style="white-space: pre;" direction="ltr">open media match</text></g></svg>