<svg version="1.1" xmlns="http://www.w3.org/2000/svg" viewBox="0 0 1007.3608289006572 554.7239567861477" width="1007.3608289006572" height="554.7239567861477">
  <!-- svg-source:excalidraw -->
  
  <defs>
    <style class="style-fonts">
      @font-face {
        font-family: "Virgil";
        src: url("https://unpkg.com/@excalidraw/excalidraw@0.14.0/dist/excalidraw-assets/Virgil.woff2");
      }
      @font-face {
        font-family: "Cascadia";
        src: url("https://unpkg.com/@excalidraw/excalidraw@0.14.0/dist/excalidraw-assets/Cascadia.woff2");
      }
    </style>
  </defs>
  <rect x="0" y="0" width="1007.3608289006572" height="554.7239567861477" fill="#ffffff"></rect><g stroke-linecap="round" transform="translate(212.80614140065717 107.60676928614765) rotate(0 388.5 38)"><path d="M18.11 -0.35 L764.14 0.33 L770.9 1.08 L776.84 8.97 L777.16 19.3 L775.7 60.08 L773.55 70.67 L765.17 76.08 L756.11 77.63 L15.16 76.95 L9.13 71.92 L0.17 63.65 L-1.09 20.74 L2.57 9.8 L3.02 5.03 L12.67 0.13 L19.05 -0.79" stroke="none" stroke-width="0" fill="#f48fb1"></path><path d="M19 0 M19 0 C228.4 2.62, 437.18 2.02, 758 0 M19 0 C282.33 -0.14, 545.65 -0.12, 758 0 M758 0 C769.38 -0.91, 776.57 6.2, 777 19 M758 0 C769.12 -0.87, 775.62 6.53, 777 19 M777 19 C778.1 30.78, 777.57 45.72, 777 57 M777 19 C777.55 29.99, 776.37 40.84, 777 57 M777 57 C775.23 71.05, 769.93 76.62, 758 76 M777 57 C777.71 71.48, 768.92 77.14, 758 76 M758 76 C569.69 78.43, 380.14 77.32, 19 76 M758 76 C546.49 73.32, 335.29 74.05, 19 76 M19 76 C4.59 77.68, 0.66 69.79, 0 57 M19 76 C7.3 75.73, 0.49 69.73, 0 57 M0 57 C1.09 43.93, 0.59 28.69, 0 19 M0 57 C0.74 43.09, 0.45 29.58, 0 19 M0 19 C-0.32 4.34, 5.52 1.78, 19 0 M0 19 C-0.02 5.05, 5.41 -1.79, 19 0" stroke="#000000" stroke-width="1" fill="none"></path></g><g transform="translate(477.80614140065717 121.60676928614765) rotate(0 123.5 24)"><text x="123.5" y="19" font-family="Cascadia, Segoe UI Emoji" font-size="20px" fill="#000000" text-anchor="middle" style="white-space: pre;" direction="ltr">python-threatexchange</text><text x="123.5" y="43" font-family="Cascadia, Segoe UI Emoji" font-size="20px" fill="#000000" text-anchor="middle" style="white-space: pre;" direction="ltr">(library)</text></g><g stroke-linecap="round" transform="translate(210.30614140065717 10.452971635490542) rotate(0 192.5 40)"><path d="M18.94 -0.53 L370.32 -0.81 L379.23 5.64 L381.94 12.68 L384.6 21.33 L385.28 63.06 L379.77 76.18 L375.43 78.21 L364.23 80.58 L13.42 79.85 L7.06 75.8 L0.52 68.44 L0.9 59.09 L1.39 18.97 L0.26 11.78 L6.43 3.61 L11.45 -0.55 L19.16 1" stroke="none" stroke-width="0" fill="#e1bee7"></path><path d="M20 0 M20 0 C138.81 1.81, 256.55 1.42, 365 0 M20 0 C123.23 -2, 226.77 -1.6, 365 0 M365 0 C377.85 1.16, 385.84 8.36, 385 20 M365 0 C377.69 0.81, 384.22 7.92, 385 20 M385 20 C384.79 26.58, 386.34 35.2, 385 60 M385 20 C384.71 28.32, 385.77 35.79, 385 60 M385 60 C386.9 72.22, 379.65 78.46, 365 80 M385 60 C386.63 74.22, 377.52 79.97, 365 80 M365 80 C288.11 80.26, 213.66 81.44, 20 80 M365 80 C245.04 80.88, 126.54 81.11, 20 80 M20 80 C6.51 78.33, 1.29 74.68, 0 60 M20 80 C8.51 79.28, 2.19 75.5, 0 60 M0 60 C-0.05 47.38, -0.01 34.07, 0 20 M0 60 C-1.15 47.49, -0.2 33.1, 0 20 M0 20 C-1.62 4.96, 6.63 -1.42, 20 0 M0 20 C-0.36 7.65, 6.27 -0.08, 20 0" stroke="#000000" stroke-width="1" fill="none"></path></g><g transform="translate(331.80614140065717 38.45297163549054) rotate(0 71 12)"><text x="71" y="19" font-family="Cascadia, Segoe UI Emoji" font-size="20px" fill="#000000" text-anchor="middle" style="white-space: pre;" direction="ltr">Command Line</text></g><g stroke-linecap="round" transform="translate(607.8920789006572 10) rotate(0 190 41)"><path d="M21.62 -0.97 L365.22 -0.51 L375.81 3.81 L377.41 10.64 L379.51 19.14 L378.74 64.9 L374.8 76.71 L366.65 81.94 L359.44 82.02 L15.63 80.04 L6.07 78.8 L3.22 69.62 L-0.5 61.63 L1.52 21.05 L-0.52 12.96 L6.84 6.37 L10.33 1.72 L21.78 -0.24" stroke="none" stroke-width="0" fill="#e1bee7"></path><path d="M20.5 0 M20.5 0 C99.9 0.48, 178.11 -0.67, 359.5 0 M20.5 0 C107.03 -1.66, 192.62 -2.92, 359.5 0 M359.5 0 C371.88 -1.91, 379.54 8.57, 380 20.5 M359.5 0 C371.74 -0.69, 381.76 7.64, 380 20.5 M380 20.5 C381.43 36.29, 379.72 48.27, 380 61.5 M380 20.5 C380.32 28.75, 379.54 39.29, 380 61.5 M380 61.5 C381.12 74.4, 374.43 82.72, 359.5 82 M380 61.5 C381.54 73.92, 375.29 81.11, 359.5 82 M359.5 82 C269.12 83.92, 176.85 83.05, 20.5 82 M359.5 82 C224.28 82.67, 89.5 81.81, 20.5 82 M20.5 82 C8.5 83.58, -1.86 74.02, 0 61.5 M20.5 82 C8.47 84.15, -0.59 76.04, 0 61.5 M0 61.5 C1.59 52.85, 1.5 41.3, 0 20.5 M0 61.5 C-0.78 47.57, 0.32 34.96, 0 20.5 M0 20.5 C1.19 5.07, 6.35 0.6, 20.5 0 M0 20.5 C-0.43 7.31, 5.64 -0.63, 20.5 0" stroke="#000000" stroke-width="1" fill="none"></path></g><g transform="translate(715.3920789006572 39) rotate(0 82.5 12)"><text x="82.5" y="19" font-family="Cascadia, Segoe UI Emoji" font-size="20px" fill="#000000" text-anchor="middle" style="white-space: pre;" direction="ltr">Flask REST API</text></g><g stroke-linecap="round" transform="translate(215.37254765065717 206.17708178614765) rotate(0 67 40)"><path d="M21.56 -1.26 L113.92 -1.39 L127.38 2.03 L131.29 7.96 L134.78 13.67 L134.69 60.73 L131.16 70.79 L125.19 77.57 L115.29 78.07 L20.18 79.85 L7.14 77.82 L1.93 70.79 L1.43 66.53 L-1.19 16.14 L3.29 6.83 L6.59 4.23 L20.03 1.15" stroke="none" stroke-width="0" fill="#bbdefb"></path><path d="M20 0 M20 0 C48.22 0.3, 77.39 1.46, 114 0 M20 0 C43.13 0.06, 67.04 -0.22, 114 0 M114 0 C126.82 1.77, 132.75 6.52, 134 20 M114 0 C125.45 -2.21, 136.28 6.52, 134 20 M134 20 C132.62 35.75, 135.05 51.07, 134 60 M134 20 C133.52 34.14, 133.62 48.94, 134 60 M134 60 C133.27 73.59, 128.54 81.28, 114 80 M134 60 C133.56 71.11, 127.48 78.18, 114 80 M114 80 C78.06 77.91, 46.41 81.59, 20 80 M114 80 C77.89 78.46, 41.94 79.49, 20 80 M20 80 C7.77 80.87, 1.73 73.21, 0 60 M20 80 C5.91 78.43, 0.58 74.91, 0 60 M0 60 C-1.91 49.32, -0.77 39.64, 0 20 M0 60 C-0.39 44.98, -0.47 29.59, 0 20 M0 20 C0.21 6.48, 6.24 1.36, 20 0 M0 20 C-0.95 8.64, 6.02 -0.46, 20 0" stroke="#000000" stroke-width="1" fill="none"></path></g><g transform="translate(240.87254765065717 234.17708178614765) rotate(0 41.5 12)"><text x="41.5" y="19" font-family="Cascadia, Segoe UI Emoji" font-size="20px" fill="#000000" text-anchor="middle" style="white-space: pre;" direction="ltr">hashing</text></g><g stroke-linecap="round" transform="translate(364.85692265065717 205.59895678614765) rotate(0 67 40.5)"><path d="M21.57 -1.63 L113.98 0.56 L125.73 4.64 L130.75 6.67 L133.24 14.73 L134.94 61.17 L130.87 74.61 L123.6 77.78 L113.25 79.32 L18.5 82.9 L8.91 78.18 L1.75 71.15 L-0.67 65.36 L-0.8 13.85 L4.14 4.86 L13.2 -0.34 L19.69 0.59" stroke="none" stroke-width="0" fill="#bbdefb"></path><path d="M20.25 0 M20.25 0 C53.04 1.2, 85.41 1.13, 113.75 0 M20.25 0 C57.05 -0.27, 91.32 0.45, 113.75 0 M113.75 0 C129.17 0.92, 134.45 5.13, 134 20.25 M113.75 0 C125.65 -1.41, 136.01 7.61, 134 20.25 M134 20.25 C132.18 34.59, 132.3 44.58, 134 60.75 M134 20.25 C134.04 32.43, 134.15 45.01, 134 60.75 M134 60.75 C134.86 75.82, 126.66 80.85, 113.75 81 M134 60.75 C136.22 75.78, 125.93 83.03, 113.75 81 M113.75 81 C85.84 81.81, 58.74 83.02, 20.25 81 M113.75 81 C79.56 80.95, 45.88 80.39, 20.25 81 M20.25 81 C6.02 80.86, 0.7 74.76, 0 60.75 M20.25 81 C7.19 80.34, -0.16 74.7, 0 60.75 M0 60.75 C-0.27 47.86, -0.68 38.12, 0 20.25 M0 60.75 C-0.28 51.68, 0.02 44.38, 0 20.25 M0 20.25 C-0.65 5.43, 5.99 1.44, 20.25 0 M0 20.25 C-1.96 5.17, 8.15 -1.17, 20.25 0" stroke="#000000" stroke-width="1" fill="none"></path></g><g transform="translate(384.35692265065717 234.09895678614765) rotate(0 47.5 12)"><text x="47.5" y="19" font-family="Cascadia, Segoe UI Emoji" font-size="20px" fill="#000000" text-anchor="middle" style="white-space: pre;" direction="ltr">matching</text></g><g stroke-linecap="round" transform="translate(688.2787976506572 306.6209403854904) rotate(0 72 49.5)"><path d="M25.12 0.55 L118.97 1.53 L131.39 3.01 L136.45 7.43 L141.73 15.6 L145.39 22.81 L143.71 80.78 L142.41 86.7 L139.2 91.66 L131.19 96.72 L117.81 98.01 L25.13 97.08 L12.71 98.35 L6.28 91.67 L2.53 88.25 L-0.26 78.16 L0.46 19.13 L3.53 7.74 L10.06 2.02 L25.6 0.68" stroke="none" stroke-width="0" fill="#b2dfdb"></path><path d="M24.75 0 M24.75 0 C46.76 2.31, 65.01 1.72, 119.25 0 M24.75 0 C54.5 0.24, 83.74 -1.22, 119.25 0 M119.25 0 C137.53 -1.16, 144.57 9.65, 144 24.75 M119.25 0 C133.97 -2.15, 145.7 9.62, 144 24.75 M144 24.75 C143.55 40.18, 142.49 53.32, 144 74.25 M144 24.75 C144.35 36.42, 144.99 47.92, 144 74.25 M144 74.25 C142.41 89.59, 135.72 99.68, 119.25 99 M144 74.25 C145.38 88.7, 135.05 97.55, 119.25 99 M119.25 99 C89.22 99.08, 59.21 99.15, 24.75 99 M119.25 99 C93.29 97.88, 68.13 98.39, 24.75 99 M24.75 99 C9.99 98.65, -0.11 90.85, 0 74.25 M24.75 99 C8.78 99.47, -1.27 89.64, 0 74.25 M0 74.25 C1.1 65.52, 1.12 55, 0 24.75 M0 74.25 C-0.35 59.64, 0.14 45.04, 0 24.75 M0 24.75 C-0.75 8.79, 7.38 1.22, 24.75 0 M0 24.75 C0.74 7.37, 6.32 -1.99, 24.75 0" stroke="#000000" stroke-width="1" fill="none"></path></g><g transform="translate(695.2787976506572 320.1209403854904) rotate(0 65 36)"><text x="65" y="19" font-family="Cascadia, Segoe UI Emoji" font-size="20px" fill="#000000" text-anchor="middle" style="white-space: pre;" direction="ltr">Threat </text><text x="65" y="43" font-family="Cascadia, Segoe UI Emoji" font-size="20px" fill="#000000" text-anchor="middle" style="white-space: pre;" direction="ltr">database &amp; </text><text x="65" y="67" font-family="Cascadia, Segoe UI Emoji" font-size="20px" fill="#000000" text-anchor="middle" style="white-space: pre;" direction="ltr">collabs</text></g><g stroke-linecap="round" transform="translate(427.91161015065717 308.7615653854904) rotate(0 123.5 46)"><path d="M22.85 -1.74 L223.49 0.23 L233.87 1.91 L242.32 6.78 L247.4 16.37 L245.07 68.85 L245.83 79.5 L242.97 84.12 L239.69 88.29 L225.94 92.94 L23.09 90.78 L11.48 91.77 L6.17 85.91 L-1.59 73.86 L-0.29 17.96 L6.05 4.78 L12.28 3.2 L24.88 -1.09" stroke="none" stroke-width="0" fill="#b2dfdb"></path><path d="M23 0 M23 0 C69.57 2.79, 116.38 2.88, 224 0 M23 0 C64.82 1.87, 108.75 1.62, 224 0 M224 0 C240.38 -0.09, 245.2 9.09, 247 23 M224 0 C239.03 0.78, 247.09 5.74, 247 23 M247 23 C245.83 42.29, 248.12 60.03, 247 69 M247 23 C248 37.07, 246.72 51.58, 247 69 M247 69 C248.51 85.99, 240.35 92.31, 224 92 M247 69 C246.18 82.11, 240.13 91.96, 224 92 M224 92 C175.79 91.17, 130.89 91.38, 23 92 M224 92 C162.14 92.25, 100.16 93.46, 23 92 M23 92 C7.92 93.93, -1.12 84.34, 0 69 M23 92 C6.55 90.77, -2.27 84.52, 0 69 M0 69 C-1.45 51.7, 0.7 35.65, 0 23 M0 69 C-0.66 58.73, 0.19 48.59, 0 23 M0 23 C0.75 8.34, 6.95 2, 23 0 M0 23 C0.99 8.77, 8.38 1.76, 23 0" stroke="#000000" stroke-width="1" fill="none"></path></g><g transform="translate(509.91161015065717 342.7615653854904) rotate(0 41.5 12)"><text x="41.5" y="19" font-family="Cascadia, Segoe UI Emoji" font-size="20px" fill="#000000" text-anchor="middle" style="white-space: pre;" direction="ltr">Indices</text></g><g stroke-linecap="round" transform="translate(221.88426640065717 415.47786303614765) rotate(0 41 28)"><path d="M13.62 -1.38 L68.64 -0.51 L75.03 2.73 L80.17 2.99 L81.12 6.73 L81.31 15.51 L83.72 45.85 L78.23 51.64 L72.66 53.86 L68.82 57.74 L12.25 55.85 L6.07 55.6 L3.83 51.72 L-0.61 43.56 L0.9 9.63 L2.76 5.32 L7.45 3.75 L13.82 1.7" stroke="none" stroke-width="0" fill="#ffe0b2"></path><path d="M14 0 M14 0 C27.17 -0.08, 44.5 0.08, 68 0 M14 0 C27.19 0.36, 41.99 0.81, 68 0 M68 0 C76.75 -1.9, 83.66 3.07, 82 14 M68 0 C76.26 1.26, 82.62 4.72, 82 14 M82 14 C80.55 22.13, 79.84 29.03, 82 42 M82 14 C82.83 20.98, 81.68 28.63, 82 42 M82 42 C83.97 51.29, 75.46 55.89, 68 56 M82 42 C82.26 50.93, 77.92 57.03, 68 56 M68 56 C52.74 55.09, 40.53 54.1, 14 56 M68 56 C56.84 57.12, 46.73 55.59, 14 56 M14 56 C4.54 57.94, 0.68 53.03, 0 42 M14 56 C4.19 57.23, 0.3 49.54, 0 42 M0 42 C-0.86 33.43, 1.38 21.93, 0 14 M0 42 C0.35 36.86, -0.21 29.69, 0 14 M0 14 C1.18 6.58, 6.61 1.06, 14 0 M0 14 C1.15 2.67, 4.13 -0.49, 14 0" stroke="#000000" stroke-width="1" fill="none"></path></g><g transform="translate(244.88426640065717 431.47786303614765) rotate(0 18 12)"><text x="18" y="19" font-family="Cascadia, Segoe UI Emoji" font-size="20px" fill="#000000" text-anchor="middle" style="white-space: pre;" direction="ltr">PDQ</text></g><g stroke-linecap="round" transform="translate(315.78270390065717 416.29426928614765) rotate(0 46.5 28)"><path d="M15.26 1.55 L80.76 -0.38 L88.03 0.67 L91.42 5.61 L93.5 9.66 L94.55 40.33 L89.24 48.89 L89.2 52.43 L80.03 57.77 L13.93 54.25 L4.48 54.72 L2.29 50.06 L2 44.66 L1.83 12.31 L2.72 6.26 L4.8 1.47 L13.08 0.63" stroke="none" stroke-width="0" fill="#ffe0b2"></path><path d="M14 0 M14 0 C34.13 -2.43, 53.5 0.94, 79 0 M14 0 C39.97 -0.19, 65.42 0.39, 79 0 M79 0 C86.48 -1.08, 94.08 3.51, 93 14 M79 0 C89.98 -0.89, 92.47 5.49, 93 14 M93 14 C92.97 19.73, 92.28 26.44, 93 42 M93 14 C92.88 25.1, 92.52 36.5, 93 42 M93 42 C91.26 49.42, 88.11 56.05, 79 56 M93 42 C92.98 50.08, 89.17 57.3, 79 56 M79 56 C55.26 54.17, 28.15 53.91, 14 56 M79 56 C64.63 56.56, 50.77 56.46, 14 56 M14 56 C6.57 56.19, 0.49 52.75, 0 42 M14 56 C5.36 53.89, -1.61 52.23, 0 42 M0 42 C-0.9 33.05, -0.39 20.11, 0 14 M0 42 C-0.93 35.69, -0.49 30.19, 0 14 M0 14 C-1.28 3.9, 4.61 0.41, 14 0 M0 14 C-0.62 3.09, 3.56 0.18, 14 0" stroke="#000000" stroke-width="1" fill="none"></path></g><g transform="translate(326.78270390065717 432.29426928614765) rotate(0 35.5 12)"><text x="35.5" y="19" font-family="Cascadia, Segoe UI Emoji" font-size="20px" fill="#000000" text-anchor="middle" style="white-space: pre;" direction="ltr">ffmpeg</text></g><g stroke-linecap="round" transform="translate(845.3608289006572 306.5193778854904) rotate(0 76 51.5)"><path d="M24.12 1.59 L125.16 0.76 L137.75 -0.35 L145.27 4.6 L151.25 13.2 L151.83 24.46 L153.41 84.43 L149.88 90.08 L147.02 95.17 L136.19 99.98 L127.17 101.07 L24.92 103.38 L12.6 99.63 L4.97 94.81 L5.38 92.47 L0.51 81.51 L1.72 17.8 L2.62 9.1 L7.49 6.2 L14.61 -0.21 L23.77 -1.88" stroke="none" stroke-width="0" fill="#b2dfdb"></path><path d="M25.75 0 M25.75 0 C57.17 1.56, 86.5 -0.33, 126.25 0 M25.75 0 C65.25 -0.01, 104.02 -0.29, 126.25 0 M126.25 0 C141.69 0.16, 151.42 6.77, 152 25.75 M126.25 0 C143.79 -0.28, 152.69 6.55, 152 25.75 M152 25.75 C150.88 35.32, 151.17 49.07, 152 77.25 M152 25.75 C151.67 40.34, 151.35 55.36, 152 77.25 M152 77.25 C153.92 93.56, 142.2 104.18, 126.25 103 M152 77.25 C150.29 94.44, 142.76 103.75, 126.25 103 M126.25 103 C102.44 104.09, 75.54 104.29, 25.75 103 M126.25 103 C93.24 103.37, 61.41 102.59, 25.75 103 M25.75 103 C7.18 101.82, 1.18 95.19, 0 77.25 M25.75 103 C6.73 104.06, -2.07 94.34, 0 77.25 M0 77.25 C0.31 65.77, -1.45 53.43, 0 25.75 M0 77.25 C0.22 60.5, 0.68 46.24, 0 25.75 M0 25.75 C-0.81 7.91, 8.88 -0.1, 25.75 0 M0 25.75 C-1.43 7.28, 9.9 -1.56, 25.75 0" stroke="#000000" stroke-width="1" fill="none"></path></g><g transform="translate(868.3608289006572 334.0193778854904) rotate(0 53 24)"><text x="53" y="19" font-family="Cascadia, Segoe UI Emoji" font-size="20px" fill="#000000" text-anchor="middle" style="white-space: pre;" direction="ltr">local </text><text x="53" y="43" font-family="Cascadia, Segoe UI Emoji" font-size="20px" fill="#000000" text-anchor="middle" style="white-space: pre;" direction="ltr">decisions</text></g><g stroke-linecap="round" transform="translate(693.3920789006572 489.72395678614765) rotate(0 151.5 27.5)"><path d="M14.8 -0.98 L291.35 -0.23 L299.75 4.97 L300.99 9.64 L304.24 44.86 L299.45 51.41 L297.18 54.92 L288.94 56.7 L10.9 56.44 L4.03 53.64 L0.2 49.04 L1.9 14.1 L-0.1 9.39 L4.7 5.14 L7.16 2.47 L15.05 0.07" stroke="none" stroke-width="0" fill="#ffccbc"></path><path d="M13.75 0 M13.75 0 C70.87 -0.89, 129.93 -0.41, 289.25 0 M13.75 0 C90.43 0.1, 167.57 0.56, 289.25 0 M289.25 0 C299.04 -1.93, 301.2 6.55, 303 13.75 M289.25 0 C300.27 -1.59, 305.18 5.26, 303 13.75 M303 13.75 C302.21 22.96, 301.88 35.39, 303 41.25 M303 13.75 C302.92 23.5, 301.97 31.7, 303 41.25 M303 41.25 C303.87 51.01, 298.5 54.2, 289.25 55 M303 41.25 C301.9 51.72, 298.51 57.12, 289.25 55 M289.25 55 C215.18 54.59, 142.76 53.19, 13.75 55 M289.25 55 C223.93 55.31, 158.04 56.42, 13.75 55 M13.75 55 C3.77 56.82, -0.24 48.86, 0 41.25 M13.75 55 C5.34 53.9, 1.82 51.36, 0 41.25 M0 41.25 C-0.51 34.17, -1.38 22.88, 0 13.75 M0 41.25 C-0.16 36.05, -0.5 29.61, 0 13.75 M0 13.75 C0.41 3.47, 3.61 -1.2, 13.75 0 M0 13.75 C2.21 4.19, 2.56 1.61, 13.75 0" stroke="#000000" stroke-width="1" fill="none"></path></g><g transform="translate(756.3920789006572 505.22395678614765) rotate(0 88.5 12)"><text x="88.5" y="19" font-family="Cascadia, Segoe UI Emoji" font-size="20px" fill="#000000" text-anchor="middle" style="white-space: pre;" direction="ltr">Postgres Server</text></g><g stroke-linecap="round" transform="translate(425.81004765065717 416.70833178614765) rotate(0 125 28)"><path d="M14.76 0.41 L238.17 -0.76 L245.3 5.42 L248.78 6.11 L251.18 46.62 L245.72 53.87 L242.09 54.98 L236.62 54.22 L11.41 56.17 L4.2 53.83 L-0.56 49.72 L0.09 13.93 L0.22 7.68 L4.68 5.5 L9.45 -0.01 L12.16 0.21" stroke="none" stroke-width="0" fill="#ffe0b2"></path><path d="M14 0 M14 0 C66.52 1.36, 115.55 0.47, 236 0 M14 0 C74.44 1.54, 133.69 1.34, 236 0 M236 0 C246.29 1.37, 248.13 3.6, 250 14 M236 0 C243.57 -0.3, 247.92 3.05, 250 14 M250 14 C250.21 22.23, 250.43 30.3, 250 42 M250 14 C249.49 24.29, 249.89 34.23, 250 42 M250 42 C251.48 50.83, 246.99 54.85, 236 56 M250 42 C251.02 52.82, 246.4 55.31, 236 56 M236 56 C156.53 58.1, 75.95 57.05, 14 56 M236 56 C148.82 56.51, 63.53 57.1, 14 56 M14 56 C3.19 55.65, 1.05 50.49, 0 42 M14 56 C4.79 55.72, -0.08 53.52, 0 42 M0 42 C-0.96 34.81, -1.12 28.88, 0 14 M0 42 C-0.23 31.41, -0.55 22.73, 0 14 M0 14 C-0.68 4.86, 3.32 1.68, 14 0 M0 14 C2.21 5.98, 3.22 -1.2, 14 0" stroke="#000000" stroke-width="1" fill="none"></path></g><g transform="translate(520.8100476506572 432.70833178614765) rotate(0 30 12)"><text x="30" y="19" font-family="Cascadia, Segoe UI Emoji" font-size="20px" fill="#000000" text-anchor="middle" style="white-space: pre;" direction="ltr">FAISS</text></g><g stroke-linecap="round" transform="translate(513.9389539006572 206.15364428614765) rotate(0 239.5 41)"><path d="M21.84 -0.09 L463.71 0 L472.76 4.75 L479.49 12.56 L478.33 20.5 L478.15 68.3 L472.11 75.24 L467.68 81.7 L459.45 80.74 L15.15 81.82 L8.58 80.98 L0.75 69.79 L0.03 60.71 L-0.69 18.6 L3.26 10.5 L5.9 6.9 L10.44 1.31 L19 -0.65" stroke="none" stroke-width="0" fill="#bbdefb"></path><path d="M20.5 0 M20.5 0 C131.81 -1.82, 241.19 -1.54, 458.5 0 M20.5 0 C127.13 1.09, 233.3 0.88, 458.5 0 M458.5 0 C471.43 -0.9, 480.01 7.71, 479 20.5 M458.5 0 C472.88 -0.54, 480.44 5.68, 479 20.5 M479 20.5 C477.47 29.49, 480.26 38.71, 479 61.5 M479 20.5 C479.49 34.75, 478.64 50.3, 479 61.5 M479 61.5 C478.23 76.29, 472.99 83.43, 458.5 82 M479 61.5 C477.73 74.85, 470.56 82.36, 458.5 82 M458.5 82 C369.4 82.05, 281.9 82.01, 20.5 82 M458.5 82 C287.61 82.2, 117.39 82.06, 20.5 82 M20.5 82 C6.47 81.15, 0.59 76.67, 0 61.5 M20.5 82 C8.04 81.25, -1.07 76.78, 0 61.5 M0 61.5 C-0.56 48.86, -0.39 32.9, 0 20.5 M0 61.5 C0.72 51.34, 1.12 39.85, 0 20.5 M0 20.5 C-1.8 5.68, 4.9 0.33, 20.5 0 M0 20.5 C-0.93 8.96, 8.53 -1.57, 20.5 0" stroke="#000000" stroke-width="1" fill="none"></path></g><g transform="translate(676.9389539006572 235.15364428614765) rotate(0 76.5 12)"><text x="76.5" y="19" font-family="Cascadia, Segoe UI Emoji" font-size="20px" fill="#000000" text-anchor="middle" style="white-space: pre;" direction="ltr">data curation</text></g><g transform="translate(10 33.80729321385223) rotate(0 74.5 17.5)"><text x="0" y="25" font-family="Virgil, Segoe UI Emoji" font-size="28px" fill="#000000" text-anchor="start" style="white-space: pre;" direction="ltr">Interfaces</text></g><g transform="translate(18.9296875 235.78776196385223) rotate(0 63 17.5)"><text x="0" y="25" font-family="Virgil, Segoe UI Emoji" font-size="28px" fill="#000000" text-anchor="start" style="white-space: pre;" direction="ltr">Functions</text></g><g transform="translate(18.546875 337.87369946385223) rotate(0 69 17.5)"><text x="0" y="25" font-family="Virgil, Segoe UI Emoji" font-size="28px" fill="#000000" text-anchor="start" style="white-space: pre;" direction="ltr">Datasets</text></g><g transform="translate(20.200672650657168 415.37760571385223) rotate(0 84.5 35)"><text x="0" y="25" font-family="Virgil, Segoe UI Emoji" font-size="28px" fill="#000000" text-anchor="start" style="white-space: pre;" direction="ltr">Library</text><text x="0" y="60" font-family="Virgil, Segoe UI Emoji" font-size="28px" fill="#000000" text-anchor="start" style="white-space: pre;" direction="ltr">dependencies</text></g><g transform="translate(19.126453900657168 506.67448071385223) rotate(0 139 17.5)"><text x="0" y="25" font-family="Virgil, Segoe UI Emoji" font-size="28px" fill="#000000" text-anchor="start" style="white-space: pre;" direction="ltr">Service dependencies</text></g><g stroke-linecap="round" transform="translate(691.1303601506572 418.70589037989765) rotate(0 153 28)"><path d="M15.72 -1.21 L293.58 0.64 L304.31 4.96 L304.03 8.7 L305.26 46.95 L303.73 52.33 L298.32 53.35 L291.34 55.37 L9.84 55.5 L1.52 50.68 L0.01 46.64 L-1.26 15.79 L1.72 8.65 L5.24 3.96 L8.46 1.3 L13.95 -0.71" stroke="none" stroke-width="0" fill="#ffe0b2"></path><path d="M14 0 M14 0 C102.92 -2.6, 190.52 -0.08, 292 0 M14 0 C91.95 -2.23, 170.13 -1.92, 292 0 M292 0 C302 -1.05, 307.31 4.56, 306 14 M292 0 C299.11 -0.02, 306.3 4.95, 306 14 M306 14 C307.11 20.08, 307.32 30.56, 306 42 M306 14 C306.59 22.01, 305.75 29.17, 306 42 M306 42 C305.63 49.68, 303.07 56.73, 292 56 M306 42 C306.72 51.71, 301.82 57.76, 292 56 M292 56 C186.53 58.64, 80.57 58.84, 14 56 M292 56 C205.17 55.34, 117.34 55.28, 14 56 M14 56 C4.97 56.67, -1.5 52.98, 0 42 M14 56 C3.9 57.66, -0.23 49.9, 0 42 M0 42 C-1.38 30.05, 1.92 21.9, 0 14 M0 42 C0.85 35.71, 0.03 28.36, 0 14 M0 14 C1.14 6.33, 3.21 0.82, 14 0 M0 14 C-1.95 2.67, 2.77 -0.13, 14 0" stroke="#000000" stroke-width="1" fill="none"></path></g><g transform="translate(755.6303601506572 434.70589037989765) rotate(0 88.5 12)"><text x="88.5" y="19" font-family="Cascadia, Segoe UI Emoji" font-size="20px" fill="#000000" text-anchor="middle" style="white-space: pre;" direction="ltr">Postgres Client</text></g><g transform="translate(15.0181884765625 126.64078930760223) rotate(0 59 17.5)"><text x="0" y="25" font-family="Virgil, Segoe UI Emoji" font-size="28px" fill="#000000" text-anchor="start" style="white-space: pre;" direction="ltr">Libraries</text></g></svg>