<svg version="1.1" xmlns="http://www.w3.org/2000/svg" viewBox="0 0 452.5133758396778 753.8585069444441" width="452.5133758396778" height="753.8585069444441">
  <!-- svg-source:excalidraw -->
  
  <defs>
    <style class="style-fonts">
      @font-face {
        font-family: "Virgil";
        src: url("https://unpkg.com/@excalidraw/excalidraw@0.14.0/dist/excalidraw-assets/Virgil.woff2");
      }
      @font-face {
        font-family: "Cascadia";
        src: url("https://unpkg.com/@excalidraw/excalidraw@0.14.0/dist/excalidraw-assets/Cascadia.woff2");
      }
    </style>
  </defs>
  <rect x="0" y="0" width="452.5133758396778" height="753.8585069444441" fill="#ffffff"></rect><g stroke-linecap="round" transform="translate(35.29166666666629 275.5928276909717) rotate(0 172.318359375 152.8671875)"><path d="M32 0 M32 0 C136.99 -3, 242.57 -2.53, 312.64 0 M32 0 C132.88 -0.3, 233.72 -0.39, 312.64 0 M312.64 0 C335.08 -0.11, 346.26 10.84, 344.64 32 M312.64 0 C331.92 -0.02, 344.25 11.56, 344.64 32 M344.64 32 C345.51 125.62, 346.95 220.09, 344.64 273.73 M344.64 32 C346.11 107.69, 345.5 185.02, 344.64 273.73 M344.64 273.73 C343.03 293.43, 333.94 306.14, 312.64 305.73 M344.64 273.73 C345.37 293.21, 334.96 306.94, 312.64 305.73 M312.64 305.73 C254.96 306.59, 195.36 308.4, 32 305.73 M312.64 305.73 C209.18 304.84, 105.15 304.56, 32 305.73 M32 305.73 C12.04 306.36, 1.93 296.05, 0 273.73 M32 305.73 C9.7 305.86, -0.92 295.14, 0 273.73 M0 273.73 C-2.17 209.69, -1.99 145.98, 0 32 M0 273.73 C1.02 210.03, -0.08 145.21, 0 32 M0 32 C-1.89 11.43, 12.43 0.8, 32 0 M0 32 C0.25 9.37, 9.88 0.41, 32 0" stroke="#000000" stroke-width="1" fill="none"></path></g><g stroke-linecap="round" transform="translate(55.75651041666629 325.3154839409717) rotate(0 150 20.5)"><path d="M10.25 0 M10.25 0 C122.58 0.81, 234.58 1.37, 289.75 0 M10.25 0 C107.73 -1.38, 204.9 -2.05, 289.75 0 M289.75 0 C298.21 0.17, 298.22 3.4, 300 10.25 M289.75 0 C296.2 0.89, 302.09 5.62, 300 10.25 M300 10.25 C300.33 16.87, 300.18 27.27, 300 30.75 M300 10.25 C299.25 18.54, 299.19 24.57, 300 30.75 M300 30.75 C299.97 37.99, 297.22 39.38, 289.75 41 M300 30.75 C300.99 38.79, 294.48 42.25, 289.75 41 M289.75 41 C189.46 41.87, 90.66 38.96, 10.25 41 M289.75 41 C225.9 43.11, 162.28 43, 10.25 41 M10.25 41 C5.35 41.98, -0.84 37.69, 0 30.75 M10.25 41 C2.5 41.07, -0.83 38.56, 0 30.75 M0 30.75 C-1.21 22.71, -0.53 14.48, 0 10.25 M0 30.75 C-0.88 24.06, -1.06 18.42, 0 10.25 M0 10.25 C1.77 4.22, 3.64 -1.13, 10.25 0 M0 10.25 C-0.79 3.83, 5.66 -1.64, 10.25 0" stroke="#000000" stroke-width="1" fill="none"></path></g><g transform="translate(181.7565104166663 336.3154839409717) rotate(0 24 9.5)"><text x="24" y="15" font-family="Cascadia, Segoe UI Emoji" font-size="16px" fill="#000000" text-anchor="middle" style="white-space: pre;" direction="ltr">Flask</text></g><g stroke-linecap="round" transform="translate(53.90885416666629 376.9639214409717) rotate(0 152.5 20.5)"><path d="M10.25 0 M10.25 0 C80.59 0.72, 149.87 0.96, 294.75 0 M10.25 0 C122.72 -1.82, 234.96 -1.72, 294.75 0 M294.75 0 C299.8 -0.02, 304.67 4.19, 305 10.25 M294.75 0 C303.68 2.21, 306.82 1.96, 305 10.25 M305 10.25 C305.35 16.77, 306.43 20.28, 305 30.75 M305 10.25 C304.04 14.31, 304.83 20.22, 305 30.75 M305 30.75 C305.64 35.97, 302.44 42.05, 294.75 41 M305 30.75 C302.9 38.83, 302.92 42.29, 294.75 41 M294.75 41 C217.79 41.53, 137.63 43.72, 10.25 41 M294.75 41 C186.52 42.22, 77.99 42.35, 10.25 41 M10.25 41 C2.58 41.11, -0.8 37.64, 0 30.75 M10.25 41 C2.59 41.98, 1.92 35.76, 0 30.75 M0 30.75 C-0.55 24.34, 0.34 20.17, 0 10.25 M0 30.75 C-0.79 23.96, 1.04 16.8, 0 10.25 M0 10.25 C0.22 2.29, 2.73 0.36, 10.25 0 M0 10.25 C2.24 1.77, 1.23 0.89, 10.25 0" stroke="#000000" stroke-width="1" fill="none"></path></g><g transform="translate(182.4088541666663 387.9639214409717) rotate(0 24 9.5)"><text x="24" y="15" font-family="Cascadia, Segoe UI Emoji" font-size="16px" fill="#000000" text-anchor="middle" style="white-space: pre;" direction="ltr">py-tx</text></g><g stroke-linecap="round" transform="translate(52.18229166666629 427.3037651909717) rotate(0 50.5 25)"><path d="M12.5 0 M12.5 0 C34.3 0.45, 56.09 0.89, 88.5 0 M12.5 0 C42.38 0.13, 69.74 0.03, 88.5 0 M88.5 0 C96.5 0.77, 102.82 6.09, 101 12.5 M88.5 0 C98.65 -1.46, 99.75 4.7, 101 12.5 M101 12.5 C102.42 18.52, 99.8 23.13, 101 37.5 M101 12.5 C100.78 22.01, 101.12 30.3, 101 37.5 M101 37.5 C101.86 46.88, 95 51.08, 88.5 50 M101 37.5 C102.34 47.12, 96.24 49.68, 88.5 50 M88.5 50 C57.22 50.2, 30.42 49.65, 12.5 50 M88.5 50 C63.21 50.73, 35.57 50.29, 12.5 50 M12.5 50 C3.37 50.06, -0.72 46.68, 0 37.5 M12.5 50 C6.09 48.18, -0.33 44.25, 0 37.5 M0 37.5 C0.29 31.36, 1.09 21.42, 0 12.5 M0 37.5 C1.12 31.23, 0.35 23.6, 0 12.5 M0 12.5 C-0.69 4.52, 6.12 -1.43, 12.5 0 M0 12.5 C-2.19 5.05, 2.77 -2.14, 12.5 0" stroke="#000000" stroke-width="1" fill="none"></path></g><g transform="translate(69.18229166666629 442.8037651909717) rotate(0 33.5 9.5)"><text x="33.5" y="15" font-family="Cascadia, Segoe UI Emoji" font-size="16px" fill="#000000" text-anchor="middle" style="white-space: pre;" direction="ltr">hashing</text></g><g stroke-linecap="round" transform="translate(156.8854166666663 426.8467339409717) rotate(0 50.5 25)"><path d="M12.5 0 M12.5 0 C38 0.77, 61.4 0.91, 88.5 0 M12.5 0 C33.99 -0.07, 57.11 0.32, 88.5 0 M88.5 0 C98.65 1.92, 102.58 2.9, 101 12.5 M88.5 0 C95.58 0.53, 99.68 4.52, 101 12.5 M101 12.5 C99.93 20.35, 102.62 29.59, 101 37.5 M101 12.5 C101.31 17.15, 101.43 23.94, 101 37.5 M101 37.5 C99.17 46.92, 97.99 51.12, 88.5 50 M101 37.5 C100.41 45.52, 98.97 51.61, 88.5 50 M88.5 50 C74.72 50.74, 58.55 51.73, 12.5 50 M88.5 50 C62.9 50.43, 37.75 50.4, 12.5 50 M12.5 50 C3.45 50.85, 1.67 44.25, 0 37.5 M12.5 50 C3.84 48.42, -0.21 45.03, 0 37.5 M0 37.5 C0.98 29.16, -0.69 21.98, 0 12.5 M0 37.5 C-0.11 28.48, -0.56 20.76, 0 12.5 M0 12.5 C1.95 2.74, 2.26 0.77, 12.5 0 M0 12.5 C-1.4 2.03, 1.99 -0.22, 12.5 0" stroke="#000000" stroke-width="1" fill="none"></path></g><g transform="translate(169.3854166666663 442.3467339409717) rotate(0 38 9.5)"><text x="38" y="15" font-family="Cascadia, Segoe UI Emoji" font-size="16px" fill="#000000" text-anchor="middle" style="white-space: pre;" direction="ltr">matching</text></g><g stroke-linecap="round" transform="translate(261.6822916666663 427.1943901909717) rotate(0 50.5 25)"><path d="M12.5 0 M12.5 0 C38.98 0.75, 62.05 1.26, 88.5 0 M12.5 0 C35.77 0.39, 60.29 0.97, 88.5 0 M88.5 0 C98.41 -1.27, 99.91 4.63, 101 12.5 M88.5 0 C95.51 0.35, 102.7 5.76, 101 12.5 M101 12.5 C102.29 18.34, 99.21 27.37, 101 37.5 M101 12.5 C101.51 21.03, 100.17 29.06, 101 37.5 M101 37.5 C102.16 46.95, 96.32 49.73, 88.5 50 M101 37.5 C103.14 47.44, 94.6 48.37, 88.5 50 M88.5 50 C63.06 51.52, 36.43 52.08, 12.5 50 M88.5 50 C61.57 50.07, 35.08 50.47, 12.5 50 M12.5 50 C5.84 48.41, -0.29 44.46, 0 37.5 M12.5 50 C3.96 49.2, -0.63 46.06, 0 37.5 M0 37.5 C-0.79 26.69, 0.64 21.42, 0 12.5 M0 37.5 C-0.37 29.18, 0.95 19.79, 0 12.5 M0 12.5 C-1.9 4.94, 2.95 -1.86, 12.5 0 M0 12.5 C-2.18 3.95, 3.26 -1.33, 12.5 0" stroke="#000000" stroke-width="1" fill="none"></path></g><g transform="translate(274.1822916666663 442.6943901909717) rotate(0 38 9.5)"><text x="38" y="15" font-family="Cascadia, Segoe UI Emoji" font-size="16px" fill="#000000" text-anchor="middle" style="white-space: pre;" direction="ltr">curation</text></g><g stroke-linecap="round" transform="translate(53.35807291666629 490.6748589409717) rotate(0 64 22.5)"><path d="M11.25 0 M11.25 0 C47.9 1.04, 84.94 -2.37, 116.75 0 M11.25 0 C43.72 0.55, 75.16 -1.04, 116.75 0 M116.75 0 C123.16 0.46, 126.85 4.06, 128 11.25 M116.75 0 C125.95 1.59, 127.95 2.33, 128 11.25 M128 11.25 C126.53 16.29, 128.57 22.02, 128 33.75 M128 11.25 C127.18 16.72, 128.68 21.68, 128 33.75 M128 33.75 C127.48 40.98, 126.11 46.4, 116.75 45 M128 33.75 C125.77 39.62, 125.32 46.89, 116.75 45 M116.75 45 C83.71 47.66, 50.4 44.88, 11.25 45 M116.75 45 C84.18 45.46, 53.17 44.24, 11.25 45 M11.25 45 C3.46 43.63, -0.18 40.56, 0 33.75 M11.25 45 C3.12 45.23, 1.31 42.4, 0 33.75 M0 33.75 C0.84 30.48, 0.87 23.9, 0 11.25 M0 33.75 C1.05 27.56, -0.87 23.18, 0 11.25 M0 11.25 C-1.21 1.89, 1.85 -0.19, 11.25 0 M0 11.25 C-0.91 2.42, 4.12 -2.02, 11.25 0" stroke="#000000" stroke-width="1" fill="none"></path></g><g transform="translate(93.35807291666629 503.6748589409717) rotate(0 24 9.5)"><text x="24" y="15" font-family="Cascadia, Segoe UI Emoji" font-size="16px" fill="#000000" text-anchor="middle" style="white-space: pre;" direction="ltr">FAISS</text></g><g stroke-linecap="round" transform="translate(217.2291666666663 643.2334526909717) rotate(0 92.5 40)"><path d="M20 0 M20 0 C71.75 -2.96, 123.15 -1.51, 165 0 M20 0 C69.9 -2.03, 117.68 -1.16, 165 0 M165 0 C177.18 0.31, 186.48 8.05, 185 20 M165 0 C178.29 -1.42, 183.28 8.33, 185 20 M185 20 C185.08 29.42, 183.06 38.43, 185 60 M185 20 C185.22 34.65, 184.38 48.05, 185 60 M185 60 C186.86 74.73, 176.39 78.58, 165 80 M185 60 C186.07 75.22, 178.77 81.05, 165 80 M165 80 C112.53 80.56, 58.2 80.6, 20 80 M165 80 C121.89 79.82, 76.97 79.93, 20 80 M20 80 C6.49 79.31, -0.55 73.53, 0 60 M20 80 C7.98 81.15, -1.75 72.57, 0 60 M0 60 C0.65 52, -1.28 42.87, 0 20 M0 60 C-1.34 47.67, -1 33.65, 0 20 M0 20 C-1.9 6.48, 5.88 -1.16, 20 0 M0 20 C0.37 4.65, 7.48 1.09, 20 0" stroke="#000000" stroke-width="1" fill="none"></path></g><g transform="translate(251.7291666666663 651.2334526909717) rotate(0 58 32)"><text x="58" y="26" font-family="Helvetica, Segoe UI Emoji" font-size="28px" fill="#000000" text-anchor="middle" style="white-space: pre;" direction="ltr">postgres </text><text x="58" y="58" font-family="Helvetica, Segoe UI Emoji" font-size="28px" fill="#000000" text-anchor="middle" style="white-space: pre;" direction="ltr">server</text></g><g stroke-linecap="round"><g transform="translate(276.1010812569259 563.1750338476882) rotate(0 0.015287878561480284 31.578114887156005)"><path d="M-1.07 -0.01 C-1.05 10.68, 0.52 53.4, 1.1 64.22 M0.57 -1.06 C0.33 9.25, -0.22 51.63, 0.05 62.34" stroke="#000000" stroke-width="1" fill="none"></path></g><g transform="translate(276.1010812569259 563.1750338476882) rotate(0 0.015287878561480284 31.578114887156005)"><path d="M-10.32 33.85 C-5.56 46.83, -0.47 57.32, -1.22 61.25 M-9.56 34.87 C-7.14 42.65, -4.52 53.09, -0.76 61.52" stroke="#000000" stroke-width="1" fill="none"></path></g><g transform="translate(276.1010812569259 563.1750338476882) rotate(0 0.015287878561480284 31.578114887156005)"><path d="M10.2 33.78 C7.14 46.6, 4.41 57.12, -1.22 61.25 M10.96 34.81 C6.75 42.63, 2.73 53.09, -0.76 61.52" stroke="#000000" stroke-width="1" fill="none"></path></g></g><mask></mask><g stroke-linecap="round" transform="translate(194.1197916666663 490.4209526909717) rotate(0 84 30)"><path d="M15 0 M15 0 C57.23 0.79, 101.95 1.93, 153 0 M15 0 C67.54 0.17, 119.76 1.49, 153 0 M153 0 C164.38 -0.04, 166.76 3.5, 168 15 M153 0 C164.66 -1.85, 166.12 4.96, 168 15 M168 15 C168.96 25.66, 166.27 35.31, 168 45 M168 15 C168.03 26.67, 168.87 35.52, 168 45 M168 45 C166.58 55.93, 164.64 60.38, 153 60 M168 45 C169.05 56.58, 163.72 62.22, 153 60 M153 60 C104.03 60.13, 55.94 60.92, 15 60 M153 60 C99.4 59.71, 46.82 59.53, 15 60 M15 60 C5.2 61.14, 1 53.47, 0 45 M15 60 C4.24 57.83, 0.88 57.03, 0 45 M0 45 C-0.72 35.16, 1.92 23.18, 0 15 M0 45 C-1.04 37.91, -0.21 32.31, 0 15 M0 15 C-1.16 5.32, 3.24 0.71, 15 0 M0 15 C1.09 3.54, 4.8 2.04, 15 0" stroke="#000000" stroke-width="1" fill="none"></path></g><g transform="translate(207.1197916666663 510.9209526909717) rotate(0 71 9.5)"><text x="71" y="15" font-family="Cascadia, Segoe UI Emoji" font-size="16px" fill="#000000" text-anchor="middle" style="white-space: pre;" direction="ltr">postgres client</text></g><g transform="translate(116.56901041666629 287.0654839409717) rotate(0 82.5 12.5)"><text x="0" y="18" font-family="Virgil, Segoe UI Emoji" font-size="20px" fill="#000000" text-anchor="start" style="white-space: pre;" direction="ltr">Docker container</text></g><g stroke-linecap="round" transform="translate(40.646701388888914 171.04600694444434) rotate(0 170 39)"><path d="M19.5 0 M19.5 0 C88.31 2.18, 155.2 2.37, 320.5 0 M19.5 0 C89.91 2.41, 160.6 2.45, 320.5 0 M320.5 0 C334.84 0.57, 340.31 6.72, 340 19.5 M320.5 0 C331.25 -0.26, 342.01 7.9, 340 19.5 M340 19.5 C339.19 31.42, 339.71 41.55, 340 58.5 M340 19.5 C339.85 35.69, 340.27 49.68, 340 58.5 M340 58.5 C339 72.15, 334.02 76.93, 320.5 78 M340 58.5 C340.71 73.46, 333.72 78.3, 320.5 78 M320.5 78 C243.24 75.7, 164.15 77.02, 19.5 78 M320.5 78 C222.06 80.1, 124.8 80.34, 19.5 78 M19.5 78 C7.78 76.38, -1.81 71.41, 0 58.5 M19.5 78 C4.28 76.79, 1.73 69.32, 0 58.5 M0 58.5 C1.01 49.4, 1.69 44.13, 0 19.5 M0 58.5 C0.05 45.57, 1.12 33.34, 0 19.5 M0 19.5 C-1.47 5.06, 6.39 -1.24, 19.5 0 M0 19.5 C-0.97 6.41, 4.91 2.28, 19.5 0" stroke="#000000" stroke-width="1" fill="none"></path></g><g transform="translate(174.1467013888889 194.04600694444434) rotate(0 36.5 16)"><text x="36.5" y="26" font-family="Helvetica, Segoe UI Emoji" font-size="28px" fill="#000000" text-anchor="middle" style="white-space: pre;" direction="ltr">Nginx</text></g><g stroke-linecap="round"><g transform="translate(341.3310881851114 257.43489583333303) rotate(0 0.30331410073586085 27.508397016201855)"><path d="M-1.1 -0.4 C-1.34 9.19, -0.78 47.46, -0.52 56.68 M0.52 -1.66 C0.58 7.67, 1.89 45.39, 1.76 54.96" stroke="#000000" stroke-width="1" fill="none"></path></g><g transform="translate(341.3310881851114 257.43489583333303) rotate(0 0.30331410073586085 27.508397016201855)"><path d="M-8.83 27.46 C-3.35 38.9, -2.55 46.6, 3.4 54.6 M-7.31 29.15 C-5.21 37.24, -1.5 46.96, 1.52 54.06" stroke="#000000" stroke-width="1" fill="none"></path></g><g transform="translate(341.3310881851114 257.43489583333303) rotate(0 0.30331410073586085 27.508397016201855)"><path d="M10.29 27.2 C8.62 38.56, 2.27 46.36, 3.4 54.6 M11.81 28.89 C7.07 37.09, 3.93 46.9, 1.52 54.06" stroke="#000000" stroke-width="1" fill="none"></path></g></g><mask></mask><g stroke-linecap="round"><g transform="translate(341.30788271170354 51.668977985611946) rotate(0 1.2497542249259368 52.29052760299862)"><path d="M-0.58 0.9 C-0.55 18.08, 0.34 85.87, 0.7 103 M1.31 0.33 C1.7 17.67, 3.14 86.81, 3.08 104.25" stroke="#000000" stroke-width="1" fill="none"></path></g><g transform="translate(341.30788271170354 51.668977985611946) rotate(0 1.2497542249259368 52.29052760299862)"><path d="M-5.97 75.13 C-4.79 86.2, -0.12 96.5, 4.32 103.11 M-7.66 75.99 C-3.27 87.92, 0.5 98.08, 3.42 103.76" stroke="#000000" stroke-width="1" fill="none"></path></g><g transform="translate(341.30788271170354 51.668977985611946) rotate(0 1.2497542249259368 52.29052760299862)"><path d="M14.55 74.92 C8.74 85.96, 6.42 96.33, 4.32 103.11 M12.86 75.77 C9.15 87.67, 4.83 97.91, 3.42 103.76" stroke="#000000" stroke-width="1" fill="none"></path></g></g><mask></mask><g transform="translate(288.5133758396778 10) rotate(0 77 17.5)"><text x="0" y="25" font-family="Virgil, Segoe UI Emoji" font-size="28px" fill="#000000" text-anchor="start" style="white-space: pre;" direction="ltr">API clients</text></g><g stroke-linecap="round" transform="translate(10 95.49479166666629) rotate(0 207.41753472222217 324.1818576388889)"><path d="M32 0 M32 0 C121.47 1.13, 209.73 0.13, 382.84 0 M32 0 C104.9 0.77, 177.92 0.29, 382.84 0 M382.84 0 C402.28 0.27, 413.77 10.19, 414.84 32 M382.84 0 C405 2.06, 413.95 12.53, 414.84 32 M414.84 32 C416.08 152.77, 416.2 273.54, 414.84 616.36 M414.84 32 C416.43 215.12, 416.3 397.84, 414.84 616.36 M414.84 616.36 C413.51 636.09, 402.32 647.71, 382.84 648.36 M414.84 616.36 C413.03 639.53, 404.83 647.61, 382.84 648.36 M382.84 648.36 C285.89 647.76, 186.78 645.81, 32 648.36 M382.84 648.36 C261.92 649.51, 140.82 648.73, 32 648.36 M32 648.36 C10.57 648.46, -1.6 638.13, 0 616.36 M32 648.36 C12.93 647.09, -1.17 636.96, 0 616.36 M0 616.36 C-1.23 390.18, -0.21 163.1, 0 32 M0 616.36 C1.79 423.08, 1.88 229.04, 0 32 M0 32 C-0.17 9.35, 11.18 -1.73, 32 0 M0 32 C1.14 12.22, 9.43 -0.56, 32 0" stroke="#000000" stroke-width="1" fill="none"></path></g><g transform="translate(112.11458333333348 109.24652777777737) rotate(0 99.5 20.5)"><text x="99.5" y="33" font-family="Helvetica, Segoe UI Emoji" font-size="36px" fill="#000000" text-anchor="middle" style="white-space: pre;" direction="ltr">OMM server</text></g></svg>